<?xml version="1.0" encoding="UTF-8" standalone="no"?>
<svg
   width="801.54572pt"
   height="390.64545pt"
   viewBox="0 0 801.54574 390.64543"
   version="1.1"
   id="svg34"
   sodipodi:docname="test.svg"
   inkscape:version="1.3.2 (091e20ef0f, 2023-11-25, custom)"
   xmlns:inkscape="http://www.inkscape.org/namespaces/inkscape"
   xmlns:sodipodi="http://sodipodi.sourceforge.net/DTD/sodipodi-0.dtd"
   xmlns:xlink="http://www.w3.org/1999/xlink"
   xmlns="http://www.w3.org/2000/svg"
   xmlns:svg="http://www.w3.org/2000/svg"
   xmlns:rdf="http://www.w3.org/1999/02/22-rdf-syntax-ns#"
   xmlns:cc="http://creativecommons.org/ns#"
   xmlns:dc="http://purl.org/dc/elements/1.1/">
  <sodipodi:namedview
     id="namedview34"
     pagecolor="#ffffff"
     bordercolor="#000000"
     borderopacity="0.25"
     inkscape:showpageshadow="2"
     inkscape:pageopacity="0.0"
     inkscape:pagecheckerboard="0"
     inkscape:deskcolor="#d1d1d1"
     inkscape:document-units="pt"
     inkscape:zoom="0.8045097"
     inkscape:cx="538.83751"
     inkscape:cy="325.66419"
     inkscape:window-width="1910"
     inkscape:window-height="1031"
     inkscape:window-x="0"
     inkscape:window-y="0"
     inkscape:window-maximized="1"
     inkscape:current-layer="svg34" />
  <metadata
     id="metadata1">
    <rdf:RDF>
      <cc:Work>
        <dc:type
           rdf:resource="http://purl.org/dc/dcmitype/StillImage" />
        <dc:date>2024-05-25T14:17:29.543387</dc:date>
        <dc:format>image/svg+xml</dc:format>
        <dc:creator>
          <cc:Agent>
            <dc:title>Matplotlib v3.8.1, https://matplotlib.org/</dc:title>
          </cc:Agent>
        </dc:creator>
      </cc:Work>
    </rdf:RDF>
  </metadata>
  <defs
     id="defs1">
    <style
       type="text/css"
       id="style1">*{stroke-linejoin: round; stroke-linecap: butt}</style>
  </defs>
  <g
     id="figure_1"
     transform="translate(-290.26524,-46.709)">
    <g
       id="axes_1">
      <g
         id="patch_2">
        <path
           d="m 345.3668,309.17292 h 684.4664 V 47.109 H 345.3668 Z"
           style="fill:#ffffff"
           id="path2" />
      </g>
      <g
         id="PolyCollection_1">
        <path
           d="m -3809.9111,137.82431 v 158.16795 h 12.6588 l 12.6587,13.18066 h 12.6588 l 12.6587,-39.54199 12.6588,39.54199 h 12.6587 12.6588 l 12.6587,-26.36133 h 12.6588 12.6587 l 12.6588,13.18067 h 12.6587 12.6588 l 12.6587,-13.18067 h 12.6588 l 12.6587,13.18067 h 12.6588 l 12.6587,-13.18067 12.6588,26.36133 12.6587,-13.18066 h 12.6588 12.6587 l 12.6588,-13.18067 h 12.6587 l 12.6588,-13.18066 12.6587,13.18066 12.6588,26.36133 12.6587,-13.18066 h 12.6587 12.6588 l 12.6587,-13.18067 h 12.6588 l 12.6587,26.36133 h 12.6588 12.6587 12.6588 12.6587 12.6588 12.6587 12.6588 12.6587 12.6588 12.6587 l 12.6588,-13.18066 h 12.6587 12.6588 l 12.6587,-13.18067 h 12.6588 12.6587 12.6588 12.6587 l 12.6588,13.18067 h 12.6587 l 12.6588,-39.54199 12.6587,26.36132 12.6588,13.18067 12.6587,-26.36133 12.6588,13.18066 h 12.6587 l 12.6588,13.18067 12.6587,-13.18067 12.6588,-26.36132 12.6587,26.36132 h 12.6587 l 12.6588,13.18067 12.6587,-13.18067 h 12.6588 l 12.6587,13.18067 12.6588,-26.36133 12.6587,13.18066 12.6588,-26.36132 12.6587,13.18066 12.6588,39.54199 12.6587,-65.90331 12.6588,52.72265 12.6587,-13.18067 12.6588,13.18067 12.6587,13.18066 12.6588,-26.36133 12.6587,-26.36132 12.6588,26.36132 12.6587,-39.54198 12.6588,13.18066 12.6587,26.36132 12.6588,13.18067 h 12.6587 l 12.6588,-13.18067 12.6587,-13.18066 12.6588,39.54199 12.6587,-26.36133 h 12.6588 l 12.6587,13.18067 12.6588,-13.18067 h 12.6587 12.6588 l 12.6587,-13.18066 12.6588,13.18066 12.6587,-26.36132 12.6587,26.36132 h 12.6588 l 12.6587,-13.18066 h 12.6588 l 12.6587,39.54199 12.6588,-13.18066 12.6587,-26.36133 12.6588,13.18066 h 12.6587 l 12.6588,13.18067 h 12.6587 12.6588 12.6587 l 12.6588,-13.18067 12.6587,13.18067 12.6588,-13.18067 12.6587,26.36133 12.6588,-39.54199 12.6587,39.54199 12.6588,-13.18066 12.6587,13.18066 h 12.6588 12.6587 12.6588 12.6587 12.6588 12.6587 l 12.6588,-26.36133 h 12.6587 12.6588 l 12.6587,13.18067 h 12.6588 l 12.6587,-26.36133 h 12.6587 l 12.6588,13.18066 h 12.6587 l 12.6588,13.18067 12.6587,-26.36133 12.6588,26.36133 12.6587,-13.18067 12.6588,-13.18066 12.6587,13.18066 h 12.6588 12.6587 l 12.6588,13.18067 12.6587,-13.18067 12.6588,13.18067 12.6587,13.18066 12.6588,-13.18066 12.6587,13.18066 h 12.6588 l 12.6587,-13.18066 h 12.6588 l 12.6587,-39.54199 12.6588,13.18066 12.6587,13.18066 h 12.6588 l 12.6587,-39.54198 12.6588,39.54198 h 12.6587 12.6588 l 12.6587,-26.36132 12.6588,26.36132 h 12.6587 12.6588 l 12.6587,-13.18066 12.6588,26.36133 12.6587,-13.18067 12.6587,13.18067 h 12.6588 12.6587 l 12.6588,-26.36133 12.6587,13.18066 12.6588,-13.18066 12.6587,-13.18066 12.6588,13.18066 12.6587,13.18066 h 12.6588 l 12.6587,13.18067 h 12.6588 l 12.6587,-13.18067 h 12.6588 l 12.6587,-13.18066 12.6588,26.36133 12.6587,-13.18067 12.6588,-26.36132 12.6587,52.72265 12.6588,-13.18066 12.6587,-13.18067 12.6588,-13.18066 12.6587,26.36133 12.6588,-13.18067 12.6587,13.18067 12.6588,-26.36133 12.6587,26.36133 12.6588,-13.18067 h 12.6587 l 12.6588,-13.18066 12.6587,26.36133 12.6588,-13.18067 h 12.6587 12.6587 12.6588 12.6587 l 12.6588,-13.18066 12.6587,26.36133 12.6588,-13.18067 12.6587,-13.18066 12.6588,13.18066 h 12.6587 l 12.6588,13.18067 12.6587,-39.54199 12.6588,39.54199 12.6587,13.18066 12.6588,-13.18066 12.6587,-13.18067 12.6588,-13.18066 12.6587,13.18066 12.6588,-13.18066 12.6587,26.36133 12.6588,-26.36133 12.6587,-13.18066 12.6588,26.36132 h 12.65872 l 12.65875,13.18067 h 12.65874 l 12.65875,13.18066 h 12.65875 l 12.65875,-13.18066 12.65875,-26.36133 12.65875,26.36133 12.65875,-13.18067 12.65874,13.18067 12.65875,-13.18067 h 12.65875 12.65875 l 12.65875,-13.18066 12.65875,-13.18066 12.65875,39.54199 12.65874,13.18066 h 12.65875 l 12.65875,-26.36133 12.65875,13.18067 h 12.65875 l 12.65875,-13.18067 12.65874,13.18067 12.65875,-13.18067 h 12.65875 l 12.65875,-26.36132 12.65875,39.54199 h 12.65875 l 12.65875,-26.36133 12.65875,13.18066 12.65874,-13.18066 12.65875,13.18066 12.65875,-26.36132 12.65875,13.18066 12.65875,-13.18066 h 12.65875 l 12.65875,26.36132 12.65874,13.18067 h 12.65875 l 12.65875,-13.18067 h 12.65875 l 12.65875,26.36133 12.65875,-13.18066 12.65875,-13.18067 12.65874,13.18067 12.65875,13.18066 12.65875,-39.54199 12.65875,26.36133 12.65875,-26.36133 12.65875,26.36133 12.65874,-13.18067 h 12.65875 l 12.65875,13.18067 12.65875,-26.36133 h 12.65875 l 12.65875,13.18066 h 12.65875 l 12.65874,13.18067 12.65875,-26.36133 12.65875,13.18066 h 12.65875 l 12.65875,13.18067 h 12.65875 l 12.65875,-26.36133 12.65874,13.18066 h 12.65875 12.65875 12.65875 l 12.65875,-13.18066 12.65875,13.18066 12.65875,13.18067 h 12.65874 12.658752 l 12.658749,-13.18067 12.658748,-13.18066 h 12.658749 l 12.658748,13.18066 12.658749,-26.36132 12.658748,26.36132 L 0.372252,295.99226 13.031,282.81159 h 12.658749 l 12.658749,13.18067 12.658748,-39.54199 12.658749,26.36132 h 12.658748 l 12.658749,13.18067 h 12.658748 l 12.65875,-13.18067 h 12.65875 l 12.65875,26.36133 12.65874,-26.36133 12.65875,-13.18066 12.65875,13.18066 12.65875,-13.18066 12.65875,13.18066 12.65875,13.18067 12.65875,-13.18067 12.65874,13.18067 12.65875,-13.18067 12.65875,-13.18066 12.65875,26.36133 12.65875,-26.36133 12.65875,13.18066 h 12.65874 12.65875 12.65875 l 12.65875,13.18067 h 12.65875 l 12.65875,-13.18067 12.65875,26.36133 h 12.65874 l 12.65875,-26.36133 h 12.65875 l 12.65875,26.36133 12.65875,-13.18066 12.65875,-13.18067 12.65875,13.18067 12.65874,13.18066 h 12.65875 l 12.65875,-13.18066 12.65875,-13.18067 h 12.65875 l 12.65875,13.18067 12.65875,-13.18067 12.65874,13.18067 12.65875,-26.36133 12.65875,26.36133 12.65875,-13.18067 h 12.65875 12.65875 l 12.65875,13.18067 12.65874,-39.54199 12.65875,39.54199 12.65875,-26.36133 h 12.65875 12.65875 l 12.65875,26.36133 h 12.65875 12.65874 l 12.65875,13.18066 12.65875,-26.36133 12.65875,13.18067 h 12.65875 12.65875 12.65874 l 12.65875,13.18066 12.65875,-26.36133 h 12.65875 l 12.65875,13.18067 12.65875,-13.18067 12.65875,-26.36132 12.65875,52.72265 h 12.65874 l 12.65875,-13.18066 h 12.65875 l 12.65875,13.18066 12.65875,-13.18066 12.65876,-26.36133 12.6587,26.36133 12.6588,13.18066 12.6587,-26.36133 h 12.6588 12.6587 l 12.6588,-26.36132 h 12.6587 l 12.6588,26.36132 12.6587,13.18067 12.6588,-26.36133 12.6587,26.36133 12.6588,13.18066 12.6587,-26.36133 12.6588,13.18067 12.6587,-13.18067 h 12.6588 l 12.6587,13.18067 h 12.6588 l 12.6587,-26.36133 12.6588,13.18066 h 12.6587 l 12.6588,26.36133 h 12.6587 l 12.6588,-26.36133 12.6587,13.18067 12.6587,-13.18067 12.6588,-13.18066 12.6587,26.36133 12.6588,-13.18067 12.6587,26.36133 12.6588,-13.18066 12.6587,-39.54199 12.6588,26.36132 h 12.6587 l 12.6588,-13.18066 12.6587,-13.18066 12.6588,26.36132 12.6587,13.18067 h 12.6588 l 12.6587,-13.18067 12.6588,26.36133 12.6587,-39.54199 12.6588,13.18066 12.6587,13.18067 12.6588,-39.54199 12.6587,26.36132 h 12.6588 l 12.6587,-26.36132 h 12.6588 l 12.6587,13.18066 12.6588,26.36133 12.6587,-26.36133 h 12.6588 12.6587 l 12.6588,13.18066 12.6587,26.36133 h 12.6588 l 12.6587,-39.54199 12.6588,13.18066 12.6587,13.18067 12.6587,-39.54199 12.6588,-13.18066 12.6587,52.72265 12.6588,13.18066 h 12.6587 12.6588 l 12.6587,-13.18066 12.6588,-13.18067 h 12.6587 l 12.6588,26.36133 h 12.6587 12.6588 l 12.6587,-13.18066 12.6588,-13.18067 12.6587,26.36133 h 12.6588 l 12.6587,-26.36133 12.6588,-13.18066 12.6587,39.54199 h 12.6588 12.6587 l 12.6588,-13.18066 12.6587,13.18066 12.6588,-13.18066 12.6587,13.18066 h 12.6588 l 12.6587,-26.36133 h 12.6588 l 12.6587,26.36133 12.6588,-13.18066 12.6587,13.18066 12.6588,-26.36133 12.6587,13.18067 h 12.6587 l 12.6588,13.18066 12.6587,-13.18066 12.6588,13.18066 h 12.6587 l 12.6588,-13.18066 h 12.6587 l 12.6588,13.18066 h 12.6587 12.6588 12.6587 l 12.6588,-26.36133 12.6587,13.18067 12.6588,13.18066 12.6587,-13.18066 12.6588,13.18066 12.6587,-26.36133 12.6588,26.36133 h 12.6587 l 12.6588,-13.18066 12.6587,13.18066 h 12.6588 l 12.6587,-26.36133 h 12.6588 l 12.6587,13.18067 12.6588,-13.18067 h 12.6587 l 12.6588,26.36133 12.6587,-26.36133 12.6588,-13.18066 h 12.6587 l 12.6588,26.36133 12.6587,-13.18067 12.6588,-26.36132 12.6587,26.36132 12.6587,26.36133 12.6588,-26.36133 12.6587,13.18067 12.6588,-39.54199 12.6587,26.36132 h 12.6588 12.6587 l 12.6588,13.18067 h 12.6587 l 12.6588,-13.18067 12.6587,-26.36132 12.6588,26.36132 h 12.6587 12.6588 12.6587 12.6588 12.6587 12.6588 l 12.6587,-13.18066 12.6588,26.36133 h 12.6587 l 12.6588,13.18066 12.6587,-26.36133 12.6588,-13.18066 h 12.6587 l 12.6588,13.18066 12.6587,13.18067 12.6588,-13.18067 h 12.6587 l 12.6588,-13.18066 h 12.6587 l 12.6588,13.18066 h 12.6587 l 12.6587,13.18067 h 12.6588 l 12.6587,-13.18067 12.6588,26.36133 12.6587,-52.72265 12.6588,39.54199 h 12.6587 l 12.6588,-13.18067 h 12.6587 l 12.6588,-13.18066 h 12.6587 l 12.6588,13.18066 12.6587,-26.36132 12.6588,39.54199 h 12.6587 l 12.6588,-13.18067 h 12.6587 l 12.6588,13.18067 12.6587,-13.18067 12.6588,13.18067 12.6587,-13.18067 12.6588,13.18067 12.6587,13.18066 12.6588,-26.36133 h 12.6587 12.6588 l 12.6587,26.36133 h 12.6588 12.6587 l 12.6588,-39.54199 h 12.6587 l 12.6588,39.54199 12.6587,-26.36133 h 12.6588 l 12.6587,13.18067 12.6587,-13.18067 12.6588,-13.18066 h 12.6587 l 12.6588,13.18066 12.6587,13.18067 12.6588,-13.18067 h 12.6587 l 12.6588,13.18067 12.6587,-13.18067 12.6588,13.18067 12.6587,-13.18067 12.6588,-26.36132 12.6587,13.18066 12.6588,26.36133 12.6587,-13.18067 12.6588,13.18067 h 12.6587 l 12.6588,13.18066 12.6587,-13.18066 h 12.6588 12.6587 l 12.6588,13.18066 12.6587,-39.54199 12.6588,39.54199 h 12.6587 l 12.6588,-39.54199 12.6587,26.36133 12.6588,-13.18067 12.6587,26.36133 12.6588,-39.54199 12.6587,26.36133 h 12.6588 l 12.6587,-26.36133 12.6587,13.18066 12.6588,13.18067 12.6587,-13.18067 12.6588,13.18067 12.6587,-26.36133 12.6588,26.36133 h 12.6587 l 12.6588,-26.36133 12.6587,13.18066 12.6588,-13.18066 12.6587,13.18066 12.6588,-13.18066 12.6587,26.36133 h 12.6588 l 12.6587,-26.36133 12.6588,13.18066 12.6587,13.18067 h 12.6588 l 12.6587,-13.18067 h 12.6588 l 12.6587,-13.18066 12.6588,39.54199 12.6587,-52.72265 12.6588,39.54199 h 12.6587 l 12.6588,13.18066 12.6587,-26.36133 h 12.6588 12.6587 l 12.6588,13.18067 h 12.6587 12.6588 l 12.6587,-26.36133 12.6588,13.18066 12.6587,13.18067 12.6587,-13.18067 12.6588,26.36133 12.6587,-39.54199 12.6588,26.36133 12.6587,-13.18067 12.6588,13.18067 12.6587,13.18066 12.6588,-26.36133 12.6587,13.18067 12.6588,-13.18067 12.6587,-13.18066 12.6588,39.54199 h 12.6587 l 12.6588,-13.18066 12.6587,-13.18067 12.6588,13.18067 h 12.6587 l 12.6588,13.18066 12.6587,-26.36133 12.6588,-13.18066 12.6587,13.18066 12.6588,-13.18066 12.6587,26.36133 12.6588,-26.36133 12.6587,39.54199 h 12.6588 12.6587 l 12.6588,-13.18066 12.6587,-26.36133 12.6588,13.18066 h 12.6587 12.6588 12.6587 l 12.6587,26.36133 h 12.6588 l 12.6587,-13.18066 12.6588,-26.36133 h 12.6587 12.6588 l 12.6587,13.18066 h 12.6588 12.6587 l 12.6588,-13.18066 12.6587,13.18066 12.6588,26.36133 h 12.6587 12.6588 v -65.90331 0 l -12.6588,65.90331 h -12.6587 l -12.6588,-118.62596 h -12.6587 -12.6588 l -12.6587,13.18066 -12.6588,13.18066 -12.6587,-26.36132 -12.6588,13.18066 -12.6587,-13.18066 -12.6588,-26.36133 -12.6587,39.54199 h -12.6588 l -12.6587,-13.18066 h -12.6587 l -12.6588,13.18066 -12.6587,-52.72265 -12.6588,52.72265 -12.6587,13.18066 -12.6588,13.18066 -12.6587,39.54199 -12.6588,-39.54199 -12.6587,-26.36132 h -12.6588 l -12.6587,-13.18066 -12.6588,39.54198 -12.6587,-26.36132 -12.6588,13.18066 -12.6587,-26.36132 -12.6588,26.36132 -12.6587,52.72265 -12.6588,-65.90331 -12.6587,13.18066 -12.6588,-13.18066 h -12.6587 l -12.6588,-52.72265 -12.6587,52.72265 h -12.6588 l -12.6587,-26.36133 -12.6588,52.72265 -12.6587,-13.18066 -12.6588,-26.36132 -12.6587,-26.36133 -12.6588,13.18066 -12.6587,92.26464 -12.6588,-105.4453 -12.6587,39.54199 -12.6587,13.18066 -12.6588,-52.72265 -12.6587,-13.18066 -12.6588,52.72265 -12.6587,26.36132 -12.6588,-26.36132 h -12.6587 l -12.6588,39.54199 -12.6587,-26.36133 -12.6588,-92.26464 -12.6587,79.08398 -12.6588,-79.08398 -12.6587,65.90332 -12.6588,-52.72265 -12.6587,52.72265 -12.6588,13.18066 h -12.6587 -12.6588 l -12.6587,-26.36133 -12.6588,13.18067 -12.6587,13.18066 -12.6588,13.18066 -12.6587,-39.54199 -12.6588,39.54199 h -12.6587 l -12.6588,-13.18066 -12.6587,-39.54199 -12.6588,39.54199 -12.6587,13.18066 -12.6588,-39.54199 -12.6587,39.54199 -12.6588,-13.18066 -12.6587,13.18066 -12.6588,-13.18066 h -12.6587 -12.6587 l -12.6588,-39.54199 -12.6587,52.72265 -12.6588,-26.36132 -12.6587,13.18066 -12.6588,13.18066 -12.6587,-26.36132 -12.6588,92.26463 -12.6587,-105.4453 -12.6588,-13.18066 -12.6587,39.54199 h -12.6588 l -12.6587,13.18066 -12.6588,-79.08397 -12.6587,79.08397 -12.6588,13.18066 -12.6587,-65.90331 -12.6588,13.18066 -12.6587,39.54199 -12.6588,-13.18066 -12.6587,-26.36133 -12.6588,39.54199 h -12.6587 l -12.6588,-13.18066 -12.6587,13.18066 -12.6588,-39.54199 -12.6587,13.18067 h -12.6588 l -12.6587,26.36132 -12.6588,-26.36132 h -12.6587 l -12.6588,13.18066 -12.6587,13.18066 -12.6587,-39.54199 h -12.6588 l -12.6587,65.90332 -12.6588,-52.72265 -12.6587,13.18066 -12.6588,39.54199 -12.6587,-13.18067 -12.6588,13.18067 -12.6587,-92.26464 -12.6588,52.72265 h -12.6587 -12.6588 l -12.6587,-52.72265 -12.6588,39.54199 -12.6587,39.54198 -12.6588,-65.90331 -12.6587,26.36133 -12.6588,13.18066 h -12.6587 l -12.6588,-39.54199 -12.6587,26.36133 -12.6588,26.36132 -12.6587,-26.36132 h -12.6588 l -12.6587,39.54198 -12.6588,-39.54198 -12.6587,13.18066 h -12.6588 l -12.6587,-13.18066 h -12.6588 l -12.6587,13.18066 -12.6588,26.36132 -12.6587,-52.72265 -12.6588,26.36133 -12.6587,-39.54199 -12.6587,52.72265 -12.6588,-39.54199 h -12.6587 l -12.6588,26.36133 -12.6587,26.36132 -12.6588,-39.54198 -12.6587,26.36132 -12.6588,-26.36132 h -12.6587 l -12.6588,-26.36133 -12.6587,39.54199 h -12.6588 l -12.6587,-13.18066 -12.6588,-39.54199 -12.6587,65.90331 h -12.6588 l -12.6587,-26.36132 -12.6588,13.18066 -12.6587,-13.18066 -12.6588,39.54198 -12.6587,-13.18066 -12.6588,-13.18066 h -12.6587 l -12.6588,-26.36133 h -12.6587 l -12.6588,26.36133 -12.6587,-13.18066 -12.6588,13.18066 -12.6587,-39.54199 -12.6588,13.18066 -12.6587,39.54199 -12.6588,-79.08397 -12.6587,39.54198 -12.6587,13.18067 -12.6588,39.54198 -12.6587,-13.18066 -12.6588,-13.18066 -12.6587,-13.18066 h -12.6588 l -12.6587,26.36132 -12.6588,13.18066 -12.6587,-52.72265 h -12.6588 l -12.6587,39.54199 -12.6588,-13.18066 -12.6587,-13.18066 -12.6588,-79.08398 -12.6587,65.90331 -12.6588,131.80663 -12.6587,-92.26464 h -12.6588 l -12.6587,26.36133 -12.6588,-13.18067 -12.6587,52.72265 -12.6588,-92.26463 -12.6587,-39.54199 h -12.6588 l -12.6587,158.16795 h -12.6588 l -12.6587,-65.90331 -12.6588,-39.54199 -12.6587,39.54199 -12.6588,65.90331 h -12.6587 l -12.6588,-52.72265 -12.6587,-52.72265 -12.6588,-26.36133 h -12.6587 l -12.6587,52.72265 -12.6588,13.18067 -12.6587,-26.36133 -12.6588,-79.08397 -12.6587,79.08397 -12.6588,-26.36132 -12.6587,79.08397 -12.6588,-329.516563 -12.6587,276.793913 -12.6588,39.54199 -12.6587,-39.54199 -12.6588,-39.54199 -12.6587,131.80663 -12.6588,-79.08398 -12.6587,-52.72265 -12.6588,52.72265 -12.6587,39.54199 -12.6588,-105.4453 -12.6587,65.90331 -12.6588,13.18067 -12.6587,13.18066 -12.6588,-13.18066 -12.6587,-92.26464 -12.6588,-79.083977 -12.6587,158.167947 -12.6588,-118.62596 -12.6587,-105.4453 -12.6588,158.16795 -12.6587,-26.36132 -12.6588,52.72265 -12.6587,26.36132 h -12.6588 -12.6587 l -12.6587,-13.18066 -12.6588,-13.18066 -12.6587,52.72265 -12.6588,26.36132 -12.6587,-65.90331 -12.6588,-13.18066 -12.6587,-13.18067 h -12.6588 l -12.6587,13.18067 -12.6588,-26.36133 -12.6587,-13.18066 -12.6588,52.72265 h -12.6587 l -12.6588,-52.72265 -12.6587,52.72265 -12.6588,-13.18066 h -12.6587 l -12.6588,13.18066 -12.6587,13.18066 -12.6588,-13.18066 h -12.6587 l -12.6588,13.18066 -12.6587,-65.90331 -12.6588,-39.54199 -12.6587,92.26464 -12.6588,-39.54199 -12.6587,26.36133 -12.6588,-13.18067 -12.6587,13.18067 -12.6588,52.72265 -12.6587,-39.54199 -12.6588,-13.18066 -12.6587,13.18066 -12.6588,39.54199 -12.6587,-26.36133 -12.6587,-13.18066 -12.6588,65.90331 -12.6587,-26.36132 -12.6588,-13.18067 -12.6587,-39.54198 -12.6588,13.18066 -12.6587,-26.36133 -12.6588,39.54199 -12.6587,-39.54199 -12.6588,39.54199 -12.6587,-26.36132 -12.6588,13.18066 -12.6587,-65.90331 -12.6588,65.90331 -12.6587,-26.36133 -12.6588,13.18067 -12.6587,-13.18067 h -12.6588 -12.6587 -12.6588 l -12.6587,52.72265 h -12.6588 l -12.6587,-26.36132 -12.6588,-13.18066 -12.6587,-39.54199 -12.65876,65.90331 h -12.65875 l -12.65875,13.18066 -12.65875,-65.90331 -12.65875,39.54199 -12.65874,79.08397 -12.65875,-92.26463 -12.65875,26.36132 -12.65875,-13.18066 -12.65875,-13.18066 -12.65875,39.54198 -12.65875,-13.18066 -12.65875,-26.36132 -12.65874,13.18066 h -12.65875 -12.65875 l -12.65875,13.18066 -12.65875,-39.54199 -12.65875,39.54199 -12.65874,-26.36132 h -12.65875 -12.65875 l -12.65875,13.18066 -12.65875,-13.18066 -12.65875,-79.08398 -12.65875,79.08398 -12.65874,13.18066 -12.65875,-26.36133 -12.65875,26.36133 -12.65875,-26.36133 -12.65875,-26.36132 -12.65875,52.72265 -12.65875,26.36132 -12.65874,-65.90331 -12.65875,52.72265 -12.65875,-13.18066 -12.65875,-26.36133 -12.65875,52.72265 -12.65875,39.54199 -12.65875,13.18066 -12.65874,-52.72265 -12.65875,-39.54198 -12.65875,13.18066 -12.65875,13.18066 -12.65875,13.18066 -12.65875,-13.18066 -12.65875,13.18066 -12.65874,-92.26463 -12.65875,118.62596 -12.65875,-79.08398 -12.65875,26.36133 h -12.65875 -12.65875 -12.65875 l -12.65874,-13.18066 -12.65875,13.18066 h -12.65875 l -12.65875,-26.36133 -12.65875,-13.18066 -12.65875,52.72265 -12.65874,-13.18066 -12.65875,13.18066 -12.65875,-13.18066 -12.65875,-39.54199 -12.65875,52.72265 -12.65875,-13.18066 -12.65875,13.18066 h -12.65874 l -12.65875,13.18066 -12.65875,-52.72265 -12.65875,26.36133 H 88.983492 L 76.324743,177.36629 63.665995,190.54696 51.007246,203.72762 H 38.348498 25.689749 13.031 0.372252 -12.286497 l -12.658748,-52.72265 -12.658749,52.72265 -12.658748,-39.54199 -12.658749,39.54199 h -12.658748 l -12.658749,13.18066 -12.658752,13.18066 -12.65874,13.18067 -12.65875,-39.54199 -12.65875,13.18066 -12.65875,-26.36132 -12.65875,13.18066 -12.65875,-39.54199 -12.65875,39.54199 -12.65874,13.18066 -12.65875,-13.18066 h -12.65875 l -12.65875,-26.36133 -12.65875,39.54199 -12.65875,-39.54199 -12.65875,65.90332 -12.65874,-39.54199 h -12.65875 l -12.65875,-13.18066 -12.65875,-39.54199 h -12.65875 l -12.65875,39.54199 -12.65875,-13.18067 -12.65874,13.18067 -12.65875,13.18066 -12.65875,13.18066 -12.65875,-52.72265 -12.65875,39.54199 -12.65875,-13.18066 -12.65874,13.18066 -12.65875,13.18066 -12.65875,-26.36132 -12.65875,26.36132 h -12.65875 -12.65875 -12.65875 l -12.65874,26.36133 -12.65875,-65.90332 -12.65875,26.36133 h -12.65875 l -12.65875,13.18066 -12.65875,-39.54199 -12.65875,26.36133 -12.65874,-26.36133 -12.65875,13.18067 -12.65875,26.36132 -12.65875,-65.90331 -12.65875,13.18066 -12.65875,13.18066 -12.65875,39.54199 -12.65875,-13.18066 -12.65874,-39.54199 -12.65875,39.54199 -12.65875,13.18066 -12.65875,-13.18066 -12.65875,-26.36133 -12.65875,65.90332 -12.65874,-39.54199 -12.65875,-13.18066 -12.65875,26.36132 h -12.65875 l -12.65875,-13.18066 -12.65875,-39.54199 -12.65875,13.18066 -12.65874,-39.54198 -12.65875,26.36132 h -12.65875 l -12.65875,39.54199 -12.65875,-26.36133 -12.65875,-13.18066 h -12.65875 l -12.65874,26.36133 -12.65875,26.36132 -12.65872,-26.36132 h -12.6588 l -12.6587,26.36132 -12.6588,-39.54199 -12.6587,26.36133 h -12.6588 l -12.6587,13.18066 -12.6588,-26.36132 -12.6587,13.18066 h -12.6588 l -12.6587,-26.36133 -12.6588,13.18067 h -12.6587 l -12.6588,-52.72265 -12.6587,65.90331 h -12.6588 l -12.6587,-65.90331 -12.6588,52.72265 -12.6587,13.18066 -12.6588,-39.54199 -12.6587,13.18066 -12.6588,-13.18066 -12.6587,39.54199 h -12.6587 l -12.6588,-26.36133 -12.6587,-39.54198 -12.6588,65.90331 h -12.6587 l -12.6588,-13.18066 -12.6587,13.18066 h -12.6588 l -12.6587,26.36132 -12.6588,13.18067 -12.6587,-26.36133 -12.6588,13.18066 -12.6587,-13.18066 -12.6588,39.54199 -12.6587,-52.72265 -12.6588,13.18066 -12.6587,13.18066 -12.6588,-26.36132 -12.6587,26.36132 h -12.6588 -12.6587 l -12.6588,-13.18066 h -12.6587 l -12.6588,-39.54199 -12.6587,26.36133 -12.6588,13.18066 h -12.6587 l -12.6588,-26.36132 -12.6587,-26.36133 -12.6588,52.72265 -12.6587,-26.36132 -12.6588,13.18066 -12.6587,-13.18066 -12.6587,13.18066 -12.6588,-13.18066 -12.6587,-52.72265 -12.6588,-13.18067 -12.6587,26.36133 -12.6588,26.36132 h -12.6587 l -12.6588,52.72265 -12.6587,-79.08397 -12.6588,26.36132 -12.6587,-26.36132 -12.6588,39.54199 -12.6587,13.18066 -12.6588,-26.36133 -12.6587,26.36133 -12.6588,-79.08398 -12.6587,-13.18066 -12.6588,-26.361324 -12.6587,26.361324 -12.6588,-39.541987 -12.6587,118.625967 -12.6588,26.36132 -12.6587,-13.18066 -12.6588,26.36132 -12.6587,-26.36132 -12.6588,13.18066 -12.6587,-13.18066 h -12.6588 -12.6587 l -12.6588,13.18066 h -12.6587 l -12.6588,-65.90331 -12.6587,65.90331 h -12.6588 l -12.6587,13.18066 -12.6587,-39.54198 -12.6588,39.54198 -12.6587,-65.90331 -12.6588,39.54199 -12.6587,-39.54199 -12.6588,-65.903312 -12.6587,-92.264638 -12.6588,26.361325 -12.6587,-39.541988 h -12.6588 l -12.6587,-26.361325 -12.6588,52.722651 -12.6587,13.180662 -12.6588,26.361325 -12.6587,92.26464 -12.6588,52.72265 -12.6587,26.36132 -12.6588,-39.54198 -12.6587,52.72265 -12.6588,-26.36133 h -12.6587 l -12.6588,-13.18066 -12.6587,-13.18066 -12.6588,26.36132 -12.6587,-52.72265 -12.6588,52.72265 -12.6587,-52.72265 -12.6588,52.72265 -12.6587,-39.54199 -12.6588,39.54199 -12.6587,-26.36132 -12.6588,13.18066 -12.6587,-13.18066 h -12.6587 -12.6588 l -12.6587,13.18066 -12.6588,-65.90331 -12.6587,39.54198 -12.6588,52.72265 h -12.6587 l -12.6588,-26.36132 -12.6587,13.18066 -12.6588,-13.18066 h -12.6587 l -12.6588,-65.90331 -12.6587,92.26463 -12.6588,-26.36132 -12.6587,-13.18066 -12.6588,13.18066 h -12.6587 l -12.6588,-13.18066 -12.6587,13.18066 -12.6588,13.18066 -12.6587,-39.54199 -12.6588,13.18067 -12.6587,39.54198 -12.6588,-52.72265 -12.6587,39.54199 -12.6588,-26.36132 -12.6587,-13.18067 -12.6588,-13.18066 -12.6587,26.36133 -12.6588,-52.72265 -12.6587,39.54198 h -12.6588 l -12.6587,26.36133 -12.6588,-13.18066 -12.6587,13.18066 -12.6587,26.36132 -12.6588,-92.26463 -12.6587,65.90331 -12.6588,26.36132 -12.6587,-92.26463 -12.6588,92.26463 -12.6587,-52.72265 -12.6588,-52.72265 -12.6587,79.08398 h -12.6588 -12.6587 l -12.6588,-26.36133 -12.6587,39.54199 -12.6588,-39.54199 -12.6587,39.54199 h -12.6588 l -12.6587,13.18066 -12.6588,-13.18066 -12.6587,-65.90331 -12.6588,-118.625965 -12.6587,79.083975 -12.6588,-105.4453 -12.6587,52.72265 -12.6588,184.52928 -12.6587,-144.987292 -12.6588,-118.625963 -12.6587,65.903313 -12.6588,-13.180663 -12.6587,-65.903313 -12.6588,-13.180662 -12.6587,224.07126 -12.6588,39.54199 -12.6587,-26.36132 -12.6588,39.54198 -12.6587,-52.72265 -12.6587,13.18067 -12.6588,52.72265 -12.6587,-39.54199 h -12.6588 l -12.6587,-39.54199 -12.6588,52.72265 h -12.6587 -12.6588 l -12.6587,39.54199 -12.6588,-65.90331 -12.6587,26.36132 -12.6588,26.36133 -12.6587,-79.08398 -12.6588,13.18066 -12.6587,26.36133 -12.6588,13.18066 -12.6587,39.54199 -12.6588,-79.08398 -12.6587,13.18067 -12.6588,-26.36133 -12.6587,-39.54199 -12.6588,-237.25192 -12.6587,79.083972 -12.6588,237.251928 -12.6587,79.08397 -12.6588,26.36133 -12.6587,-105.4453 z"
           clip-path="url(#p02a1e49460)"
           style="fill:#d3d3d3"
           id="path3" />
      </g>
      <g
         id="matplotlib.axis_1">
        <g
           id="xtick_1">
          <g
             id="line2d_1">
            <defs
               id="defs3">
              <path
                 id="m0b1c0ec72e"
                 d="M 0,0 V 3.5"
                 style="stroke:#000000;stroke-width:0.8" />
            </defs>
            <g
               id="g3">
              <use
                 xlink:href="#m0b1c0ec72e"
                 x="367.47595"
                 y="309.17291"
                 style="stroke:#000000;stroke-width:0.8"
                 id="use3" />
            </g>
          </g>
          <g
             id="text_1">
            <text
               style="font-style:normal;font-variant:normal;font-weight:normal;font-stretch:normal;font-size:20px;line-height:normal;font-family:'DejaVu Sans', 'Bitstream Vera Sans', 'Computer Modern Sans Serif', 'Lucida Grande', Verdana, Geneva, Lucid, Arial, Helvetica, 'Avant Garde', sans-serif;text-anchor:middle"
               x="367.47595"
               y="331.36978"
               id="text3">330</text>
          </g>
        </g>
        <g
           id="xtick_2">
          <g
             id="line2d_2">
            <g
               id="g4">
              <use
                 xlink:href="#m0b1c0ec72e"
                 x="494.06345"
                 y="309.17291"
                 style="stroke:#000000;stroke-width:0.8"
                 id="use4" />
            </g>
          </g>
          <g
             id="text_2">
            <text
               style="font-style:normal;font-variant:normal;font-weight:normal;font-stretch:normal;font-size:20px;line-height:normal;font-family:'DejaVu Sans', 'Bitstream Vera Sans', 'Computer Modern Sans Serif', 'Lucida Grande', Verdana, Geneva, Lucid, Arial, Helvetica, 'Avant Garde', sans-serif;text-anchor:middle"
               x="494.06345"
               y="331.36978"
               id="text4">340</text>
          </g>
        </g>
        <g
           id="xtick_3">
          <g
             id="line2d_3">
            <g
               id="g5">
              <use
                 xlink:href="#m0b1c0ec72e"
                 x="620.65094"
                 y="309.17291"
                 style="stroke:#000000;stroke-width:0.8"
                 id="use5" />
            </g>
          </g>
          <g
             id="text_3">
            <text
               style="font-style:normal;font-variant:normal;font-weight:normal;font-stretch:normal;font-size:20px;line-height:normal;font-family:'DejaVu Sans', 'Bitstream Vera Sans', 'Computer Modern Sans Serif', 'Lucida Grande', Verdana, Geneva, Lucid, Arial, Helvetica, 'Avant Garde', sans-serif;text-anchor:middle"
               x="620.65094"
               y="331.36978"
               id="text5">350</text>
          </g>
        </g>
        <g
           id="xtick_4">
          <g
             id="line2d_4">
            <g
               id="g6">
              <use
                 xlink:href="#m0b1c0ec72e"
                 x="747.2384"
                 y="309.17291"
                 style="stroke:#000000;stroke-width:0.8"
                 id="use6" />
            </g>
          </g>
          <g
             id="text_4">
            <text
               style="font-style:normal;font-variant:normal;font-weight:normal;font-stretch:normal;font-size:20px;line-height:normal;font-family:'DejaVu Sans', 'Bitstream Vera Sans', 'Computer Modern Sans Serif', 'Lucida Grande', Verdana, Geneva, Lucid, Arial, Helvetica, 'Avant Garde', sans-serif;text-anchor:middle"
               x="747.2384"
               y="331.36978"
               id="text6">360</text>
          </g>
        </g>
        <g
           id="xtick_5">
          <g
             id="line2d_5">
            <g
               id="g7">
              <use
                 xlink:href="#m0b1c0ec72e"
                 x="873.82593"
                 y="309.17291"
                 style="stroke:#000000;stroke-width:0.8"
                 id="use7" />
            </g>
          </g>
          <g
             id="text_5">
            <text
               style="font-style:normal;font-variant:normal;font-weight:normal;font-stretch:normal;font-size:20px;line-height:normal;font-family:'DejaVu Sans', 'Bitstream Vera Sans', 'Computer Modern Sans Serif', 'Lucida Grande', Verdana, Geneva, Lucid, Arial, Helvetica, 'Avant Garde', sans-serif;text-anchor:middle"
               x="873.82593"
               y="331.36978"
               id="text7">370</text>
          </g>
        </g>
        <g
           id="xtick_6">
          <g
             id="line2d_6">
            <g
               id="g8">
              <use
                 xlink:href="#m0b1c0ec72e"
                 x="1000.4134"
                 y="309.17291"
                 style="stroke:#000000;stroke-width:0.8"
                 id="use8" />
            </g>
          </g>
          <g
             id="text_6">
            <text
               style="font-style:normal;font-variant:normal;font-weight:normal;font-stretch:normal;font-size:20px;line-height:normal;font-family:'DejaVu Sans', 'Bitstream Vera Sans', 'Computer Modern Sans Serif', 'Lucida Grande', Verdana, Geneva, Lucid, Arial, Helvetica, 'Avant Garde', sans-serif;text-anchor:middle"
               x="1000.4134"
               y="331.36978"
               id="text8">380</text>
          </g>
        </g>
        <g
           id="text_7">
          <text
             style="font-style:normal;font-variant:normal;font-weight:normal;font-stretch:normal;font-size:20px;line-height:normal;font-family:'DejaVu Sans', 'Bitstream Vera Sans', 'Computer Modern Sans Serif', 'Lucida Grande', Verdana, Geneva, Lucid, Arial, Helvetica, 'Avant Garde', sans-serif;text-anchor:middle"
             x="687.59998"
             y="354.72604"
             id="text9">window index with $w=10000$</text>
        </g>
      </g>
      <g
         id="matplotlib.axis_2">
        <g
           id="ytick_1">
          <g
             id="line2d_7">
            <defs
               id="defs9">
              <path
                 id="mdcc2808baf"
                 d="M 0,0 H -3.5"
                 style="stroke:#000000;stroke-width:0.8" />
            </defs>
            <g
               id="g9">
              <use
                 xlink:href="#mdcc2808baf"
                 x="345.36679"
                 y="309.17291"
                 style="stroke:#000000;stroke-width:0.8"
                 id="use9" />
            </g>
          </g>
          <g
             id="text_8">
            <text
               style="font-style:normal;font-variant:normal;font-weight:normal;font-stretch:normal;font-size:20px;line-height:normal;font-family:'DejaVu Sans', 'Bitstream Vera Sans', 'Computer Modern Sans Serif', 'Lucida Grande', Verdana, Geneva, Lucid, Arial, Helvetica, 'Avant Garde', sans-serif;text-anchor:end"
               x="338.36679"
               y="316.77136"
               id="text10">0</text>
          </g>
        </g>
        <g
           id="ytick_2">
          <g
             id="line2d_8">
            <g
               id="g10">
              <use
                 xlink:href="#mdcc2808baf"
                 x="345.36679"
                 y="243.26961"
                 style="stroke:#000000;stroke-width:0.8"
                 id="use10" />
            </g>
          </g>
          <g
             id="text_9">
            <text
               style="font-style:normal;font-variant:normal;font-weight:normal;font-stretch:normal;font-size:20px;line-height:normal;font-family:'DejaVu Sans', 'Bitstream Vera Sans', 'Computer Modern Sans Serif', 'Lucida Grande', Verdana, Geneva, Lucid, Arial, Helvetica, 'Avant Garde', sans-serif;text-anchor:end"
               x="338.36679"
               y="250.86804"
               id="text11">5</text>
          </g>
        </g>
        <g
           id="ytick_3">
          <g
             id="line2d_9">
            <g
               id="g11">
              <use
                 xlink:href="#mdcc2808baf"
                 x="345.36679"
                 y="177.36629"
                 style="stroke:#000000;stroke-width:0.8"
                 id="use11" />
            </g>
          </g>
          <g
             id="text_10">
            <text
               style="font-style:normal;font-variant:normal;font-weight:normal;font-stretch:normal;font-size:20px;line-height:normal;font-family:'DejaVu Sans', 'Bitstream Vera Sans', 'Computer Modern Sans Serif', 'Lucida Grande', Verdana, Geneva, Lucid, Arial, Helvetica, 'Avant Garde', sans-serif;text-anchor:end"
               x="338.36679"
               y="184.96474"
               id="text12">10</text>
          </g>
        </g>
        <g
           id="ytick_4">
          <g
             id="line2d_10">
            <g
               id="g12">
              <use
                 xlink:href="#mdcc2808baf"
                 x="345.36679"
                 y="111.46298"
                 style="stroke:#000000;stroke-width:0.8"
                 id="use12" />
            </g>
          </g>
          <g
             id="text_11">
            <text
               style="font-style:normal;font-variant:normal;font-weight:normal;font-stretch:normal;font-size:20px;line-height:normal;font-family:'DejaVu Sans', 'Bitstream Vera Sans', 'Computer Modern Sans Serif', 'Lucida Grande', Verdana, Geneva, Lucid, Arial, Helvetica, 'Avant Garde', sans-serif;text-anchor:end"
               x="338.36679"
               y="119.06142"
               id="text13">15</text>
          </g>
        </g>
        <g
           id="text_12">
          <text
             style="font-style:normal;font-variant:normal;font-weight:normal;font-stretch:normal;font-size:20px;line-height:normal;font-family:'DejaVu Sans', 'Bitstream Vera Sans', 'Computer Modern Sans Serif', 'Lucida Grande', Verdana, Geneva, Lucid, Arial, Helvetica, 'Avant Garde', sans-serif;text-anchor:middle"
             x="304.75742"
             y="178.14096"
             transform="rotate(-90,304.75742,178.14096)"
             id="text14">hashes in window</text>
        </g>
      </g>
      <g
         id="line2d_11">
        <path
           d="m -1,240.65809 1.372252,-0.31752 12.658748,5.85807 12.658749,4.39356 12.658749,-2.92904 12.658748,-13.18066 12.658749,-4.39356 12.658748,8.78711 12.658749,7.32259 12.658748,-10.25162 12.65875,-4.39356 12.65875,21.96777 h 25.31749 l 12.65875,-11.71614 12.65875,2.92903 12.65875,-14.64518 12.65875,19.03874 12.65875,-5.85807 12.65875,-4.39356 12.65874,16.1097 12.65875,-19.03873 12.65875,-4.39356 12.65875,23.43229 12.65875,-14.64518 12.65875,4.39355 12.65874,-7.32259 12.65875,13.18067 12.65875,8.78711 12.65875,-16.1097 12.65875,-5.85808 12.65875,27.82585 12.65875,-16.1097 12.65874,16.1097 12.65875,-11.71615 12.65875,-7.32259 12.65875,16.1097 12.65875,-14.64518 12.65875,2.92904 12.65875,16.1097 12.65874,32.21939 12.65875,-1.46452 12.65875,-29.29036 12.65875,-20.50325 h 12.65875 l 12.65875,8.78711 12.65875,-26.36133 12.65874,39.54199 12.65875,-42.47102 12.65875,23.43229 12.65875,-11.71615 12.65875,-4.39355 12.65875,2.92903 12.65875,5.85808 12.65874,-13.18067 12.65875,1.46452 12.65875,-1.46452 25.3175,2.92904 12.65875,14.64518 12.65875,-14.64518 12.65874,29.29036 12.65875,-35.14843 12.65875,21.96777 12.65875,-1.46452 12.65875,-4.39355 12.65875,5.85807 h 12.65874 l 12.65875,5.85807 12.65875,1.46452 12.65875,-10.25163 12.65875,-5.85807 12.65875,17.57422 12.65875,-26.36133 12.65875,65.90331 12.65874,-38.07746 12.65875,-24.89681 12.65875,26.36132 12.65875,13.18067 12.65875,-10.25163 12.65876,-41.00651 12.6587,30.75488 12.6588,-10.25162 12.6587,5.85807 12.6588,8.78711 12.6587,-16.1097 12.6588,-14.64518 12.6587,-7.32259 12.6588,23.43229 12.6587,2.92903 12.6588,-21.96777 12.6587,27.82584 12.6588,-7.32259 12.6587,-5.85807 12.6588,13.18066 h 12.6587 l 12.6588,-24.8968 12.6587,26.36132 h 12.6588 l 12.6587,-17.57421 12.6588,-1.46452 12.6587,16.1097 12.6588,36.61295 12.6587,-2.92904 12.6588,-41.0065 12.6587,13.18066 12.6587,8.78711 12.6588,-24.89681 25.3175,11.71614 8.6829,6.02727 v 0"
           clip-path="url(#p02a1e49460)"
           style="fill:none;stroke:#a9a9a9;stroke-width:1.5;stroke-linecap:square"
           id="path14" />
      </g>
      <g
         id="line2d_12">
        <path
           d="M -1,243.26961 H 0.372252 L 13.031,256.45027 h 12.658749 l 12.658749,-26.36133 h 12.658748 l 12.658749,-13.18066 25.317497,26.36133 12.658748,-13.18067 h 12.65875 l 12.65875,26.36133 12.65875,-13.18066 12.65874,13.18066 12.65875,-13.18066 h 12.65875 l 12.65875,-13.18067 12.65875,26.36133 12.65875,-26.36133 25.31749,26.36133 12.65875,-13.18066 h 12.65875 l 12.65875,13.18066 h 25.3175 l 12.65874,-26.36133 12.65875,26.36133 12.65875,13.18066 12.65875,-39.54199 12.65875,13.18067 12.65875,26.36132 12.65875,-26.36132 12.65874,26.36132 25.3175,-26.36132 12.65875,26.36132 12.65875,-26.36132 25.3175,26.36132 12.65874,26.36133 12.65875,13.18066 12.65875,-39.54199 25.3175,-26.36132 12.65875,13.18066 12.65875,-39.54199 12.65874,65.90331 12.65875,-65.90331 12.65875,39.54199 12.65875,-13.18066 12.65875,-26.36133 12.65875,39.54199 25.31749,-26.36133 12.65875,13.18067 12.65875,-13.18067 h 12.65875 l 12.65875,13.18067 h 12.65875 l 12.65875,-13.18067 12.65874,39.54199 12.65875,-65.90331 12.65875,52.72265 25.3175,-26.36133 12.65875,26.36133 12.65874,-13.18066 h 12.65875 l 12.65875,13.18066 h 12.65875 l 12.65875,-13.18066 12.65875,26.36132 12.65875,-26.36132 12.65875,52.72265 12.65874,-39.54199 12.65875,-26.36133 25.3175,52.72265 12.65875,-13.18066 12.65876,-26.36132 12.6587,26.36132 12.6588,-26.36132 h 12.6587 l 12.6588,13.18066 37.9762,-39.54199 12.6588,39.54199 25.3175,-26.36133 12.6587,26.36133 h 12.6588 l 12.6587,-13.18066 12.6588,13.18066 h 12.6587 l 12.6588,-39.54199 12.6587,39.54199 h 12.6588 l 12.6587,-26.36133 h 12.6588 l 12.6587,13.18067 12.6588,52.72265 12.6587,-13.18067 12.6588,-39.54198 12.6587,26.36132 25.3175,-26.36132 h 12.6587 l 12.6588,13.18066 h 8.6829 v 0"
           clip-path="url(#p02a1e49460)"
           style="fill:none;stroke:#000000;stroke-width:1.5;stroke-linecap:square"
           id="path15" />
      </g>
      <g
         id="patch_3">
        <path
           d="M 345.3668,309.17292 V 47.109"
           style="fill:none;stroke:#000000;stroke-width:0.8;stroke-linecap:square;stroke-linejoin:miter"
           id="path16" />
      </g>
      <g
         id="patch_4">
        <path
           d="M 1029.8332,309.17292 V 47.109"
           style="fill:none;stroke:#000000;stroke-width:0.8;stroke-linecap:square;stroke-linejoin:miter"
           id="path17" />
      </g>
      <g
         id="patch_5">
        <path
           d="m 345.3668,309.17292 h 684.4664"
           style="fill:none;stroke:#000000;stroke-width:0.8;stroke-linecap:square;stroke-linejoin:miter"
           id="path18" />
      </g>
      <g
         id="patch_6">
        <path
           d="m 345.3668,47.109 h 684.4664"
           style="fill:none;stroke:#000000;stroke-width:0.8;stroke-linecap:square;stroke-linejoin:miter"
           id="path19" />
      </g>
    </g>
    <g
       id="axes_2">
      <g
         id="matplotlib.axis_3">
        <g
           id="ytick_5">
          <g
             id="line2d_13">
            <defs
               id="defs19">
              <path
                 id="mfa1a74a0f3"
                 d="M 0,0 H 3.5"
                 style="stroke:#000000;stroke-width:0.8" />
            </defs>
            <g
               id="g19">
              <use
                 xlink:href="#mfa1a74a0f3"
                 x="1029.8333"
                 y="309.17291"
                 style="stroke:#000000;stroke-width:0.8"
                 id="use19" />
            </g>
          </g>
          <g
             id="text_13">
            <text
               style="font-style:normal;font-variant:normal;font-weight:normal;font-stretch:normal;font-size:20px;line-height:normal;font-family:'DejaVu Sans', 'Bitstream Vera Sans', 'Computer Modern Sans Serif', 'Lucida Grande', Verdana, Geneva, Lucid, Arial, Helvetica, 'Avant Garde', sans-serif;text-anchor:start"
               x="1036.8333"
               y="316.77136"
               id="text19">0.0</text>
          </g>
        </g>
        <g
           id="ytick_6">
          <g
             id="line2d_14">
            <g
               id="g20">
              <use
                 xlink:href="#mfa1a74a0f3"
                 x="1029.8333"
                 y="261.24323"
                 style="stroke:#000000;stroke-width:0.8"
                 id="use20" />
            </g>
          </g>
          <g
             id="text_14">
            <text
               style="font-style:normal;font-variant:normal;font-weight:normal;font-stretch:normal;font-size:20px;line-height:normal;font-family:'DejaVu Sans', 'Bitstream Vera Sans', 'Computer Modern Sans Serif', 'Lucida Grande', Verdana, Geneva, Lucid, Arial, Helvetica, 'Avant Garde', sans-serif;text-anchor:start"
               x="1036.8333"
               y="268.84167"
               id="text20">0.2</text>
          </g>
        </g>
        <g
           id="ytick_7">
          <g
             id="line2d_15">
            <g
               id="g21">
              <use
                 xlink:href="#mfa1a74a0f3"
                 x="1029.8333"
                 y="213.31355"
                 style="stroke:#000000;stroke-width:0.8"
                 id="use21" />
            </g>
          </g>
          <g
             id="text_15">
            <text
               style="font-style:normal;font-variant:normal;font-weight:normal;font-stretch:normal;font-size:20px;line-height:normal;font-family:'DejaVu Sans', 'Bitstream Vera Sans', 'Computer Modern Sans Serif', 'Lucida Grande', Verdana, Geneva, Lucid, Arial, Helvetica, 'Avant Garde', sans-serif;text-anchor:start"
               x="1036.8333"
               y="220.91199"
               id="text21">0.4</text>
          </g>
        </g>
        <g
           id="ytick_8">
          <g
             id="line2d_16">
            <g
               id="g22">
              <use
                 xlink:href="#mfa1a74a0f3"
                 x="1029.8333"
                 y="165.38388"
                 style="stroke:#000000;stroke-width:0.8"
                 id="use22" />
            </g>
          </g>
          <g
             id="text_16">
            <text
               style="font-style:normal;font-variant:normal;font-weight:normal;font-stretch:normal;font-size:20px;line-height:normal;font-family:'DejaVu Sans', 'Bitstream Vera Sans', 'Computer Modern Sans Serif', 'Lucida Grande', Verdana, Geneva, Lucid, Arial, Helvetica, 'Avant Garde', sans-serif;text-anchor:start"
               x="1036.8333"
               y="172.98232"
               id="text22">0.6</text>
          </g>
        </g>
        <g
           id="ytick_9">
          <g
             id="line2d_17">
            <g
               id="g23">
              <use
                 xlink:href="#mfa1a74a0f3"
                 x="1029.8333"
                 y="117.45419"
                 style="stroke:#000000;stroke-width:0.8"
                 id="use23" />
            </g>
          </g>
          <g
             id="text_17">
            <text
               style="font-style:normal;font-variant:normal;font-weight:normal;font-stretch:normal;font-size:20px;line-height:normal;font-family:'DejaVu Sans', 'Bitstream Vera Sans', 'Computer Modern Sans Serif', 'Lucida Grande', Verdana, Geneva, Lucid, Arial, Helvetica, 'Avant Garde', sans-serif;text-anchor:start"
               x="1036.8333"
               y="125.05263"
               id="text23">0.8</text>
          </g>
        </g>
        <g
           id="ytick_10">
          <g
             id="line2d_18">
            <g
               id="g24">
              <use
                 xlink:href="#mfa1a74a0f3"
                 x="1029.8333"
                 y="69.524506"
                 style="stroke:#000000;stroke-width:0.8"
                 id="use24" />
            </g>
          </g>
          <g
             id="text_18">
            <text
               style="font-style:normal;font-variant:normal;font-weight:normal;font-stretch:normal;font-size:20px;line-height:normal;font-family:'DejaVu Sans', 'Bitstream Vera Sans', 'Computer Modern Sans Serif', 'Lucida Grande', Verdana, Geneva, Lucid, Arial, Helvetica, 'Avant Garde', sans-serif;text-anchor:start"
               x="1036.8333"
               y="77.122948"
               id="text24">1.0</text>
          </g>
        </g>
        <g
           id="text_19">
          <text
             style="font-style:normal;font-variant:normal;font-weight:normal;font-stretch:normal;font-size:20px;line-height:normal;font-family:'DejaVu Sans', 'Bitstream Vera Sans', 'Computer Modern Sans Serif', 'Lucida Grande', Verdana, Geneva, Lucid, Arial, Helvetica, 'Avant Garde', sans-serif;text-anchor:middle"
             x="1087.8363"
             y="178.14096"
             transform="rotate(-90,1087.8363,178.14096)"
             id="text25">$C_m$</text>
        </g>
      </g>
      <g
         id="line2d_19">
        <path
           d="m -1,143.93584 1.372252,6.9493 L 13.031,104.2256 25.689749,548.82133 38.348498,112.92484 51.007246,70.770681 63.665995,70.483103 76.324743,88.19312 l 12.658749,87.71132 12.658748,16.58367 12.65875,-106.547685 12.65875,-0.551191 12.65875,129.601856 12.65874,333.83024 12.65875,-468.225064 12.65875,53.705204 12.65875,-30.65103 12.65875,445.17089 12.65875,-409.46327 12.65875,54.2564 12.65874,355.20687 12.65875,-456.12282 12.65875,76.18423 12.65875,379.93859 12.65875,-418.73767 12.65875,5.05658 12.65874,413.68109 12.65875,-480.303344 12.65875,5.607772 12.65875,-3.930233 12.65875,-0.551192 12.65875,-1.126347 12.65875,0.551191 12.65874,5.34416 12.65875,56.796673 12.65875,-14.61855 12.65875,106.2601 12.65875,-143.381642 12.65875,-6.73412 12.65875,163.344352 12.65874,37.09758 12.65875,-3.93023 12.65875,-89.38886 12.65875,-98.687218 12.65875,62.692028 12.65875,82.94231 12.65875,-156.322657 12.65874,-0.83877 12.65875,1.126348 12.65875,0.551191 12.65875,-1.413926 12.65875,12.653437 12.65875,-8.986816 12.65875,-1.965117 12.65874,0.551192 12.65875,2.540273 12.65875,-3.091465 12.65875,18.261209 12.65875,3.091465 12.65875,-25.019295 12.65875,9.561972 12.65874,2.827851 12.65875,3.642656 12.65875,-15.457322 25.3175,1.677539 12.65875,-0.83877 12.65874,8.148046 12.65875,57.347869 12.65875,-6.18293 12.65875,420.15159 12.65875,-467.937486 12.65875,41.890546 12.65875,426.04694 h 25.31749 l 12.65875,-390.91449 12.65875,390.91449 h 25.3175 l 12.65876,-329.61242 12.6587,-59.88814 12.6588,-7.0217 12.6587,10.11316 12.6588,-44.14323 12.6587,430.55233 12.6588,-448.81354 12.6587,13.77978 12.6588,24.73172 12.6587,5.89535 12.6588,20.53787 12.6587,-1.96512 12.6588,385.83394 12.6587,-323.14192 12.6588,-50.61374 12.6587,52.29128 12.6588,-110.47791 12.6587,431.94229 h 12.6588 l 12.6587,-405.53304 12.6588,-36.81 12.6587,442.34304 h 25.3175 l 12.6588,-420.41521 12.6587,83.49351 12.6587,336.9217 h 12.6588 l 12.6587,-431.94229 12.6588,-44.143242 8.6829,12.525753 v 0"
           clip-path="url(#p02a1e49460)"
           style="fill:none;stroke:#228b22;stroke-width:1.5;stroke-linecap:square"
           id="path25" />
      </g>
      <g
         id="patch_7">
        <path
           d="M 345.3668,309.17292 V 47.109"
           style="fill:none;stroke:#000000;stroke-width:0.8;stroke-linecap:square;stroke-linejoin:miter"
           id="path26" />
      </g>
      <g
         id="patch_8">
        <path
           d="M 1029.8332,309.17292 V 47.109"
           style="fill:none;stroke:#000000;stroke-width:0.8;stroke-linecap:square;stroke-linejoin:miter"
           id="path27" />
      </g>
      <g
         id="patch_9">
        <path
           d="m 345.3668,309.17292 h 684.4664"
           style="fill:none;stroke:#000000;stroke-width:0.8;stroke-linecap:square;stroke-linejoin:miter"
           id="path28" />
      </g>
      <g
         id="patch_10">
        <path
           d="m 345.3668,47.109 h 684.4664"
           style="fill:none;stroke:#000000;stroke-width:0.8;stroke-linecap:square;stroke-linejoin:miter"
           id="path29" />
      </g>
      <g
         id="legend_1">
        <g
           id="patch_11">
          <path
             d="m 418.90781,436.85445 h 537.38438 q 4,0 4,-4 V 375.5857 q 0,-4 -4,-4 H 418.90781 q -4,0 -4,4 v 57.26875 q 0,4 4,4 z"
             style="opacity:0.8;fill:#ffffff;stroke:#cccccc;stroke-linejoin:miter"
             id="path30" />
        </g>
        <g
           id="line2d_20">
          <path
             d="m 422.90781,387.78258 h 20 20"
             style="fill:none;stroke:#a9a9a9;stroke-width:1.5;stroke-linecap:square"
             id="path31" />
        </g>
        <g
           id="text_20">
          <text
             style="font-style:normal;font-variant:normal;font-weight:normal;font-stretch:normal;font-size:20px;line-height:normal;font-family:'DejaVu Sans', 'Bitstream Vera Sans', 'Computer Modern Sans Serif', 'Lucida Grande', Verdana, Geneva, Lucid, Arial, Helvetica, 'Avant Garde', sans-serif;text-anchor:start"
             x="478.90781"
             y="394.78259"
             id="text31">mean hash count</text>
        </g>
        <g
           id="line2d_21">
          <path
             d="m 422.90781,417.13883 h 20 20"
             style="fill:none;stroke:#000000;stroke-width:1.5;stroke-linecap:square"
             id="path32" />
        </g>
        <g
           id="text_21">
          <text
             style="font-style:normal;font-variant:normal;font-weight:normal;font-stretch:normal;font-size:20px;line-height:normal;font-family:'DejaVu Sans', 'Bitstream Vera Sans', 'Computer Modern Sans Serif', 'Lucida Grande', Verdana, Geneva, Lucid, Arial, Helvetica, 'Avant Garde', sans-serif;text-anchor:start"
             x="478.90781"
             y="424.13882"
             id="text32">median hash count</text>
        </g>
        <g
           id="patch_12">
          <path
             d="m 711.04219,394.78258 h 40 v -14 h -40 z"
             style="fill:#d3d3d3"
             id="path33" />
        </g>
        <g
           id="text_22">
          <text
             style="font-style:normal;font-variant:normal;font-weight:normal;font-stretch:normal;font-size:20px;line-height:normal;font-family:'DejaVu Sans', 'Bitstream Vera Sans', 'Computer Modern Sans Serif', 'Lucida Grande', Verdana, Geneva, Lucid, Arial, Helvetica, 'Avant Garde', sans-serif;text-anchor:start"
             x="767.04218"
             y="394.78259"
             id="text33">hash count range</text>
        </g>
        <g
           id="line2d_22">
          <path
             d="m 711.04219,417.13883 h 20 20"
             style="fill:none;stroke:#228b22;stroke-width:1.5;stroke-linecap:square"
             id="path34" />
        </g>
        <g
           id="text_23">
          <text
             style="font-style:normal;font-variant:normal;font-weight:normal;font-stretch:normal;font-size:20px;line-height:normal;font-family:'DejaVu Sans', 'Bitstream Vera Sans', 'Computer Modern Sans Serif', 'Lucida Grande', Verdana, Geneva, Lucid, Arial, Helvetica, 'Avant Garde', sans-serif;text-anchor:start"
             x="767.04218"
             y="424.13882"
             id="text34">$C_m$ complexity</text>
        </g>
      </g>
    </g>
  </g>
  <defs
     id="defs34">
    <clipPath
       id="p02a1e49460">
      <rect
         x="345.36679"
         y="47.109001"
         width="684.46643"
         height="262.06393"
         id="rect34" />
    </clipPath>
  </defs>
</svg>
