<?xml version="1.0" encoding="UTF-8" standalone="no"?>
<svg
   width="820.62695pt"
   height="464.13284pt"
   viewBox="0 0 820.62698 464.13283"
   version="1.1"
   id="svg40"
   sodipodi:docname="hash_counts_complexity_plot.svg"
   inkscape:version="1.3.2 (091e20ef0f, 2023-11-25, custom)"
   xmlns:inkscape="http://www.inkscape.org/namespaces/inkscape"
   xmlns:sodipodi="http://sodipodi.sourceforge.net/DTD/sodipodi-0.dtd"
   xmlns:xlink="http://www.w3.org/1999/xlink"
   xmlns="http://www.w3.org/2000/svg"
   xmlns:svg="http://www.w3.org/2000/svg"
   xmlns:rdf="http://www.w3.org/1999/02/22-rdf-syntax-ns#"
   xmlns:cc="http://creativecommons.org/ns#"
   xmlns:dc="http://purl.org/dc/elements/1.1/">
  <sodipodi:namedview
     id="namedview40"
     pagecolor="#ffffff"
     bordercolor="#000000"
     borderopacity="0.25"
     inkscape:showpageshadow="2"
     inkscape:pageopacity="0.0"
     inkscape:pagecheckerboard="0"
     inkscape:deskcolor="#d1d1d1"
     inkscape:document-units="pt"
     inkscape:zoom="0.40412305"
     inkscape:cx="94.030766"
     inkscape:cy="299.41375"
     inkscape:window-width="1910"
     inkscape:window-height="1031"
     inkscape:window-x="0"
     inkscape:window-y="0"
     inkscape:window-maximized="1"
     inkscape:current-layer="svg40" />
  <metadata
     id="metadata1">
    <rdf:RDF>
      <cc:Work>
        <dc:type
           rdf:resource="http://purl.org/dc/dcmitype/StillImage" />
        <dc:date>2024-05-28T14:26:49.209071</dc:date>
        <dc:format>image/svg+xml</dc:format>
        <dc:creator>
          <cc:Agent>
            <dc:title>Matplotlib v3.8.1, https://matplotlib.org/</dc:title>
          </cc:Agent>
        </dc:creator>
      </cc:Work>
    </rdf:RDF>
  </metadata>
  <defs
     id="defs1">
    <style
       type="text/css"
       id="style1">*{stroke-linejoin: round; stroke-linecap: butt}</style>
  </defs>
  <g
     id="figure_1"
     transform="translate(-271.18398,-57.7175)">
    <g
       id="axes_1">
      <g
         id="patch_2">
        <path
           d="m 345.3668,381.4209 h 684.4664 V 58.1175 H 345.3668 Z"
           style="fill:#ffffff"
           id="path2" />
      </g>
      <g
         id="PolyCollection_1">
        <path
           d="m -1252.0886,218.80458 v 146.35469 h 8.6142 l 8.6141,16.26163 8.6141,-16.26163 8.6142,16.26163 8.6141,-32.52326 h 8.6142 l 8.6141,16.26163 8.6142,-32.52327 h 8.6141 8.6141 l 8.6142,32.52327 8.6141,-16.26163 8.6142,16.26163 h 8.6141 l 8.6141,-16.26163 8.6142,16.26163 8.6141,-16.26163 8.6142,16.26163 8.6141,-16.26163 h 8.6142 l 8.6141,16.26163 8.6141,-32.52327 8.6142,16.26164 8.6141,-32.52327 8.6142,16.26163 8.6141,32.52327 8.6142,-16.26163 8.6141,-16.26164 8.6141,32.52327 8.61419,-32.52327 8.61414,32.52327 h 8.61414 l 8.61414,-32.52327 h 8.61414 8.61415 l 8.61414,16.26164 h 8.61414 l 8.61414,-16.26164 h 8.61415 8.61414 l 8.61414,16.26164 h 8.61414 8.61415 l 8.61414,16.26163 h 8.61414 8.61414 l 8.61415,-16.26163 8.61414,-16.26164 8.61414,32.52327 8.61414,-16.26163 8.61414,16.26163 h 8.61415 l 8.61414,-16.26163 h 8.61414 l 8.61414,16.26163 8.61415,-48.7849 h 8.61414 l 8.61414,48.7849 8.61414,-32.52327 8.61415,32.52327 h 8.61414 8.61414 l 8.61414,-48.7849 8.61415,48.7849 8.61414,16.26163 8.61414,-48.7849 8.61414,16.26164 8.61415,16.26163 8.61414,-32.52327 h 8.61414 l 8.61414,16.26164 8.61415,-16.26164 8.61414,32.52327 8.61414,16.26163 8.61414,-32.52326 8.61415,-16.26164 8.61414,48.7849 8.61414,-32.52326 8.61414,-16.26164 h 8.61414 8.61415 l 8.61414,16.26164 8.61414,-16.26164 8.61414,48.7849 8.61415,-16.26163 8.61414,-16.26163 8.61414,-16.26164 8.61414,16.26164 8.61415,16.26163 8.61414,-16.26163 h 8.61414 8.61414 8.61415 l 8.61414,32.52326 8.61414,-32.52326 8.61414,16.26163 8.61415,-16.26163 h 8.61414 l 8.61414,-16.26164 8.61414,32.52327 8.61415,16.26163 8.61414,-48.7849 h 8.61414 l 8.61414,16.26164 h 8.61414 8.61415 8.61414 8.61414 l 8.61414,32.52326 8.61415,-16.26163 8.61414,-32.52327 8.61414,16.26164 h 8.61414 l 8.61415,16.26163 8.61414,-32.52327 8.61414,16.26164 8.61414,16.26163 8.61415,-16.26163 8.61414,-16.26164 8.61414,48.7849 8.61414,-32.52326 h 8.61415 l 8.61414,16.26163 8.61414,-48.7849 8.61414,16.26163 8.61414,-16.26163 8.61415,16.26163 8.61414,32.52327 h 8.61414 l 8.61414,-16.26163 8.61415,-16.26164 h 8.61414 l 8.61414,16.26164 h 8.614144 8.614142 8.614142 l 8.614143,16.26163 h 8.614142 8.614143 l 8.614142,-32.52327 8.614142,16.26164 8.614143,16.26163 h 8.614142 l 8.614143,-16.26163 h 8.614142 l 8.614142,32.52326 8.614143,-16.26163 8.614142,-32.52327 8.614142,16.26164 h 8.614143 8.614142 l 8.614143,16.26163 8.614142,-32.52327 8.614142,32.52327 8.614143,-48.7849 8.614142,32.52327 h 8.614144 8.61414 8.61414 l 8.61415,32.52326 8.61414,-48.7849 8.61414,48.7849 h 8.61414 l 8.61414,-32.52326 h 8.61415 l 8.61414,16.26163 8.61414,-16.26163 8.61414,16.26163 h 8.61415 8.61414 8.61414 8.61414 l 8.61415,-32.52327 8.61414,32.52327 h 8.61414 l 8.61414,-16.26163 h 8.61415 8.61414 l 8.61414,-16.26164 8.61414,32.52327 8.61415,-16.26163 8.61414,-32.52327 8.61414,65.04653 8.61414,-48.7849 8.61415,-16.26163 8.61414,32.52327 h 8.61414 l 8.61414,-16.26164 8.61414,48.7849 8.61415,-32.52326 h 8.61414 l 8.61414,-16.26164 8.61414,16.26164 h 8.61415 l 8.61414,-16.26164 8.61414,16.26164 8.61414,16.26163 8.61415,16.26163 h 8.61414 8.61414 8.61414 8.61415 l 8.61414,-32.52326 8.61414,16.26163 8.61414,-16.26163 h 8.61415 l 8.61414,-16.26164 h 8.61414 l 8.61414,16.26164 8.61415,16.26163 8.61414,-16.26163 8.61414,16.26163 8.61414,-16.26163 h 8.61415 8.61414 8.61414 l 8.61414,16.26163 8.61414,-16.26163 8.61415,16.26163 h 8.61414 8.61414 l 8.61414,16.26163 8.61415,-32.52326 h 8.61414 8.61414 l 8.61414,16.26163 8.61415,16.26163 h 8.61414 8.61414 8.61414 l 8.61415,-16.26163 8.61414,16.26163 8.61414,-16.26163 8.61414,16.26163 8.61414,-48.7849 h 8.61415 l 8.61414,32.52327 8.61414,-16.26163 h 8.61415 8.61414 l 8.61414,-16.26164 8.61414,32.52327 8.61414,-32.52327 8.61415,-16.26163 8.61414,32.52327 h 8.61414 8.61414 l 8.61415,32.52326 8.61414,-48.7849 h 8.61414 8.61414 l 8.61415,16.26164 8.61414,16.26163 8.61414,-16.26163 8.61414,16.26163 8.61415,-16.26163 8.61414,-16.26164 h 8.61414 l 8.61414,-16.26163 h 8.61414 l 8.61415,48.7849 h 8.61412 8.6142 l 8.6141,16.26163 h 8.6141 8.6142 l 8.6141,-32.52326 h 8.6142 l 8.6141,32.52326 h 8.6142 8.6141 8.6141 l 8.6142,-48.7849 8.6141,32.52327 h 8.6142 l 8.6141,-16.26163 h 8.6142 l 8.6141,32.52326 8.6141,-32.52326 h 8.6142 l 8.6141,16.26163 h 8.6142 l 8.6141,-32.52327 8.6142,32.52327 8.6141,-16.26163 h 8.6141 8.6142 l 8.6141,16.26163 8.6142,-32.52327 8.6141,16.26164 8.6141,16.26163 8.6142,-16.26163 h 8.6141 l 8.6142,16.26163 8.6141,-16.26163 8.6142,-16.26164 8.6141,32.52327 8.6141,-32.52327 h 8.6142 l 8.6141,32.52327 8.6142,-32.52327 8.6141,-16.26163 8.6142,48.7849 8.6141,-32.52327 8.6141,32.52327 8.6142,-16.26163 h 8.6141 l 8.6142,16.26163 h 8.6141 8.6142 l 8.6141,-16.26163 8.6141,-16.26164 8.6142,32.52327 8.6141,-16.26163 h 8.6142 8.6141 l 8.6142,32.52326 8.6141,-16.26163 h 8.6141 l 8.6142,-16.26163 8.6141,16.26163 8.6142,16.26163 8.6141,-16.26163 8.6141,-16.26163 8.6142,32.52326 h 8.6141 l 8.6142,-32.52326 v -146.35469 0 l -8.6142,130.09305 -8.6141,-16.26163 -8.6142,-81.30816 -8.6141,16.26163 -8.6141,130.09306 -8.6142,-65.04653 -8.6141,-65.04653 -8.6142,32.52327 -8.6141,16.26163 -8.6141,48.7849 -8.6142,-65.04653 -8.6141,-32.52327 h -8.6142 l -8.6141,16.26164 -8.6142,-32.52327 -8.6141,-32.52326 -8.6141,97.56979 -8.6142,16.26163 -8.6141,-81.30816 -8.6142,-48.78489 -8.6141,48.78489 -8.6142,-16.26163 -8.6141,16.26163 h -8.6141 l -8.6142,16.26163 -8.6141,-48.78489 -8.6142,32.52326 h -8.6141 -8.6142 l -8.6141,32.52327 -8.6141,-32.52327 -8.6142,32.52327 -8.6141,-16.26164 -8.6142,16.26164 -8.6141,16.26163 -8.6142,-32.52327 -8.6141,-16.26163 -8.6141,48.7849 -8.6142,-32.52327 -8.6141,-48.78489 -8.6142,16.26163 -8.6141,48.7849 -8.6141,-16.26164 -8.6142,-48.78489 -8.6141,-32.52327 -8.6142,65.04653 -8.6141,48.7849 -8.6142,-32.52327 -8.6141,48.7849 -8.6141,-32.52326 -8.6142,16.26163 -8.6141,-32.52327 -8.6142,48.7849 -8.6141,-65.04653 -8.6142,16.26163 -8.6141,-113.83142 -8.6141,16.26163 h -8.6142 -8.6141 l -8.6142,65.04653 -8.6141,-16.26163 -8.6142,97.56979 -8.6141,-113.83142 -8.6141,65.04652 -8.6142,-16.26163 -8.61412,32.52327 -8.61415,-32.52327 -8.61414,32.52327 h -8.61414 l -8.61414,-32.52327 -8.61414,-16.26163 -8.61415,65.04653 -8.61414,-16.26163 -8.61414,-81.30816 -8.61414,65.04652 -8.61415,32.52327 -8.61414,-65.04653 -8.61414,65.04653 -8.61414,-48.7849 -8.61415,32.52327 -8.61414,-65.04653 -8.61414,48.78489 h -8.61414 l -8.61415,-16.26163 -8.61414,-16.26163 -8.61414,48.7849 -8.61414,-16.26164 -8.61414,-48.78489 -8.61415,16.26163 -8.61414,16.26163 -8.61414,16.26163 -8.61415,-32.52326 h -8.61414 l -8.61414,32.52326 -8.61414,32.52327 -8.61414,-439.06406 -8.61415,-975.69795 -8.61414,146.35472 -8.61414,-276.44772 -8.61414,292.70935 -8.61415,569.15712 -8.61414,601.68038 -8.61414,81.30816 -8.61414,-32.52327 -8.61415,-1235.88402 -8.61414,487.84896 -8.61414,764.2967 -8.61414,-48.7849 -8.61415,32.52326 h -8.61414 l -8.61414,-16.26163 -8.61414,-48.78489 -8.61414,81.30816 h -8.61415 l -8.61414,-65.04653 -8.61414,48.78489 -8.61414,-16.26163 -8.61415,32.52327 h -8.61414 l -8.61414,-48.7849 -8.61414,16.26163 -8.61415,-65.04653 -8.61414,81.30816 -8.61414,-32.52326 h -8.61414 l -8.61415,65.04653 -8.61414,16.26163 -8.61414,48.7849 -8.61414,-65.04653 -8.61415,-65.04653 -8.61414,-16.26163 -8.61414,16.26163 -8.61414,48.7849 h -8.61415 l -8.61414,-16.26164 -8.61414,-48.78489 h -8.61414 l -8.61415,-48.7849 -8.61414,65.04653 -8.61414,48.7849 h -8.61414 l -8.61414,-16.26164 -8.61415,16.26164 -8.61414,-32.52327 -8.61414,16.26163 -8.61414,-16.26163 -8.61415,32.52327 h -8.61414 l -8.61414,16.26163 -8.61414,-16.26163 h -8.61415 l -8.61414,-16.26164 -8.61414,-16.26163 -8.61414,16.26163 -8.61415,-16.26163 h -8.61414 -8.61414 l -8.61414,-16.26163 -8.61415,16.26163 -8.61414,-32.52326 -8.61414,65.04653 -8.61414,-48.7849 -8.61415,48.7849 -8.61414,-113.83143 -8.61414,97.56979 -8.61414,16.26164 -8.61414,-48.7849 -8.61415,-16.26163 -8.61414,16.26163 -8.61414,81.30816 -8.614144,-81.30816 -8.614142,32.52326 -8.614143,-16.26163 -8.614142,-16.26163 h -8.614142 l -8.614143,-16.26163 -8.614142,32.52326 h -8.614143 -8.614142 l -8.614142,16.26163 -8.614143,-48.78489 -8.614142,32.52326 h -8.614142 l -8.614143,48.7849 -8.614142,-48.7849 -8.614143,16.26163 -8.614142,-65.04652 -8.614142,48.78489 h -8.614143 l -8.614142,16.26163 -8.614143,32.52327 -8.614142,-16.26163 h -8.614142 l -8.614144,-32.52327 -8.61414,-16.26163 h -8.61414 l -8.61415,-48.7849 -8.61414,130.09306 -8.61414,-48.7849 h -8.61414 l -8.61415,16.26164 -8.61414,-16.26164 h -8.61414 l -8.61414,-16.26163 -8.61414,32.52327 -8.61415,-113.83143 -8.61414,97.56979 h -8.61414 l -8.61414,-48.78489 -8.61415,48.78489 -8.61414,32.52327 -8.61414,-32.52327 h -8.61414 -8.61415 l -8.61414,-48.78489 -8.61414,32.52326 -8.61414,16.26163 -8.61415,-16.26163 -8.61414,32.52327 -8.61414,-32.52327 -8.61414,48.7849 -8.61415,-32.52327 h -8.61414 l -8.61414,-16.26163 -8.61414,32.52327 -8.61414,-32.52327 -8.61415,32.52327 -8.61414,-32.52327 -8.61414,-48.78489 -8.61414,48.78489 -8.61415,-32.52326 -8.61414,65.04653 -8.61414,-65.04653 -8.61414,48.78489 h -8.61415 l -8.61414,-16.26163 -8.61414,16.26163 -8.61414,-65.04652 -8.61415,65.04652 h -8.61414 l -8.61414,-16.26163 -8.61414,48.7849 -8.61415,-48.7849 h -8.61414 -8.61414 l -8.61414,-32.52326 -8.61415,65.04653 -8.61414,-48.7849 -8.61414,65.04653 -8.61414,-32.52327 h -8.61414 -8.61415 -8.61414 l -8.61414,-16.26163 -8.61414,16.26163 h -8.61415 l -8.61414,16.26164 -8.61414,-48.7849 -8.61414,48.7849 -8.61415,16.26163 -8.61414,-65.04653 -8.61414,48.7849 -8.61414,-97.5698 -8.61415,65.04653 -8.61414,48.7849 -8.61414,-16.26163 h -8.61414 -8.61415 l -8.61414,16.26163 -8.61414,-32.52327 h -8.61414 l -8.61415,-48.78489 -8.61414,32.52326 h -8.61414 l -8.61414,16.26163 -8.61415,-48.78489 -8.61414,65.04653 -8.61414,-32.52327 -8.61414,48.7849 -8.61414,-32.52327 -8.61415,-65.04652 -8.61414,97.56979 -8.61414,-16.26163 -8.61414,-65.04653 -8.61415,65.04653 -8.61414,-97.5698 -8.61414,65.04653 h -8.61414 l -8.61415,-48.78489 -8.61414,113.83142 -8.61414,-48.7849 -8.61414,-48.78489 h -8.61415 l -8.61414,48.78489 -8.61414,16.26164 -8.61414,-32.52327 h -8.61414 l -8.61419,-32.52326 -8.6141,16.26163 h -8.6141 l -8.6142,16.26163 -8.6141,32.52327 h -8.6142 l -8.6141,-48.7849 -8.6142,32.52326 -8.6141,-65.04652 -8.6141,48.78489 -8.6142,48.7849 -8.6141,-48.7849 -8.6142,16.26163 -8.6141,-130.09305 -8.6142,130.09305 -8.6141,16.26164 -8.6141,-65.04653 h -8.6142 l -8.6141,81.30816 h -8.6142 l -8.6141,-16.26163 -8.6141,-65.04653 -8.6142,16.26163 -8.6141,16.26163 h -8.6142 -8.6141 l -8.6142,32.52327 -8.6141,-16.26164 h -8.6141 z"
           clip-path="url(#p755cb5c9fa)"
           style="fill:#d3d3d3"
           id="path3" />
      </g>
      <g
         id="matplotlib.axis_1">
        <g
           id="xtick_1">
          <g
             id="line2d_1">
            <defs
               id="defs3">
              <path
                 id="m9e871e27c4"
                 d="M 0,0 V 3.5"
                 style="stroke:#000000;stroke-width:0.8" />
            </defs>
            <g
               id="g3">
              <use
                 xlink:href="#m9e871e27c4"
                 x="384.59848"
                 y="381.4209"
                 style="stroke:#000000;stroke-width:0.8"
                 id="use3" />
            </g>
          </g>
          <g
             id="text_1">
            <text
               style="font-style:normal;font-variant:normal;font-weight:normal;font-stretch:normal;font-size:20px;line-height:normal;font-family:'DejaVu Sans', 'Bitstream Vera Sans', 'Computer Modern Sans Serif', 'Lucida Grande', Verdana, Geneva, Lucid, Arial, Helvetica, 'Avant Garde', sans-serif;text-anchor:middle"
               x="384.59848"
               y="403.61777"
               id="text3">190</text>
          </g>
        </g>
        <g
           id="xtick_2">
          <g
             id="line2d_2">
            <g
               id="g4">
              <use
                 xlink:href="#m9e871e27c4"
                 x="470.7399"
                 y="381.4209"
                 style="stroke:#000000;stroke-width:0.8"
                 id="use4" />
            </g>
          </g>
          <g
             id="text_2">
            <text
               style="font-style:normal;font-variant:normal;font-weight:normal;font-stretch:normal;font-size:20px;line-height:normal;font-family:'DejaVu Sans', 'Bitstream Vera Sans', 'Computer Modern Sans Serif', 'Lucida Grande', Verdana, Geneva, Lucid, Arial, Helvetica, 'Avant Garde', sans-serif;text-anchor:middle"
               x="470.7399"
               y="403.61777"
               id="text4">200</text>
          </g>
        </g>
        <g
           id="xtick_3">
          <g
             id="line2d_3">
            <g
               id="g5">
              <use
                 xlink:href="#m9e871e27c4"
                 x="556.88129"
                 y="381.4209"
                 style="stroke:#000000;stroke-width:0.8"
                 id="use5" />
            </g>
          </g>
          <g
             id="text_3">
            <text
               style="font-style:normal;font-variant:normal;font-weight:normal;font-stretch:normal;font-size:20px;line-height:normal;font-family:'DejaVu Sans', 'Bitstream Vera Sans', 'Computer Modern Sans Serif', 'Lucida Grande', Verdana, Geneva, Lucid, Arial, Helvetica, 'Avant Garde', sans-serif;text-anchor:middle"
               x="556.88129"
               y="403.61777"
               id="text5">210</text>
          </g>
        </g>
        <g
           id="xtick_4">
          <g
             id="line2d_4">
            <g
               id="g6">
              <use
                 xlink:href="#m9e871e27c4"
                 x="643.02277"
                 y="381.4209"
                 style="stroke:#000000;stroke-width:0.8"
                 id="use6" />
            </g>
          </g>
          <g
             id="text_4">
            <text
               style="font-style:normal;font-variant:normal;font-weight:normal;font-stretch:normal;font-size:20px;line-height:normal;font-family:'DejaVu Sans', 'Bitstream Vera Sans', 'Computer Modern Sans Serif', 'Lucida Grande', Verdana, Geneva, Lucid, Arial, Helvetica, 'Avant Garde', sans-serif;text-anchor:middle"
               x="643.02277"
               y="403.61777"
               id="text6">220</text>
          </g>
        </g>
        <g
           id="xtick_5">
          <g
             id="line2d_5">
            <g
               id="g7">
              <use
                 xlink:href="#m9e871e27c4"
                 x="729.16418"
                 y="381.4209"
                 style="stroke:#000000;stroke-width:0.8"
                 id="use7" />
            </g>
          </g>
          <g
             id="text_5">
            <text
               style="font-style:normal;font-variant:normal;font-weight:normal;font-stretch:normal;font-size:20px;line-height:normal;font-family:'DejaVu Sans', 'Bitstream Vera Sans', 'Computer Modern Sans Serif', 'Lucida Grande', Verdana, Geneva, Lucid, Arial, Helvetica, 'Avant Garde', sans-serif;text-anchor:middle"
               x="729.16418"
               y="403.61777"
               id="text7">230</text>
          </g>
        </g>
        <g
           id="xtick_6">
          <g
             id="line2d_6">
            <g
               id="g8">
              <use
                 xlink:href="#m9e871e27c4"
                 x="815.3056"
                 y="381.4209"
                 style="stroke:#000000;stroke-width:0.8"
                 id="use8" />
            </g>
          </g>
          <g
             id="text_6">
            <text
               style="font-style:normal;font-variant:normal;font-weight:normal;font-stretch:normal;font-size:20px;line-height:normal;font-family:'DejaVu Sans', 'Bitstream Vera Sans', 'Computer Modern Sans Serif', 'Lucida Grande', Verdana, Geneva, Lucid, Arial, Helvetica, 'Avant Garde', sans-serif;text-anchor:middle"
               x="815.3056"
               y="403.61777"
               id="text8">240</text>
          </g>
        </g>
        <g
           id="xtick_7">
          <g
             id="line2d_7">
            <g
               id="g9">
              <use
                 xlink:href="#m9e871e27c4"
                 x="901.44702"
                 y="381.4209"
                 style="stroke:#000000;stroke-width:0.8"
                 id="use9" />
            </g>
          </g>
          <g
             id="text_7">
            <text
               style="font-style:normal;font-variant:normal;font-weight:normal;font-stretch:normal;font-size:20px;line-height:normal;font-family:'DejaVu Sans', 'Bitstream Vera Sans', 'Computer Modern Sans Serif', 'Lucida Grande', Verdana, Geneva, Lucid, Arial, Helvetica, 'Avant Garde', sans-serif;text-anchor:middle"
               x="901.44702"
               y="403.61777"
               id="text9">250</text>
          </g>
        </g>
        <g
           id="xtick_8">
          <g
             id="line2d_8">
            <g
               id="g10">
              <use
                 xlink:href="#m9e871e27c4"
                 x="987.58844"
                 y="381.4209"
                 style="stroke:#000000;stroke-width:0.8"
                 id="use10" />
            </g>
          </g>
          <g
             id="text_8">
            <text
               style="font-style:normal;font-variant:normal;font-weight:normal;font-stretch:normal;font-size:20px;line-height:normal;font-family:'DejaVu Sans', 'Bitstream Vera Sans', 'Computer Modern Sans Serif', 'Lucida Grande', Verdana, Geneva, Lucid, Arial, Helvetica, 'Avant Garde', sans-serif;text-anchor:middle"
               x="987.58844"
               y="403.61777"
               id="text10">260</text>
          </g>
        </g>
        <g
           id="text_9">
          <text
             style="font-style:normal;font-variant:normal;font-weight:normal;font-stretch:normal;font-size:20px;line-height:normal;font-family:'DejaVu Sans', 'Bitstream Vera Sans', 'Computer Modern Sans Serif', 'Lucida Grande', Verdana, Geneva, Lucid, Arial, Helvetica, 'Avant Garde', sans-serif;text-anchor:middle"
             x="687.59998"
             y="426.97403"
             id="text11">window index with $w=10000$</text>
        </g>
      </g>
      <g
         id="matplotlib.axis_2">
        <g
           id="ytick_1">
          <g
             id="line2d_9">
            <defs
               id="defs11">
              <path
                 id="m76e24e3d9a"
                 d="M 0,0 H -3.5"
                 style="stroke:#000000;stroke-width:0.8" />
            </defs>
            <g
               id="g11">
              <use
                 xlink:href="#m76e24e3d9a"
                 x="345.36679"
                 y="381.4209"
                 style="stroke:#000000;stroke-width:0.8"
                 id="use11" />
            </g>
          </g>
          <g
             id="text_10">
            <text
               style="font-style:normal;font-variant:normal;font-weight:normal;font-stretch:normal;font-size:20px;line-height:normal;font-family:'DejaVu Sans', 'Bitstream Vera Sans', 'Computer Modern Sans Serif', 'Lucida Grande', Verdana, Geneva, Lucid, Arial, Helvetica, 'Avant Garde', sans-serif;text-anchor:end"
               x="338.36679"
               y="389.01935"
               id="text12">0.0</text>
          </g>
        </g>
        <g
           id="ytick_2">
          <g
             id="line2d_10">
            <g
               id="g12">
              <use
                 xlink:href="#m76e24e3d9a"
                 x="345.36679"
                 y="340.76682"
                 style="stroke:#000000;stroke-width:0.8"
                 id="use12" />
            </g>
          </g>
          <g
             id="text_11">
            <text
               style="font-style:normal;font-variant:normal;font-weight:normal;font-stretch:normal;font-size:20px;line-height:normal;font-family:'DejaVu Sans', 'Bitstream Vera Sans', 'Computer Modern Sans Serif', 'Lucida Grande', Verdana, Geneva, Lucid, Arial, Helvetica, 'Avant Garde', sans-serif;text-anchor:end"
               x="338.36679"
               y="348.36526"
               id="text13">2.5</text>
          </g>
        </g>
        <g
           id="ytick_3">
          <g
             id="line2d_11">
            <g
               id="g13">
              <use
                 xlink:href="#m76e24e3d9a"
                 x="345.36679"
                 y="300.11273"
                 style="stroke:#000000;stroke-width:0.8"
                 id="use13" />
            </g>
          </g>
          <g
             id="text_12">
            <text
               style="font-style:normal;font-variant:normal;font-weight:normal;font-stretch:normal;font-size:20px;line-height:normal;font-family:'DejaVu Sans', 'Bitstream Vera Sans', 'Computer Modern Sans Serif', 'Lucida Grande', Verdana, Geneva, Lucid, Arial, Helvetica, 'Avant Garde', sans-serif;text-anchor:end"
               x="338.36679"
               y="307.71118"
               id="text14">5.0</text>
          </g>
        </g>
        <g
           id="ytick_4">
          <g
             id="line2d_12">
            <g
               id="g14">
              <use
                 xlink:href="#m76e24e3d9a"
                 x="345.36679"
                 y="259.45865"
                 style="stroke:#000000;stroke-width:0.8"
                 id="use14" />
            </g>
          </g>
          <g
             id="text_13">
            <text
               style="font-style:normal;font-variant:normal;font-weight:normal;font-stretch:normal;font-size:20px;line-height:normal;font-family:'DejaVu Sans', 'Bitstream Vera Sans', 'Computer Modern Sans Serif', 'Lucida Grande', Verdana, Geneva, Lucid, Arial, Helvetica, 'Avant Garde', sans-serif;text-anchor:end"
               x="338.36679"
               y="267.0571"
               id="text15">7.5</text>
          </g>
        </g>
        <g
           id="ytick_5">
          <g
             id="line2d_13">
            <g
               id="g15">
              <use
                 xlink:href="#m76e24e3d9a"
                 x="345.36679"
                 y="218.80458"
                 style="stroke:#000000;stroke-width:0.8"
                 id="use15" />
            </g>
          </g>
          <g
             id="text_14">
            <text
               style="font-style:normal;font-variant:normal;font-weight:normal;font-stretch:normal;font-size:20px;line-height:normal;font-family:'DejaVu Sans', 'Bitstream Vera Sans', 'Computer Modern Sans Serif', 'Lucida Grande', Verdana, Geneva, Lucid, Arial, Helvetica, 'Avant Garde', sans-serif;text-anchor:end"
               x="338.36679"
               y="226.40302"
               id="text16">10.0</text>
          </g>
        </g>
        <g
           id="ytick_6">
          <g
             id="line2d_14">
            <g
               id="g16">
              <use
                 xlink:href="#m76e24e3d9a"
                 x="345.36679"
                 y="178.1505"
                 style="stroke:#000000;stroke-width:0.8"
                 id="use16" />
            </g>
          </g>
          <g
             id="text_15">
            <text
               style="font-style:normal;font-variant:normal;font-weight:normal;font-stretch:normal;font-size:20px;line-height:normal;font-family:'DejaVu Sans', 'Bitstream Vera Sans', 'Computer Modern Sans Serif', 'Lucida Grande', Verdana, Geneva, Lucid, Arial, Helvetica, 'Avant Garde', sans-serif;text-anchor:end"
               x="338.36679"
               y="185.74893"
               id="text17">12.5</text>
          </g>
        </g>
        <g
           id="ytick_7">
          <g
             id="line2d_15">
            <g
               id="g17">
              <use
                 xlink:href="#m76e24e3d9a"
                 x="345.36679"
                 y="137.49641"
                 style="stroke:#000000;stroke-width:0.8"
                 id="use17" />
            </g>
          </g>
          <g
             id="text_16">
            <text
               style="font-style:normal;font-variant:normal;font-weight:normal;font-stretch:normal;font-size:20px;line-height:normal;font-family:'DejaVu Sans', 'Bitstream Vera Sans', 'Computer Modern Sans Serif', 'Lucida Grande', Verdana, Geneva, Lucid, Arial, Helvetica, 'Avant Garde', sans-serif;text-anchor:end"
               x="338.36679"
               y="145.09486"
               id="text18">15.0</text>
          </g>
        </g>
        <g
           id="ytick_8">
          <g
             id="line2d_16">
            <g
               id="g18">
              <use
                 xlink:href="#m76e24e3d9a"
                 x="345.36679"
                 y="96.842339"
                 style="stroke:#000000;stroke-width:0.8"
                 id="use18" />
            </g>
          </g>
          <g
             id="text_17">
            <text
               style="font-style:normal;font-variant:normal;font-weight:normal;font-stretch:normal;font-size:20px;line-height:normal;font-family:'DejaVu Sans', 'Bitstream Vera Sans', 'Computer Modern Sans Serif', 'Lucida Grande', Verdana, Geneva, Lucid, Arial, Helvetica, 'Avant Garde', sans-serif;text-anchor:end"
               x="338.36679"
               y="104.44078"
               id="text19">17.5</text>
          </g>
        </g>
        <g
           id="text_18">
          <text
             style="font-style:normal;font-variant:normal;font-weight:normal;font-stretch:normal;font-size:20px;line-height:normal;font-family:'DejaVu Sans', 'Bitstream Vera Sans', 'Computer Modern Sans Serif', 'Lucida Grande', Verdana, Geneva, Lucid, Arial, Helvetica, 'Avant Garde', sans-serif;text-anchor:middle"
             x="285.67618"
             y="219.7692"
             transform="rotate(-90,285.67617,219.7692)"
             id="text20">hashes in window</text>
        </g>
      </g>
      <g
         id="line2d_17">
        <path
           d="m -1,297.49048 6.576202,20.69074 8.614143,-23.48902 8.614142,-3.6137 8.614142,10.84109 8.614143,1.80685 8.614142,-7.2274 8.614143,-9.03424 8.614142,3.6137 8.614142,16.26163 8.614143,-12.64793 8.614142,12.64793 8.614144,10.84109 8.61414,-19.87533 8.61414,-5.42054 8.61415,21.68217 8.61414,-21.68217 8.61414,14.45478 8.61414,21.68218 8.61414,-16.26163 8.61415,-7.2274 8.61414,27.10272 8.61414,-25.29587 8.61414,9.03424 8.61415,-10.84109 8.61414,-25.29587 8.61414,14.45479 8.61414,1.80684 8.61415,-10.84108 8.61414,12.64793 8.61414,3.6137 h 8.61414 l 8.61415,3.61369 8.61414,12.64794 8.61414,-12.64794 8.61414,12.64794 8.61415,-23.48902 8.61414,-10.84109 8.61414,19.87533 8.61414,-12.64794 8.61415,9.03424 h 8.61414 l 8.61414,1.80685 8.61414,-16.26163 8.61414,14.45478 8.61415,-16.26163 8.61414,12.64793 8.61414,-5.42054 8.61414,-3.6137 8.61415,16.26164 8.61414,-16.26164 8.61414,16.26164 h 8.61414 l 8.61415,16.26163 8.61414,45.1712 8.61414,-34.33011 8.61414,14.45478 8.61415,-25.29587 8.61414,-21.68218 8.61414,21.68218 8.61414,-21.68218 8.61415,3.6137 8.61414,-19.87533 8.61414,21.68218 h 8.61414 l 8.61415,7.22739 8.61414,-5.42055 8.61414,-9.03424 8.61414,12.64794 8.61415,-7.22739 8.61414,-10.84109 8.61414,-1.80685 8.61414,14.45479 h 8.61414 l 8.61415,-1.80685 8.61414,9.03424 8.61414,-122.86567 8.61414,-46.97804 8.61415,153.58208 8.61414,25.29587 8.61414,-30.71642 8.61414,-88.53555 8.61415,-77.69446 8.61414,-23.489026 8.61414,16.261636 8.61414,1.80684 8.61415,122.86567 8.61414,86.7287 8.61414,-27.10272 8.61414,-5.42054 8.61414,-14.45479 8.61415,25.29587 8.61414,-7.22739 8.61414,3.6137 8.61415,-7.22739 8.61414,9.03424 h 8.61414 l 8.61414,9.03424 8.61414,-16.26164 8.61415,-12.64793 8.61414,10.84109 8.61414,14.45478 8.61414,9.03424 8.61415,-14.45478 8.61414,5.42054 8.61414,-25.29587 8.61414,23.48902 17.22829,-14.45478 8.61414,19.87533 8.61414,5.42054 8.61415,-12.64794 8.61414,-21.68217 8.61414,16.26163 8.61414,-10.84109 8.61414,5.42055 8.61415,9.03424 8.61412,1.80684 8.6142,3.6137 8.6141,34.33011 8.6141,19.87533 17.2283,-43.36435 8.6142,-23.48903 8.6141,-41.5575 8.6142,10.84109 8.6141,-18.06848 8.6141,77.69446 8.6142,-36.13696 8.6141,54.20544 8.6142,-36.13696 8.6141,21.68218 8.6142,-25.29587 8.6141,32.52326 8.6141,-23.48902 8.6142,-9.03424 8.6141,3.61369 8.6142,-7.22739 8.6141,-12.64794 8.6142,23.48903 8.6141,-7.22739 8.6141,5.42054 8.6142,-5.42054 h 8.6141 l 8.6142,10.84108 8.6141,-23.48902 8.6141,10.84109 8.6142,14.45478 8.6141,-21.68217 8.6142,23.48902 8.6141,7.22739 8.6142,-50.59174 8.6141,41.5575 8.6141,-28.90957 8.6142,-3.61369 8.6141,10.84109 8.6142,-12.64794 h 8.6141 l 8.6142,23.48902 8.6141,-10.84108 8.6141,12.64793 0.9752,-1.4318 v 0"
           clip-path="url(#p755cb5c9fa)"
           style="fill:none;stroke:#a9a9a9;stroke-width:1.5;stroke-linecap:square"
           id="path20" />
      </g>
      <g
         id="line2d_18">
        <path
           d="m -1,303.95993 6.576202,12.41444 8.614143,-32.52326 h 8.614142 l 17.228285,32.52326 h 8.614142 l 8.614143,-16.26163 h 8.614142 l 8.614142,16.26163 8.614143,-16.26163 8.614142,16.26163 h 17.228284 l 8.61414,-16.26163 8.61415,32.52326 8.61414,-48.78489 17.22828,65.04653 8.61414,-32.52327 h 8.61415 l 8.61414,16.26163 8.61414,-16.26163 h 17.22829 l 8.61414,-32.52326 h 8.61414 l 8.61414,16.26163 8.61415,-32.52326 8.61414,32.52326 h 25.84243 l 8.61414,16.26163 h 17.22828 l 17.22829,-32.52326 8.61414,16.26163 8.61414,-16.26163 8.61415,16.26163 8.61414,-16.26163 8.61414,32.52326 8.61414,-16.26163 8.61414,16.26163 8.61415,-32.52326 8.61414,16.26163 h 8.61414 l 8.61414,-16.26163 8.61415,16.26163 8.61414,-16.26163 8.61414,32.52326 8.61414,-16.26163 8.61415,16.26163 8.61414,48.7849 8.61414,-32.52327 8.61414,16.26164 8.61415,-32.52327 8.61414,-16.26163 8.61414,32.52326 8.61414,-16.26163 h 8.61415 l 8.61414,-16.26163 8.61414,16.26163 8.61414,-16.26163 8.61415,16.26163 h 8.61414 l 8.61414,-16.26163 8.61414,16.26163 8.61415,-16.26163 h 8.61414 l 8.61414,-16.26163 17.22828,32.52326 8.61415,-16.26163 8.61414,16.26163 h 8.61414 l 8.61414,48.7849 8.61415,-65.04653 8.61414,16.26163 8.61414,-16.26163 8.61414,16.26163 8.61415,65.04653 h 25.84242 l 8.61415,-65.04653 8.61414,16.26163 8.61414,-32.52326 8.61414,-16.26163 17.22829,32.52326 h 17.22828 l 8.61415,-16.26163 h 17.22828 l 8.61414,32.52326 8.61414,-32.52326 8.61415,-16.26163 17.22828,32.52326 h 17.22829 l 17.22828,-32.52326 8.61414,16.26163 h 8.61415 l 8.61414,-16.26163 8.61414,32.52326 h 8.61414 l 8.61415,16.26163 8.61414,-48.78489 8.61414,16.26163 h 34.45655 l 8.6142,16.26163 8.6141,65.04653 h 17.2283 l 17.2283,-65.04653 8.6141,-146.35469 8.6142,32.52327 8.6141,-48.7849 8.6141,178.87795 8.6142,-48.78489 8.6141,65.04653 8.6142,-48.7849 8.6141,32.52326 8.6142,-32.52326 8.6141,32.52326 17.2283,-32.52326 h 8.6141 l 8.6142,32.52326 8.6141,-32.52326 h 17.2283 l 17.2283,32.52326 8.6141,-32.52326 8.6142,16.26163 17.2282,-32.52326 8.6142,32.52326 8.6141,-32.52326 8.6142,32.52326 8.6141,16.26163 8.6142,-65.04652 8.6141,48.78489 8.6141,-32.52326 h 8.6142 l 8.6141,16.26163 17.2283,-32.52326 8.6142,48.78489 8.6141,-16.26163 8.6141,16.26163 0.9752,-1.84088 v 0"
           clip-path="url(#p755cb5c9fa)"
           style="fill:none;stroke:#000000;stroke-width:1.5;stroke-linecap:square"
           id="path21" />
      </g>
      <g
         id="patch_3">
        <path
           d="M 345.3668,381.4209 V 58.1175"
           style="fill:none;stroke:#000000;stroke-width:0.8;stroke-linecap:square;stroke-linejoin:miter"
           id="path22" />
      </g>
      <g
         id="patch_4">
        <path
           d="M 1029.8332,381.4209 V 58.1175"
           style="fill:none;stroke:#000000;stroke-width:0.8;stroke-linecap:square;stroke-linejoin:miter"
           id="path23" />
      </g>
      <g
         id="patch_5">
        <path
           d="m 345.3668,381.4209 h 684.4664"
           style="fill:none;stroke:#000000;stroke-width:0.8;stroke-linecap:square;stroke-linejoin:miter"
           id="path24" />
      </g>
      <g
         id="patch_6">
        <path
           d="m 345.3668,58.1175 h 684.4664"
           style="fill:none;stroke:#000000;stroke-width:0.8;stroke-linecap:square;stroke-linejoin:miter"
           id="path25" />
      </g>
    </g>
    <g
       id="axes_2">
      <g
         id="matplotlib.axis_3">
        <g
           id="ytick_9">
          <g
             id="line2d_19">
            <defs
               id="defs25">
              <path
                 id="me08a6dfa61"
                 d="M 0,0 H 3.5"
                 style="stroke:#000000;stroke-width:0.8" />
            </defs>
            <g
               id="g25">
              <use
                 xlink:href="#me08a6dfa61"
                 x="1029.8333"
                 y="381.4209"
                 style="stroke:#000000;stroke-width:0.8"
                 id="use25" />
            </g>
          </g>
          <g
             id="text_19">
            <text
               style="font-style:normal;font-variant:normal;font-weight:normal;font-stretch:normal;font-size:20px;line-height:normal;font-family:'DejaVu Sans', 'Bitstream Vera Sans', 'Computer Modern Sans Serif', 'Lucida Grande', Verdana, Geneva, Lucid, Arial, Helvetica, 'Avant Garde', sans-serif;text-anchor:start"
               x="1036.8333"
               y="389.01935"
               id="text25">0.0</text>
          </g>
        </g>
        <g
           id="ytick_10">
          <g
             id="line2d_20">
            <g
               id="g26">
              <use
                 xlink:href="#me08a6dfa61"
                 x="1029.8333"
                 y="322.28769"
                 style="stroke:#000000;stroke-width:0.8"
                 id="use26" />
            </g>
          </g>
          <g
             id="text_20">
            <text
               style="font-style:normal;font-variant:normal;font-weight:normal;font-stretch:normal;font-size:20px;line-height:normal;font-family:'DejaVu Sans', 'Bitstream Vera Sans', 'Computer Modern Sans Serif', 'Lucida Grande', Verdana, Geneva, Lucid, Arial, Helvetica, 'Avant Garde', sans-serif;text-anchor:start"
               x="1036.8333"
               y="329.88614"
               id="text26">0.2</text>
          </g>
        </g>
        <g
           id="ytick_11">
          <g
             id="line2d_21">
            <g
               id="g27">
              <use
                 xlink:href="#me08a6dfa61"
                 x="1029.8333"
                 y="263.15448"
                 style="stroke:#000000;stroke-width:0.8"
                 id="use27" />
            </g>
          </g>
          <g
             id="text_21">
            <text
               style="font-style:normal;font-variant:normal;font-weight:normal;font-stretch:normal;font-size:20px;line-height:normal;font-family:'DejaVu Sans', 'Bitstream Vera Sans', 'Computer Modern Sans Serif', 'Lucida Grande', Verdana, Geneva, Lucid, Arial, Helvetica, 'Avant Garde', sans-serif;text-anchor:start"
               x="1036.8333"
               y="270.75293"
               id="text27">0.4</text>
          </g>
        </g>
        <g
           id="ytick_12">
          <g
             id="line2d_22">
            <g
               id="g28">
              <use
                 xlink:href="#me08a6dfa61"
                 x="1029.8333"
                 y="204.02129"
                 style="stroke:#000000;stroke-width:0.8"
                 id="use28" />
            </g>
          </g>
          <g
             id="text_22">
            <text
               style="font-style:normal;font-variant:normal;font-weight:normal;font-stretch:normal;font-size:20px;line-height:normal;font-family:'DejaVu Sans', 'Bitstream Vera Sans', 'Computer Modern Sans Serif', 'Lucida Grande', Verdana, Geneva, Lucid, Arial, Helvetica, 'Avant Garde', sans-serif;text-anchor:start"
               x="1036.8333"
               y="211.61972"
               id="text28">0.6</text>
          </g>
        </g>
        <g
           id="ytick_13">
          <g
             id="line2d_23">
            <g
               id="g29">
              <use
                 xlink:href="#me08a6dfa61"
                 x="1029.8333"
                 y="144.88808"
                 style="stroke:#000000;stroke-width:0.8"
                 id="use29" />
            </g>
          </g>
          <g
             id="text_23">
            <text
               style="font-style:normal;font-variant:normal;font-weight:normal;font-stretch:normal;font-size:20px;line-height:normal;font-family:'DejaVu Sans', 'Bitstream Vera Sans', 'Computer Modern Sans Serif', 'Lucida Grande', Verdana, Geneva, Lucid, Arial, Helvetica, 'Avant Garde', sans-serif;text-anchor:start"
               x="1036.8333"
               y="152.48651"
               id="text29">0.8</text>
          </g>
        </g>
        <g
           id="ytick_14">
          <g
             id="line2d_24">
            <g
               id="g30">
              <use
                 xlink:href="#me08a6dfa61"
                 x="1029.8333"
                 y="85.754868"
                 style="stroke:#000000;stroke-width:0.8"
                 id="use30" />
            </g>
          </g>
          <g
             id="text_24">
            <text
               style="font-style:normal;font-variant:normal;font-weight:normal;font-stretch:normal;font-size:20px;line-height:normal;font-family:'DejaVu Sans', 'Bitstream Vera Sans', 'Computer Modern Sans Serif', 'Lucida Grande', Verdana, Geneva, Lucid, Arial, Helvetica, 'Avant Garde', sans-serif;text-anchor:start"
               x="1036.8333"
               y="93.353302"
               id="text30">1.0</text>
          </g>
        </g>
        <g
           id="text_25">
          <text
             style="font-style:normal;font-variant:normal;font-weight:normal;font-stretch:normal;font-size:20px;line-height:normal;font-family:'DejaVu Sans', 'Bitstream Vera Sans', 'Computer Modern Sans Serif', 'Lucida Grande', Verdana, Geneva, Lucid, Arial, Helvetica, 'Avant Garde', sans-serif;text-anchor:middle"
             x="1087.8363"
             y="219.7692"
             transform="rotate(-90,1087.8363,219.7692)"
             id="text31">$C_m$</text>
        </g>
      </g>
      <g
         id="line2d_25">
        <path
           d="m -1,92.457843 6.576202,-2.031454 8.614143,586.660551 8.614142,-506.83072 8.614142,38.55485 8.614143,-20.28269 8.614142,-48.8736 8.614143,74.15304 8.614142,-45.56213 8.614142,-74.833074 8.614143,-0.975698 8.614142,18.952192 8.614144,1.65573 8.61414,-21.938419 8.61414,14.280669 8.61415,-18.272161 8.61414,141.653601 8.61414,-114.71842 8.61414,198.86497 8.61414,364.17186 8.61415,-587.311017 8.61414,-0.680031 8.61414,44.556868 8.61414,-43.876837 8.61415,3.31146 8.61414,-2.660994 8.61414,2.010529 8.61414,-3.991492 8.61415,109.721664 8.61414,-85.77272 8.61414,1.65574 8.61414,115.39845 8.61415,-28.26568 8.61414,47.21787 8.61414,-33.58766 8.61414,-125.391966 8.61415,105.434506 8.61414,-100.762982 8.61414,4.641956 8.61414,-4.967189 8.61415,95.766225 8.61414,-100.112516 8.61414,2.335762 8.61414,162.971114 8.61414,34.56336 8.61415,-5.97245 8.61414,-150.99664 8.61414,-41.570649 8.61414,2.335762 8.61415,6.327253 8.61414,111.406964 8.61414,466.26534 h 77.52728 l 8.61415,-424.6947 8.61414,-159.304857 8.61414,5.647221 8.61414,-0.650465 8.61415,22.618451 8.61414,100.43775 8.61414,-24.95421 8.61414,3.31146 8.61415,142.68843 8.61414,28.26567 8.61414,-20.96272 8.61414,-98.75246 8.61414,-143.33889 8.61415,33.26243 8.61414,74.80351 8.61414,13.65977 8.61414,83.14128 8.61415,-211.51948 8.61414,-2.986224 8.61414,-6.327253 8.61414,164.952077 8.61415,116.72895 8.61414,1.00527 8.61414,-3.66626 8.61414,3.31146 8.61415,-84.47179 8.61414,-136.00637 8.61414,-61.202872 8.61414,-1.980962 8.61414,4.641957 8.61415,7.982987 8.61414,30.92666 8.61414,42.90114 8.61415,-64.51432 8.61414,63.53863 8.61414,-13.30498 8.61414,-28.62047 8.61414,-29.24137 8.61415,-5.676786 8.61414,132.694916 8.61414,-143.664126 8.61414,8.308216 8.61415,-2.660994 8.61414,-2.306195 h 8.61414 l 8.61414,-0.3548 8.61415,-3.311459 8.61414,1.330497 8.61414,14.635471 8.61414,-2.01053 8.61415,-11.294444 8.61414,91.449504 8.61414,-93.460033 8.61414,8.337782 8.61414,-9.668279 8.61415,17.29646 8.61412,2.01053 8.6142,571.01982 h 17.2282 l 8.6142,-304.29949 8.6141,-125.06673 8.6142,-138.34214 8.6141,567.70836 h 25.8424 l 8.6142,-577.347071 8.6141,577.347071 h 8.6142 l 8.6141,-567.02833 h 8.6142 l 8.6141,-21.613184 8.6141,59.192344 8.6142,107.41547 8.6141,-86.12752 8.6142,-42.90114 8.6141,-36.248657 8.6142,0.650466 8.6141,132.369681 8.6141,454.29087 8.6142,-546.4204 8.6141,-30.24664 8.6142,-10.318744 8.6141,2.660994 8.6141,-6.977718 8.6142,7.628184 8.6141,3.015793 8.6142,-8.663015 8.6141,25.279446 8.6142,-8.63345 8.6141,178.90752 8.6141,-104.42924 8.6142,0.68003 8.6141,-54.55038 8.6142,-31.251905 8.6141,0.975698 8.6142,-3.636692 8.6141,46.212599 8.6141,-24.59941 0.9752,3.01236 v 0"
           clip-path="url(#p755cb5c9fa)"
           style="fill:none;stroke:#228b22;stroke-width:1.5;stroke-linecap:square"
           id="path31" />
      </g>
      <g
         id="patch_7">
        <path
           d="M 345.3668,381.4209 V 58.1175"
           style="fill:none;stroke:#000000;stroke-width:0.8;stroke-linecap:square;stroke-linejoin:miter"
           id="path32" />
      </g>
      <g
         id="patch_8">
        <path
           d="M 1029.8332,381.4209 V 58.1175"
           style="fill:none;stroke:#000000;stroke-width:0.8;stroke-linecap:square;stroke-linejoin:miter"
           id="path33" />
      </g>
      <g
         id="patch_9">
        <path
           d="m 345.3668,381.4209 h 684.4664"
           style="fill:none;stroke:#000000;stroke-width:0.8;stroke-linecap:square;stroke-linejoin:miter"
           id="path34" />
      </g>
      <g
         id="patch_10">
        <path
           d="m 345.3668,58.1175 h 684.4664"
           style="fill:none;stroke:#000000;stroke-width:0.8;stroke-linecap:square;stroke-linejoin:miter"
           id="path35" />
      </g>
      <g
         id="legend_1">
        <g
           id="patch_11">
          <path
             d="m 418.90781,521.35033 h 537.38438 q 4,0 4,-4 v -57.26875 q 0,-4 -4,-4 H 418.90781 q -4,0 -4,4 v 57.26875 q 0,4 4,4 z"
             style="opacity:0.8;fill:#ffffff;stroke:#cccccc;stroke-linejoin:miter"
             id="path36" />
        </g>
        <g
           id="line2d_26">
          <path
             d="m 422.90781,472.27845 h 20 20"
             style="fill:none;stroke:#a9a9a9;stroke-width:1.5;stroke-linecap:square"
             id="path37" />
        </g>
        <g
           id="text_26">
          <text
             style="font-style:normal;font-variant:normal;font-weight:normal;font-stretch:normal;font-size:20px;line-height:normal;font-family:'DejaVu Sans', 'Bitstream Vera Sans', 'Computer Modern Sans Serif', 'Lucida Grande', Verdana, Geneva, Lucid, Arial, Helvetica, 'Avant Garde', sans-serif;text-anchor:start"
             x="478.90781"
             y="479.27844"
             id="text37">mean hash count</text>
        </g>
        <g
           id="line2d_27">
          <path
             d="m 422.90781,501.6347 h 20 20"
             style="fill:none;stroke:#000000;stroke-width:1.5;stroke-linecap:square"
             id="path38" />
        </g>
        <g
           id="text_27">
          <text
             style="font-style:normal;font-variant:normal;font-weight:normal;font-stretch:normal;font-size:20px;line-height:normal;font-family:'DejaVu Sans', 'Bitstream Vera Sans', 'Computer Modern Sans Serif', 'Lucida Grande', Verdana, Geneva, Lucid, Arial, Helvetica, 'Avant Garde', sans-serif;text-anchor:start"
             x="478.90781"
             y="508.6347"
             id="text38">median hash count</text>
        </g>
        <g
           id="patch_12">
          <path
             d="m 711.04219,479.27845 h 40 v -14 h -40 z"
             style="fill:#d3d3d3"
             id="path39" />
        </g>
        <g
           id="text_28">
          <text
             style="font-style:normal;font-variant:normal;font-weight:normal;font-stretch:normal;font-size:20px;line-height:normal;font-family:'DejaVu Sans', 'Bitstream Vera Sans', 'Computer Modern Sans Serif', 'Lucida Grande', Verdana, Geneva, Lucid, Arial, Helvetica, 'Avant Garde', sans-serif;text-anchor:start"
             x="767.04218"
             y="479.27844"
             id="text39">hash count range</text>
        </g>
        <g
           id="line2d_28">
          <path
             d="m 711.04219,501.6347 h 20 20"
             style="fill:none;stroke:#228b22;stroke-width:1.5;stroke-linecap:square"
             id="path40" />
        </g>
        <g
           id="text_29">
          <text
             style="font-style:normal;font-variant:normal;font-weight:normal;font-stretch:normal;font-size:20px;line-height:normal;font-family:'DejaVu Sans', 'Bitstream Vera Sans', 'Computer Modern Sans Serif', 'Lucida Grande', Verdana, Geneva, Lucid, Arial, Helvetica, 'Avant Garde', sans-serif;text-anchor:start"
             x="767.04218"
             y="508.6347"
             id="text40">$C_m$ complexity</text>
        </g>
      </g>
    </g>
  </g>
  <defs
     id="defs40">
    <clipPath
       id="p755cb5c9fa">
      <rect
         x="345.36679"
         y="58.1175"
         width="684.46643"
         height="323.30341"
         id="rect40" />
    </clipPath>
  </defs>
</svg>
