<?xml version="1.0" encoding="UTF-8" standalone="no"?>
<svg
   width="1375.2pt"
   height="717.84pt"
   viewBox="0 0 1375.2 717.84"
   version="1.1"
   id="svg33"
   sodipodi:docname="p_infestans_with_comp.svg"
   inkscape:version="1.3.2 (091e20ef0f, 2023-11-25, custom)"
   xmlns:inkscape="http://www.inkscape.org/namespaces/inkscape"
   xmlns:sodipodi="http://sodipodi.sourceforge.net/DTD/sodipodi-0.dtd"
   xmlns:xlink="http://www.w3.org/1999/xlink"
   xmlns="http://www.w3.org/2000/svg"
   xmlns:svg="http://www.w3.org/2000/svg"
   xmlns:rdf="http://www.w3.org/1999/02/22-rdf-syntax-ns#"
   xmlns:cc="http://creativecommons.org/ns#"
   xmlns:dc="http://purl.org/dc/elements/1.1/">
  <sodipodi:namedview
     id="namedview33"
     pagecolor="#ffffff"
     bordercolor="#000000"
     borderopacity="0.25"
     inkscape:showpageshadow="2"
     inkscape:pageopacity="0.0"
     inkscape:pagecheckerboard="0"
     inkscape:deskcolor="#d1d1d1"
     inkscape:document-units="pt"
     inkscape:zoom="0.41721206"
     inkscape:cx="915.60154"
     inkscape:cy="479.37253"
     inkscape:window-width="1910"
     inkscape:window-height="2111"
     inkscape:window-x="0"
     inkscape:window-y="0"
     inkscape:window-maximized="1"
     inkscape:current-layer="svg33" />
  <metadata
     id="metadata1">
    <rdf:RDF>
      <cc:Work>
        <dc:type
           rdf:resource="http://purl.org/dc/dcmitype/StillImage" />
        <dc:date>2024-06-05T17:37:13.917204</dc:date>
        <dc:format>image/svg+xml</dc:format>
        <dc:creator>
          <cc:Agent>
            <dc:title>Matplotlib v3.8.1, https://matplotlib.org/</dc:title>
          </cc:Agent>
        </dc:creator>
      </cc:Work>
    </rdf:RDF>
  </metadata>
  <defs
     id="defs1">
    <style
       type="text/css"
       id="style1">*{stroke-linejoin: round; stroke-linecap: butt}</style>
  </defs>
  <g
     id="figure_1">
    <g
       id="patch_1"
       style="opacity:0">
      <path
         d="M 0 717.84  L 1375.2 717.84  L 1375.2 0  L 0 0  z "
         style="fill: #ffffff"
         id="path1" />
    </g>
    <g
       id="axes_1">
      <g
         id="patch_2">
        <path
           d="M 171.9 638.8776  L 1237.68 638.8776  L 1237.68 86.1408  L 171.9 86.1408  z "
           style="fill: #ffffff"
           id="path2" />
      </g>
      <g
         id="PolyCollection_1">
        <path
           d="M -655.386228 500.62857  L -655.386228 638.8776  L -645.782634 638.8776  L -636.179039 583.577988  L -626.575445 583.577988  L -616.971851 583.577988  L -607.368257 638.8776  L -597.764662 611.227794  L -588.161068 611.227794  L -578.557474 611.227794  L -568.953879 583.577988  L -559.350285 583.577988  L -549.746691 583.577988  L -540.143097 611.227794  L -530.539502 555.928182  L -520.935908 611.227794  L -511.332314 583.577988  L -501.72872 583.577988  L -492.125125 555.928182  L -482.521531 611.227794  L -472.917937 611.227794  L -463.314342 528.278376  L -453.710748 611.227794  L -444.107154 583.577988  L -434.50356 583.577988  L -424.899965 583.577988  L -415.296371 583.577988  L -405.692777 583.577988  L -396.089183 555.928182  L -386.485588 583.577988  L -376.881994 555.928182  L -367.2784 583.577988  L -357.674806 555.928182  L -348.071211 583.577988  L -338.467617 611.227794  L -328.864023 583.577988  L -319.260428 555.928182  L -309.656834 638.8776  L -300.05324 555.928182  L -290.449646 583.577988  L -280.846051 555.928182  L -271.242457 583.577988  L -261.638863 583.577988  L -252.035269 583.577988  L -242.431674 528.278376  L -232.82808 611.227794  L -223.224486 611.227794  L -213.620891 638.8776  L -204.017297 583.577988  L -194.413703 611.227794  L -184.810109 583.577988  L -175.206514 555.928182  L -165.60292 611.227794  L -155.999326 555.928182  L -146.395732 583.577988  L -136.792137 638.8776  L -127.188543 583.577988  L -117.584949 583.577988  L -107.981355 555.928182  L -98.37776 555.928182  L -88.774166 611.227794  L -79.170572 611.227794  L -69.566977 528.278376  L -59.963383 583.577988  L -50.359789 611.227794  L -40.756195 638.8776  L -31.1526 611.227794  L -21.549006 555.928182  L -11.945412 583.577988  L -2.341818 611.227794  L 7.261777 528.278376  L 16.865371 611.227794  L 26.468965 611.227794  L 36.07256 555.928182  L 45.676154 555.928182  L 55.279748 555.928182  L 64.883342 638.8776  L 74.486937 583.577988  L 84.090531 555.928182  L 93.694125 611.227794  L 103.297719 555.928182  L 112.901314 583.577988  L 122.504908 555.928182  L 132.108502 583.577988  L 141.712096 611.227794  L 151.315691 555.928182  L 160.919285 611.227794  L 170.522879 555.928182  L 180.126474 555.928182  L 189.730068 555.928182  L 199.333662 555.928182  L 208.937256 611.227794  L 218.540851 555.928182  L 228.144445 611.227794  L 237.748039 555.928182  L 247.351633 611.227794  L 256.955228 583.577988  L 266.558822 555.928182  L 276.162416 528.278376  L 285.766011 583.577988  L 295.369605 611.227794  L 304.973199 611.227794  L 314.576793 555.928182  L 324.180388 611.227794  L 333.783982 583.577988  L 343.387576 583.577988  L 352.99117 611.227794  L 362.594765 611.227794  L 372.198359 611.227794  L 381.801953 611.227794  L 391.405547 611.227794  L 401.009142 583.577988  L 410.612736 611.227794  L 420.21633 638.8776  L 429.819925 583.577988  L 439.423519 555.928182  L 449.027113 611.227794  L 458.630707 583.577988  L 468.234302 555.928182  L 477.837896 583.577988  L 487.44149 583.577988  L 497.045084 611.227794  L 506.648679 555.928182  L 516.252273 611.227794  L 525.855867 611.227794  L 535.459462 638.8776  L 545.063056 583.577988  L 554.66665 583.577988  L 564.270244 611.227794  L 573.873839 583.577988  L 583.477433 611.227794  L 593.081027 555.928182  L 602.684621 611.227794  L 612.288216 611.227794  L 621.89181 583.577988  L 631.495404 583.577988  L 641.098998 611.227794  L 650.702593 583.577988  L 660.306187 611.227794  L 669.909781 583.577988  L 679.513376 555.928182  L 689.11697 583.577988  L 698.720564 583.577988  L 708.324158 583.577988  L 717.927753 611.227794  L 727.531347 638.8776  L 737.134941 611.227794  L 746.738535 611.227794  L 756.34213 583.577988  L 765.945724 583.577988  L 775.549318 583.577988  L 785.152913 611.227794  L 794.756507 638.8776  L 804.360101 611.227794  L 813.963695 555.928182  L 823.56729 583.577988  L 833.170884 528.278376  L 842.774478 583.577988  L 852.378072 555.928182  L 861.981667 528.278376  L 871.585261 583.577988  L 881.188855 611.227794  L 890.792449 583.577988  L 900.396044 555.928182  L 909.999638 583.577988  L 919.603232 611.227794  L 929.206827 583.577988  L 938.810421 638.8776  L 948.414015 638.8776  L 958.017609 638.8776  L 967.621204 638.8776  L 977.224798 638.8776  L 986.828392 583.577988  L 996.431986 638.8776  L 1006.035581 583.577988  L 1015.639175 583.577988  L 1025.242769 555.928182  L 1034.846364 611.227794  L 1044.449958 611.227794  L 1054.053552 638.8776  L 1063.657146 611.227794  L 1073.260741 583.577988  L 1082.864335 611.227794  L 1092.467929 583.577988  L 1102.071523 583.577988  L 1111.675118 638.8776  L 1121.278712 555.928182  L 1130.882306 583.577988  L 1140.4859 583.577988  L 1150.089495 611.227794  L 1159.693089 611.227794  L 1169.296683 528.278376  L 1178.900278 555.928182  L 1188.503872 555.928182  L 1198.107466 583.577988  L 1207.71106 583.577988  L 1217.314655 611.227794  L 1226.918249 555.928182  L 1236.521843 611.227794  L 1246.125437 611.227794  L 1255.729032 555.928182  L 1265.332626 528.278376  L 1274.93622 611.227794  L 1284.539815 638.8776  L 1294.143409 611.227794  L 1303.747003 583.577988  L 1313.350597 583.577988  L 1322.954192 611.227794  L 1332.557786 638.8776  L 1342.16138 583.577988  L 1351.764974 583.577988  L 1361.368569 583.577988  L 1370.972163 555.928182  L 1380.575757 583.577988  L 1390.179351 555.928182  L 1399.782946 611.227794  L 1409.38654 611.227794  L 1418.990134 555.928182  L 1428.593729 555.928182  L 1438.197323 611.227794  L 1447.800917 555.928182  L 1457.404511 611.227794  L 1467.008106 583.577988  L 1476.6117 611.227794  L 1486.215294 583.577988  L 1495.818888 583.577988  L 1505.422483 528.278376  L 1515.026077 611.227794  L 1524.629671 583.577988  L 1534.233266 611.227794  L 1543.83686 611.227794  L 1553.440454 583.577988  L 1563.044048 638.8776  L 1572.647643 611.227794  L 1582.251237 638.8776  L 1591.854831 638.8776  L 1601.458425 611.227794  L 1611.06202 611.227794  L 1620.665614 611.227794  L 1630.269208 555.928182  L 1639.872802 528.278376  L 1649.476397 555.928182  L 1659.079991 583.577988  L 1668.683585 611.227794  L 1678.28718 611.227794  L 1687.890774 583.577988  L 1697.494368 583.577988  L 1707.097962 611.227794  L 1716.701557 611.227794  L 1726.305151 638.8776  L 1735.908745 583.577988  L 1745.512339 611.227794  L 1755.115934 583.577988  L 1764.719528 583.577988  L 1774.323122 555.928182  L 1783.926717 583.577988  L 1793.530311 583.577988  L 1803.133905 555.928182  L 1812.737499 528.278376  L 1822.341094 611.227794  L 1831.944688 611.227794  L 1841.548282 555.928182  L 1851.151876 611.227794  L 1860.755471 555.928182  L 1870.359065 583.577988  L 1879.962659 583.577988  L 1889.566254 583.577988  L 1899.169848 583.577988  L 1908.773442 555.928182  L 1918.377036 583.577988  L 1927.980631 555.928182  L 1937.584225 583.577988  L 1947.187819 611.227794  L 1956.791413 611.227794  L 1966.395008 583.577988  L 1975.998602 611.227794  L 1985.602196 583.577988  L 1995.20579 611.227794  L 2004.809385 583.577988  L 2014.412979 528.278376  L 2024.016573 638.8776  L 2033.620168 583.577988  L 2043.223762 583.577988  L 2052.827356 638.8776  L 2062.43095 555.928182  L 2072.034545 528.278376  L 2081.638139 528.278376  L 2091.241733 583.577988  L 2100.845327 638.8776  L 2110.448922 555.928182  L 2120.052516 583.577988  L 2129.65611 583.577988  L 2139.259705 583.577988  L 2148.863299 583.577988  L 2158.466893 583.577988  L 2168.070487 638.8776  L 2177.674082 583.577988  L 2187.277676 583.577988  L 2196.88127 611.227794  L 2206.484864 555.928182  L 2216.088459 583.577988  L 2225.692053 638.8776  L 2235.295647 638.8776  L 2244.899241 611.227794  L 2254.502836 611.227794  L 2264.10643 611.227794  L 2273.710024 555.928182  L 2283.313619 638.8776  L 2292.917213 583.577988  L 2302.520807 583.577988  L 2312.124401 583.577988  L 2321.727996 555.928182  L 2331.33159 611.227794  L 2340.935184 611.227794  L 2350.538778 583.577988  L 2360.142373 583.577988  L 2369.745967 638.8776  L 2379.349561 555.928182  L 2388.953156 583.577988  L 2398.55675 583.577988  L 2408.160344 583.577988  L 2417.763938 583.577988  L 2427.367533 555.928182  L 2436.971127 583.577988  L 2446.574721 583.577988  L 2456.178315 583.577988  L 2465.78191 638.8776  L 2475.385504 611.227794  L 2484.989098 611.227794  L 2494.592692 611.227794  L 2504.196287 611.227794  L 2513.799881 583.577988  L 2523.403475 528.278376  L 2533.00707 611.227794  L 2542.610664 638.8776  L 2552.214258 611.227794  L 2561.817852 528.278376  L 2571.421447 611.227794  L 2581.025041 611.227794  L 2590.628635 583.577988  L 2600.232229 583.577988  L 2609.835824 638.8776  L 2619.439418 583.577988  L 2629.043012 611.227794  L 2638.646607 638.8776  L 2648.250201 638.8776  L 2657.853795 638.8776  L 2667.457389 583.577988  L 2677.060984 638.8776  L 2686.664578 611.227794  L 2696.268172 583.577988  L 2705.871766 528.278376  L 2715.475361 583.577988  L 2725.078955 638.8776  L 2734.682549 611.227794  L 2744.286143 611.227794  L 2753.889738 611.227794  L 2763.493332 555.928182  L 2773.096926 583.577988  L 2782.700521 638.8776  L 2792.304115 638.8776  L 2801.907709 611.227794  L 2811.511303 583.577988  L 2821.114898 583.577988  L 2830.718492 638.8776  L 2840.322086 611.227794  L 2849.92568 611.227794  L 2859.529275 583.577988  L 2869.132869 611.227794  L 2878.736463 638.8776  L 2888.340058 611.227794  L 2897.943652 583.577988  L 2907.547246 583.577988  L 2917.15084 555.928182  L 2926.754435 583.577988  L 2936.358029 611.227794  L 2945.961623 583.577988  L 2955.565217 583.577988  L 2965.168812 555.928182  L 2974.772406 611.227794  L 2984.376 638.8776  L 2993.979594 583.577988  L 3003.583189 611.227794  L 3013.186783 583.577988  L 3022.790377 528.278376  L 3032.393972 583.577988  L 3041.997566 583.577988  L 3051.60116 583.577988  L 3061.204754 555.928182  L 3070.808349 555.928182  L 3080.411943 611.227794  L 3090.015537 638.8776  L 3099.619131 583.577988  L 3109.222726 638.8776  L 3118.82632 611.227794  L 3118.82632 334.729733  L 3118.82632 334.729733  L 3109.222726 390.029345  L 3099.619131 417.679151  L 3090.015537 472.978764  L 3080.411943 362.379539  L 3070.808349 334.729733  L 3061.204754 362.379539  L 3051.60116 472.978764  L 3041.997566 417.679151  L 3032.393972 390.029345  L 3022.790377 390.029345  L 3013.186783 362.379539  L 3003.583189 472.978764  L 2993.979594 362.379539  L 2984.376 445.328957  L 2974.772406 224.130509  L 2965.168812 362.379539  L 2955.565217 307.079927  L 2945.961623 417.679151  L 2936.358029 445.328957  L 2926.754435 417.679151  L 2917.15084 390.029345  L 2907.547246 445.328957  L 2897.943652 334.729733  L 2888.340058 472.978764  L 2878.736463 528.278376  L 2869.132869 500.62857  L 2859.529275 362.379539  L 2849.92568 390.029345  L 2840.322086 472.978764  L 2830.718492 555.928182  L 2821.114898 390.029345  L 2811.511303 445.328957  L 2801.907709 362.379539  L 2792.304115 417.679151  L 2782.700521 390.029345  L 2773.096926 472.978764  L 2763.493332 417.679151  L 2753.889738 417.679151  L 2744.286143 472.978764  L 2734.682549 445.328957  L 2725.078955 555.928182  L 2715.475361 307.079927  L 2705.871766 417.679151  L 2696.268172 417.679151  L 2686.664578 417.679151  L 2677.060984 472.978764  L 2667.457389 445.328957  L 2657.853795 168.830897  L 2648.250201 307.079927  L 2638.646607 362.379539  L 2629.043012 445.328957  L 2619.439418 445.328957  L 2609.835824 362.379539  L 2600.232229 390.029345  L 2590.628635 362.379539  L 2581.025041 445.328957  L 2571.421447 417.679151  L 2561.817852 390.029345  L 2552.214258 500.62857  L 2542.610664 528.278376  L 2533.00707 445.328957  L 2523.403475 417.679151  L 2513.799881 334.729733  L 2504.196287 472.978764  L 2494.592692 417.679151  L 2484.989098 417.679151  L 2475.385504 362.379539  L 2465.78191 307.079927  L 2456.178315 334.729733  L 2446.574721 390.029345  L 2436.971127 390.029345  L 2427.367533 390.029345  L 2417.763938 390.029345  L 2408.160344 445.328957  L 2398.55675 445.328957  L 2388.953156 417.679151  L 2379.349561 417.679151  L 2369.745967 417.679151  L 2360.142373 417.679151  L 2350.538778 334.729733  L 2340.935184 417.679151  L 2331.33159 362.379539  L 2321.727996 334.729733  L 2312.124401 390.029345  L 2302.520807 417.679151  L 2292.917213 472.978764  L 2283.313619 417.679151  L 2273.710024 362.379539  L 2264.10643 445.328957  L 2254.502836 390.029345  L 2244.899241 445.328957  L 2235.295647 583.577988  L 2225.692053 555.928182  L 2216.088459 362.379539  L 2206.484864 362.379539  L 2196.88127 390.029345  L 2187.277676 472.978764  L 2177.674082 445.328957  L 2168.070487 390.029345  L 2158.466893 445.328957  L 2148.863299 417.679151  L 2139.259705 390.029345  L 2129.65611 307.079927  L 2120.052516 500.62857  L 2110.448922 390.029345  L 2100.845327 390.029345  L 2091.241733 390.029345  L 2081.638139 390.029345  L 2072.034545 362.379539  L 2062.43095 334.729733  L 2052.827356 445.328957  L 2043.223762 417.679151  L 2033.620168 390.029345  L 2024.016573 445.328957  L 2014.412979 390.029345  L 2004.809385 417.679151  L 1995.20579 500.62857  L 1985.602196 417.679151  L 1975.998602 334.729733  L 1966.395008 472.978764  L 1956.791413 390.029345  L 1947.187819 417.679151  L 1937.584225 417.679151  L 1927.980631 390.029345  L 1918.377036 390.029345  L 1908.773442 417.679151  L 1899.169848 500.62857  L 1889.566254 390.029345  L 1879.962659 390.029345  L 1870.359065 445.328957  L 1860.755471 445.328957  L 1851.151876 390.029345  L 1841.548282 279.430121  L 1831.944688 334.729733  L 1822.341094 472.978764  L 1812.737499 362.379539  L 1803.133905 472.978764  L 1793.530311 334.729733  L 1783.926717 445.328957  L 1774.323122 417.679151  L 1764.719528 417.679151  L 1755.115934 362.379539  L 1745.512339 417.679151  L 1735.908745 417.679151  L 1726.305151 307.079927  L 1716.701557 390.029345  L 1707.097962 334.729733  L 1697.494368 445.328957  L 1687.890774 390.029345  L 1678.28718 472.978764  L 1668.683585 390.029345  L 1659.079991 334.729733  L 1649.476397 390.029345  L 1639.872802 445.328957  L 1630.269208 445.328957  L 1620.665614 390.029345  L 1611.06202 362.379539  L 1601.458425 362.379539  L 1591.854831 362.379539  L 1582.251237 334.729733  L 1572.647643 362.379539  L 1563.044048 445.328957  L 1553.440454 417.679151  L 1543.83686 390.029345  L 1534.233266 390.029345  L 1524.629671 334.729733  L 1515.026077 362.379539  L 1505.422483 390.029345  L 1495.818888 279.430121  L 1486.215294 417.679151  L 1476.6117 362.379539  L 1467.008106 334.729733  L 1457.404511 417.679151  L 1447.800917 390.029345  L 1438.197323 390.029345  L 1428.593729 417.679151  L 1418.990134 362.379539  L 1409.38654 417.679151  L 1399.782946 417.679151  L 1390.179351 417.679151  L 1380.575757 417.679151  L 1370.972163 390.029345  L 1361.368569 362.379539  L 1351.764974 417.679151  L 1342.16138 390.029345  L 1332.557786 334.729733  L 1322.954192 417.679151  L 1313.350597 417.679151  L 1303.747003 307.079927  L 1294.143409 445.328957  L 1284.539815 279.430121  L 1274.93622 445.328957  L 1265.332626 445.328957  L 1255.729032 472.978764  L 1246.125437 362.379539  L 1236.521843 362.379539  L 1226.918249 445.328957  L 1217.314655 307.079927  L 1207.71106 362.379539  L 1198.107466 390.029345  L 1188.503872 390.029345  L 1178.900278 362.379539  L 1169.296683 307.079927  L 1159.693089 390.029345  L 1150.089495 417.679151  L 1140.4859 445.328957  L 1130.882306 417.679151  L 1121.278712 390.029345  L 1111.675118 307.079927  L 1102.071523 390.029345  L 1092.467929 417.679151  L 1082.864335 417.679151  L 1073.260741 279.430121  L 1063.657146 417.679151  L 1054.053552 500.62857  L 1044.449958 417.679151  L 1034.846364 417.679151  L 1025.242769 417.679151  L 1015.639175 417.679151  L 1006.035581 417.679151  L 996.431986 417.679151  L 986.828392 417.679151  L 977.224798 -135.31697  L 967.621204 -80.017358  L 958.017609 196.480703  L 948.414015 168.830897  L 938.810421 251.780315  L 929.206827 390.029345  L 919.603232 417.679151  L 909.999638 390.029345  L 900.396044 445.328957  L 890.792449 334.729733  L 881.188855 279.430121  L 871.585261 390.029345  L 861.981667 362.379539  L 852.378072 390.029345  L 842.774478 362.379539  L 833.170884 445.328957  L 823.56729 417.679151  L 813.963695 390.029345  L 804.360101 417.679151  L 794.756507 362.379539  L 785.152913 445.328957  L 775.549318 362.379539  L 765.945724 307.079927  L 756.34213 390.029345  L 746.738535 390.029345  L 737.134941 362.379539  L 727.531347 251.780315  L 717.927753 472.978764  L 708.324158 445.328957  L 698.720564 417.679151  L 689.11697 362.379539  L 679.513376 334.729733  L 669.909781 445.328957  L 660.306187 390.029345  L 650.702593 472.978764  L 641.098998 472.978764  L 631.495404 390.029345  L 621.89181 334.729733  L 612.288216 141.181091  L 602.684621 472.978764  L 593.081027 417.679151  L 583.477433 334.729733  L 573.873839 251.780315  L 564.270244 390.029345  L 554.66665 417.679151  L 545.063056 334.729733  L 535.459462 390.029345  L 525.855867 445.328957  L 516.252273 445.328957  L 506.648679 390.029345  L 497.045084 445.328957  L 487.44149 445.328957  L 477.837896 334.729733  L 468.234302 362.379539  L 458.630707 417.679151  L 449.027113 334.729733  L 439.423519 417.679151  L 429.819925 417.679151  L 420.21633 417.679151  L 410.612736 417.679151  L 401.009142 334.729733  L 391.405547 362.379539  L 381.801953 362.379539  L 372.198359 390.029345  L 362.594765 307.079927  L 352.99117 390.029345  L 343.387576 417.679151  L 333.783982 362.379539  L 324.180388 390.029345  L 314.576793 417.679151  L 304.973199 362.379539  L 295.369605 445.328957  L 285.766011 362.379539  L 276.162416 445.328957  L 266.558822 362.379539  L 256.955228 472.978764  L 247.351633 251.780315  L 237.748039 390.029345  L 228.144445 417.679151  L 218.540851 417.679151  L 208.937256 472.978764  L 199.333662 445.328957  L 189.730068 362.379539  L 180.126474 307.079927  L 170.522879 279.430121  L 160.919285 445.328957  L 151.315691 417.679151  L 141.712096 362.379539  L 132.108502 445.328957  L 122.504908 445.328957  L 112.901314 334.729733  L 103.297719 472.978764  L 93.694125 417.679151  L 84.090531 390.029345  L 74.486937 390.029345  L 64.883342 417.679151  L 55.279748 307.079927  L 45.676154 417.679151  L 36.07256 390.029345  L 26.468965 362.379539  L 16.865371 390.029345  L 7.261777 417.679151  L -2.341818 390.029345  L -11.945412 417.679151  L -21.549006 472.978764  L -31.1526 445.328957  L -40.756195 472.978764  L -50.359789 362.379539  L -59.963383 362.379539  L -69.566977 307.079927  L -79.170572 334.729733  L -88.774166 417.679151  L -98.37776 334.729733  L -107.981355 445.328957  L -117.584949 390.029345  L -127.188543 362.379539  L -136.792137 390.029345  L -146.395732 417.679151  L -155.999326 362.379539  L -165.60292 390.029345  L -175.206514 334.729733  L -184.810109 390.029345  L -194.413703 445.328957  L -204.017297 417.679151  L -213.620891 390.029345  L -223.224486 472.978764  L -232.82808 417.679151  L -242.431674 390.029345  L -252.035269 472.978764  L -261.638863 472.978764  L -271.242457 417.679151  L -280.846051 445.328957  L -290.449646 362.379539  L -300.05324 445.328957  L -309.656834 307.079927  L -319.260428 390.029345  L -328.864023 445.328957  L -338.467617 390.029345  L -348.071211 362.379539  L -357.674806 390.029345  L -367.2784 362.379539  L -376.881994 417.679151  L -386.485588 334.729733  L -396.089183 472.978764  L -405.692777 445.328957  L -415.296371 307.079927  L -424.899965 500.62857  L -434.50356 390.029345  L -444.107154 445.328957  L -453.710748 417.679151  L -463.314342 417.679151  L -472.917937 334.729733  L -482.521531 362.379539  L -492.125125 417.679151  L -501.72872 417.679151  L -511.332314 390.029345  L -520.935908 445.328957  L -530.539502 362.379539  L -540.143097 472.978764  L -549.746691 362.379539  L -559.350285 445.328957  L -568.953879 390.029345  L -578.557474 445.328957  L -588.161068 472.978764  L -597.764662 472.978764  L -607.368257 555.928182  L -616.971851 390.029345  L -626.575445 390.029345  L -636.179039 445.328957  L -645.782634 555.928182  L -655.386228 500.62857  z "
           clip-path="url(#p8211b9858a)"
           style="fill: #d3d3d3"
           id="path3" />
      </g>
      <g
         id="matplotlib.axis_1">
        <g
           id="xtick_1">
          <g
             id="line2d_1">
            <defs
               id="defs3">
              <path
                 id="m2bcd14cf03"
                 d="M 0 0  L 0 3.5  "
                 style="stroke: #000000; stroke-width: 0.8" />
            </defs>
            <g
               id="g3">
              <use
                 xlink:href="#m2bcd14cf03"
                 x="304.973199"
                 y="638.8776"
                 style="stroke: #000000; stroke-width: 0.8"
                 id="use3" />
            </g>
          </g>
          <g
             id="text_1">
            <text
               style="font: 35px 'DejaVu Sans', 'Bitstream Vera Sans', 'Computer Modern Sans Serif', 'Lucida Grande', 'Verdana', 'Geneva', 'Lucid', 'Arial', 'Helvetica', 'Avant Garde', sans-serif; text-anchor: middle"
               x="304.973199"
               y="672.472131"
               transform="rotate(-0 304.973199 672.472131)"
               id="text3">100</text>
          </g>
        </g>
        <g
           id="xtick_2">
          <g
             id="line2d_2">
            <g
               id="g4">
              <use
                 xlink:href="#m2bcd14cf03"
                 x="497.045084"
                 y="638.8776"
                 style="stroke: #000000; stroke-width: 0.8"
                 id="use4" />
            </g>
          </g>
          <g
             id="text_2">
            <text
               style="font: 35px 'DejaVu Sans', 'Bitstream Vera Sans', 'Computer Modern Sans Serif', 'Lucida Grande', 'Verdana', 'Geneva', 'Lucid', 'Arial', 'Helvetica', 'Avant Garde', sans-serif; text-anchor: middle"
               x="497.045084"
               y="672.472131"
               transform="rotate(-0 497.045084 672.472131)"
               id="text4">120</text>
          </g>
        </g>
        <g
           id="xtick_3">
          <g
             id="line2d_3">
            <g
               id="g5">
              <use
                 xlink:href="#m2bcd14cf03"
                 x="689.11697"
                 y="638.8776"
                 style="stroke: #000000; stroke-width: 0.8"
                 id="use5" />
            </g>
          </g>
          <g
             id="text_3">
            <text
               style="font: 35px 'DejaVu Sans', 'Bitstream Vera Sans', 'Computer Modern Sans Serif', 'Lucida Grande', 'Verdana', 'Geneva', 'Lucid', 'Arial', 'Helvetica', 'Avant Garde', sans-serif; text-anchor: middle"
               x="689.11697"
               y="672.472131"
               transform="rotate(-0 689.11697 672.472131)"
               id="text5">140</text>
          </g>
        </g>
        <g
           id="xtick_4">
          <g
             id="line2d_4">
            <g
               id="g6">
              <use
                 xlink:href="#m2bcd14cf03"
                 x="881.188855"
                 y="638.8776"
                 style="stroke: #000000; stroke-width: 0.8"
                 id="use6" />
            </g>
          </g>
          <g
             id="text_4">
            <text
               style="font: 35px 'DejaVu Sans', 'Bitstream Vera Sans', 'Computer Modern Sans Serif', 'Lucida Grande', 'Verdana', 'Geneva', 'Lucid', 'Arial', 'Helvetica', 'Avant Garde', sans-serif; text-anchor: middle"
               x="881.188855"
               y="672.472131"
               transform="rotate(-0 881.188855 672.472131)"
               id="text6">160</text>
          </g>
        </g>
        <g
           id="xtick_5">
          <g
             id="line2d_5">
            <g
               id="g7">
              <use
                 xlink:href="#m2bcd14cf03"
                 x="1073.260741"
                 y="638.8776"
                 style="stroke: #000000; stroke-width: 0.8"
                 id="use7" />
            </g>
          </g>
          <g
             id="text_5">
            <text
               style="font: 35px 'DejaVu Sans', 'Bitstream Vera Sans', 'Computer Modern Sans Serif', 'Lucida Grande', 'Verdana', 'Geneva', 'Lucid', 'Arial', 'Helvetica', 'Avant Garde', sans-serif; text-anchor: middle"
               x="1073.260741"
               y="672.472131"
               transform="rotate(-0 1073.260741 672.472131)"
               id="text7">180</text>
          </g>
        </g>
        <g
           id="text_6">
          <text
             style="font: 35px 'DejaVu Sans', 'Bitstream Vera Sans', 'Computer Modern Sans Serif', 'Lucida Grande', 'Verdana', 'Geneva', 'Lucid', 'Arial', 'Helvetica', 'Avant Garde', sans-serif; text-anchor: middle"
             x="704.79"
             y="710.345569"
             transform="rotate(-0 704.79 710.345569)"
             id="text8">window index with $w=10000$</text>
        </g>
      </g>
      <g
         id="matplotlib.axis_2">
        <g
           id="ytick_1">
          <g
             id="line2d_6">
            <defs
               id="defs8">
              <path
                 id="m1de97b0c99"
                 d="M 0 0  L -3.5 0  "
                 style="stroke: #000000; stroke-width: 0.8" />
            </defs>
            <g
               id="g8">
              <use
                 xlink:href="#m1de97b0c99"
                 x="171.9"
                 y="638.8776"
                 style="stroke: #000000; stroke-width: 0.8"
                 id="use8" />
            </g>
          </g>
          <g
             id="text_7">
            <text
               style="font: 35px 'DejaVu Sans', 'Bitstream Vera Sans', 'Computer Modern Sans Serif', 'Lucida Grande', 'Verdana', 'Geneva', 'Lucid', 'Arial', 'Helvetica', 'Avant Garde', sans-serif; text-anchor: end"
               x="164.9"
               y="652.174866"
               transform="rotate(-0 164.9 652.174866)"
               id="text9">0</text>
          </g>
        </g>
        <g
           id="ytick_2">
          <g
             id="line2d_7">
            <g
               id="g9">
              <use
                 xlink:href="#m1de97b0c99"
                 x="171.9"
                 y="500.62857"
                 style="stroke: #000000; stroke-width: 0.8"
                 id="use9" />
            </g>
          </g>
          <g
             id="text_8">
            <text
               style="font: 35px 'DejaVu Sans', 'Bitstream Vera Sans', 'Computer Modern Sans Serif', 'Lucida Grande', 'Verdana', 'Geneva', 'Lucid', 'Arial', 'Helvetica', 'Avant Garde', sans-serif; text-anchor: end"
               x="164.9"
               y="513.925835"
               transform="rotate(-0 164.9 513.925835)"
               id="text10">5</text>
          </g>
        </g>
        <g
           id="ytick_3">
          <g
             id="line2d_8">
            <g
               id="g10">
              <use
                 xlink:href="#m1de97b0c99"
                 x="171.9"
                 y="362.379539"
                 style="stroke: #000000; stroke-width: 0.8"
                 id="use10" />
            </g>
          </g>
          <g
             id="text_9">
            <text
               style="font: 35px 'DejaVu Sans', 'Bitstream Vera Sans', 'Computer Modern Sans Serif', 'Lucida Grande', 'Verdana', 'Geneva', 'Lucid', 'Arial', 'Helvetica', 'Avant Garde', sans-serif; text-anchor: end"
               x="164.9"
               y="375.676805"
               transform="rotate(-0 164.9 375.676805)"
               id="text11">10</text>
          </g>
        </g>
        <g
           id="ytick_4">
          <g
             id="line2d_9">
            <g
               id="g11">
              <use
                 xlink:href="#m1de97b0c99"
                 x="171.9"
                 y="224.130509"
                 style="stroke: #000000; stroke-width: 0.8"
                 id="use11" />
            </g>
          </g>
          <g
             id="text_10">
            <text
               style="font: 35px 'DejaVu Sans', 'Bitstream Vera Sans', 'Computer Modern Sans Serif', 'Lucida Grande', 'Verdana', 'Geneva', 'Lucid', 'Arial', 'Helvetica', 'Avant Garde', sans-serif; text-anchor: end"
               x="164.9"
               y="237.427774"
               transform="rotate(-0 164.9 237.427774)"
               id="text12">15</text>
          </g>
        </g>
        <g
           id="text_11">
          <text
             style="font: 35px 'DejaVu Sans', 'Bitstream Vera Sans', 'Computer Modern Sans Serif', 'Lucida Grande', 'Verdana', 'Geneva', 'Lucid', 'Arial', 'Helvetica', 'Avant Garde', sans-serif; text-anchor: middle"
             x="109.083594"
             y="362.5092"
             transform="rotate(-90 109.083594 362.5092)"
             id="text13">hashes in window</text>
        </g>
      </g>
      <g
         id="line2d_10">
        <path
           d="M -1 498.482325  L 7.261777 485.267566  L 16.865371 494.484168  L 26.468965 472.978764  L 36.07256 482.195366  L 45.676154 494.484168  L 55.279748 460.689961  L 64.883342 534.422777  L 74.486937 506.772971  L 84.090531 491.411968  L 93.694125 494.484168  L 103.297719 500.62857  L 112.901314 515.989573  L 122.504908 503.70077  L 132.108502 519.061774  L 141.712096 500.62857  L 151.315691 472.978764  L 160.919285 522.133974  L 170.522879 466.834362  L 180.126474 479.123165  L 189.730068 469.906563  L 199.333662 500.62857  L 208.937256 540.567178  L 218.540851 506.772971  L 228.144445 509.845172  L 237.748039 466.834362  L 247.351633 469.906563  L 256.955228 534.422777  L 266.558822 476.050964  L 276.162416 500.62857  L 285.766011 500.62857  L 295.369605 543.639379  L 304.973199 528.278376  L 314.576793 491.411968  L 324.180388 506.772971  L 333.783982 497.556369  L 343.387576 515.989573  L 352.99117 509.845172  L 362.594765 497.556369  L 372.198359 497.556369  L 381.801953 506.772971  L 391.405547 506.772971  L 401.009142 488.339767  L 410.612736 515.989573  L 420.21633 534.422777  L 429.819925 512.917372  L 439.423519 506.772971  L 449.027113 506.772971  L 458.630707 485.267566  L 468.234302 497.556369  L 477.837896 469.906563  L 487.44149 512.917372  L 497.045084 531.350576  L 506.648679 457.61776  L 516.252273 506.772971  L 525.855867 531.350576  L 535.459462 546.71158  L 545.063056 445.328957  L 554.66665 479.123165  L 564.270244 503.70077  L 573.873839 429.967954  L 583.477433 491.411968  L 593.081027 491.411968  L 602.684621 512.917372  L 612.288216 469.906563  L 621.89181 488.339767  L 631.495404 491.411968  L 641.098998 525.206175  L 650.702593 512.917372  L 660.306187 491.411968  L 669.909781 506.772971  L 679.513376 463.762161  L 689.11697 528.278376  L 698.720564 522.133974  L 708.324158 494.484168  L 717.927753 537.494978  L 727.531347 497.556369  L 737.134941 485.267566  L 746.738535 497.556369  L 756.34213 497.556369  L 765.945724 479.123165  L 775.549318 500.62857  L 785.152913 519.061774  L 794.756507 525.206175  L 804.360101 500.62857  L 813.963695 488.339767  L 823.56729 491.411968  L 833.170884 488.339767  L 842.774478 494.484168  L 852.378072 488.339767  L 861.981667 469.906563  L 871.585261 509.845172  L 881.188855 512.917372  L 890.792449 476.050964  L 900.396044 509.845172  L 909.999638 491.411968  L 919.603232 497.556369  L 929.206827 497.556369  L 938.810421 482.195366  L 948.414015 494.484168  L 958.017609 515.989573  L 967.621204 494.484168  L 977.224798 488.339767  L 986.828392 497.556369  L 996.431986 515.989573  L 1015.639175 509.845172  L 1025.242769 491.411968  L 1034.846364 515.989573  L 1044.449958 515.989573  L 1054.053552 583.577988  L 1063.657146 525.206175  L 1073.260741 479.123165  L 1082.864335 515.989573  L 1092.467929 515.989573  L 1102.071523 528.278376  L 1111.675118 488.339767  L 1121.278712 476.050964  L 1130.882306 512.917372  L 1140.4859 522.133974  L 1150.089495 509.845172  L 1159.693089 509.845172  L 1169.296683 448.401158  L 1178.900278 482.195366  L 1188.503872 491.411968  L 1198.107466 479.123165  L 1207.71106 485.267566  L 1217.314655 463.762161  L 1226.918249 497.556369  L 1236.521843 497.556369  L 1246.125437 488.339767  L 1255.729032 515.989573  L 1265.332626 479.123165  L 1274.93622 503.70077  L 1284.539815 497.556369  L 1294.143409 509.845172  L 1303.747003 491.411968  L 1313.350597 500.62857  L 1322.954192 506.772971  L 1332.557786 482.195366  L 1342.16138 497.556369  L 1351.764974 506.772971  L 1361.368569 509.845172  L 1370.972163 500.62857  L 1376.2 505.645743  L 1376.2 505.645743  "
           clip-path="url(#p8211b9858a)"
           style="fill: none; stroke: #a9a9a9; stroke-width: 1.5; stroke-linecap: square"
           id="path13" />
      </g>
      <g
         id="line2d_11">
        <path
           d="M -1 496.765329  L 7.261777 472.978764  L 16.865371 500.62857  L 26.468965 472.978764  L 36.07256 500.62857  L 45.676154 472.978764  L 55.279748 500.62857  L 64.883342 555.928182  L 74.486937 528.278376  L 84.090531 528.278376  L 103.297719 472.978764  L 112.901314 528.278376  L 132.108502 528.278376  L 151.315691 472.978764  L 160.919285 528.278376  L 170.522879 500.62857  L 180.126474 500.62857  L 189.730068 472.978764  L 208.937256 528.278376  L 218.540851 528.278376  L 247.351633 445.328957  L 256.955228 555.928182  L 266.558822 500.62857  L 276.162416 500.62857  L 295.369605 555.928182  L 314.576793 500.62857  L 324.180388 528.278376  L 333.783982 500.62857  L 343.387576 528.278376  L 352.99117 528.278376  L 362.594765 555.928182  L 372.198359 500.62857  L 391.405547 555.928182  L 401.009142 528.278376  L 410.612736 472.978764  L 420.21633 528.278376  L 429.819925 528.278376  L 439.423519 500.62857  L 449.027113 528.278376  L 458.630707 472.978764  L 468.234302 500.62857  L 477.837896 472.978764  L 497.045084 528.278376  L 506.648679 445.328957  L 516.252273 500.62857  L 525.855867 528.278376  L 535.459462 528.278376  L 545.063056 445.328957  L 564.270244 500.62857  L 573.873839 472.978764  L 583.477433 500.62857  L 621.89181 500.62857  L 631.495404 472.978764  L 641.098998 528.278376  L 660.306187 472.978764  L 669.909781 500.62857  L 679.513376 472.978764  L 689.11697 555.928182  L 698.720564 528.278376  L 708.324158 472.978764  L 717.927753 528.278376  L 727.531347 528.278376  L 737.134941 472.978764  L 746.738535 500.62857  L 756.34213 500.62857  L 765.945724 528.278376  L 775.549318 528.278376  L 785.152913 500.62857  L 794.756507 555.928182  L 804.360101 472.978764  L 813.963695 472.978764  L 823.56729 500.62857  L 842.774478 500.62857  L 852.378072 472.978764  L 861.981667 472.978764  L 871.585261 528.278376  L 881.188855 528.278376  L 890.792449 472.978764  L 900.396044 500.62857  L 929.206827 500.62857  L 938.810421 528.278376  L 948.414015 611.227794  L 958.017609 638.8776  L 967.621204 611.227794  L 977.224798 611.227794  L 986.828392 500.62857  L 996.431986 528.278376  L 1006.035581 500.62857  L 1015.639175 500.62857  L 1025.242769 528.278376  L 1034.846364 500.62857  L 1044.449958 500.62857  L 1054.053552 583.577988  L 1063.657146 528.278376  L 1073.260741 500.62857  L 1082.864335 500.62857  L 1092.467929 528.278376  L 1111.675118 528.278376  L 1121.278712 472.978764  L 1130.882306 528.278376  L 1140.4859 528.278376  L 1150.089495 555.928182  L 1159.693089 528.278376  L 1169.296683 472.978764  L 1178.900278 472.978764  L 1188.503872 500.62857  L 1198.107466 472.978764  L 1207.71106 500.62857  L 1217.314655 472.978764  L 1226.918249 472.978764  L 1236.521843 500.62857  L 1246.125437 500.62857  L 1255.729032 528.278376  L 1265.332626 445.328957  L 1274.93622 500.62857  L 1284.539815 500.62857  L 1294.143409 528.278376  L 1313.350597 528.278376  L 1332.557786 472.978764  L 1342.16138 500.62857  L 1351.764974 500.62857  L 1361.368569 528.278376  L 1370.972163 500.62857  L 1376.2 515.680088  L 1376.2 515.680088  "
           clip-path="url(#p8211b9858a)"
           style="fill: none; stroke: #000000; stroke-width: 1.5; stroke-linecap: square"
           id="path14" />
      </g>
      <g
         id="patch_3">
        <path
           d="M 171.9 638.8776  L 171.9 86.1408  "
           style="fill: none; stroke: #000000; stroke-width: 0.8; stroke-linejoin: miter; stroke-linecap: square"
           id="path15" />
      </g>
      <g
         id="patch_4">
        <path
           d="M 1237.68 638.8776  L 1237.68 86.1408  "
           style="fill: none; stroke: #000000; stroke-width: 0.8; stroke-linejoin: miter; stroke-linecap: square"
           id="path16" />
      </g>
      <g
         id="patch_5">
        <path
           d="M 171.9 638.8776  L 1237.68 638.8776  "
           style="fill: none; stroke: #000000; stroke-width: 0.8; stroke-linejoin: miter; stroke-linecap: square"
           id="path17" />
      </g>
      <g
         id="patch_6">
        <path
           d="M 171.9 86.1408  L 1237.68 86.1408  "
           style="fill: none; stroke: #000000; stroke-width: 0.8; stroke-linejoin: miter; stroke-linecap: square"
           id="path18" />
      </g>
    </g>
    <g
       id="axes_2">
      <g
         id="matplotlib.axis_3">
        <g
           id="ytick_5">
          <g
             id="line2d_12">
            <defs
               id="defs18">
              <path
                 id="mce93860792"
                 d="M 0 0  L 3.5 0  "
                 style="stroke: #000000; stroke-width: 0.8" />
            </defs>
            <g
               id="g18">
              <use
                 xlink:href="#mce93860792"
                 x="1237.68"
                 y="638.8776"
                 style="stroke: #000000; stroke-width: 0.8"
                 id="use18" />
            </g>
          </g>
          <g
             id="text_12">
            <text
               style="font: 35px 'DejaVu Sans', 'Bitstream Vera Sans', 'Computer Modern Sans Serif', 'Lucida Grande', 'Verdana', 'Geneva', 'Lucid', 'Arial', 'Helvetica', 'Avant Garde', sans-serif; text-anchor: start"
               x="1244.68"
               y="652.174866"
               transform="rotate(-0 1244.68 652.174866)"
               id="text18">0.0</text>
          </g>
        </g>
        <g
           id="ytick_6">
          <g
             id="line2d_13">
            <g
               id="g19">
              <use
                 xlink:href="#mce93860792"
                 x="1237.68"
                 y="538.332851"
                 style="stroke: #000000; stroke-width: 0.8"
                 id="use19" />
            </g>
          </g>
          <g
             id="text_13">
            <text
               style="font: 35px 'DejaVu Sans', 'Bitstream Vera Sans', 'Computer Modern Sans Serif', 'Lucida Grande', 'Verdana', 'Geneva', 'Lucid', 'Arial', 'Helvetica', 'Avant Garde', sans-serif; text-anchor: start"
               x="1244.68"
               y="551.630116"
               transform="rotate(-0 1244.68 551.630116)"
               id="text19">0.2</text>
          </g>
        </g>
        <g
           id="ytick_7">
          <g
             id="line2d_14">
            <g
               id="g20">
              <use
                 xlink:href="#mce93860792"
                 x="1237.68"
                 y="437.788101"
                 style="stroke: #000000; stroke-width: 0.8"
                 id="use20" />
            </g>
          </g>
          <g
             id="text_14">
            <text
               style="font: 35px 'DejaVu Sans', 'Bitstream Vera Sans', 'Computer Modern Sans Serif', 'Lucida Grande', 'Verdana', 'Geneva', 'Lucid', 'Arial', 'Helvetica', 'Avant Garde', sans-serif; text-anchor: start"
               x="1244.68"
               y="451.085367"
               transform="rotate(-0 1244.68 451.085367)"
               id="text20">0.4</text>
          </g>
        </g>
        <g
           id="ytick_8">
          <g
             id="line2d_15">
            <g
               id="g21">
              <use
                 xlink:href="#mce93860792"
                 x="1237.68"
                 y="337.243352"
                 style="stroke: #000000; stroke-width: 0.8"
                 id="use21" />
            </g>
          </g>
          <g
             id="text_15">
            <text
               style="font: 35px 'DejaVu Sans', 'Bitstream Vera Sans', 'Computer Modern Sans Serif', 'Lucida Grande', 'Verdana', 'Geneva', 'Lucid', 'Arial', 'Helvetica', 'Avant Garde', sans-serif; text-anchor: start"
               x="1244.68"
               y="350.540617"
               transform="rotate(-0 1244.68 350.540617)"
               id="text21">0.6</text>
          </g>
        </g>
        <g
           id="ytick_9">
          <g
             id="line2d_16">
            <g
               id="g22">
              <use
                 xlink:href="#mce93860792"
                 x="1237.68"
                 y="236.698602"
                 style="stroke: #000000; stroke-width: 0.8"
                 id="use22" />
            </g>
          </g>
          <g
             id="text_16">
            <text
               style="font: 35px 'DejaVu Sans', 'Bitstream Vera Sans', 'Computer Modern Sans Serif', 'Lucida Grande', 'Verdana', 'Geneva', 'Lucid', 'Arial', 'Helvetica', 'Avant Garde', sans-serif; text-anchor: start"
               x="1244.68"
               y="249.995868"
               transform="rotate(-0 1244.68 249.995868)"
               id="text22">0.8</text>
          </g>
        </g>
        <g
           id="ytick_10">
          <g
             id="line2d_17">
            <g
               id="g23">
              <use
                 xlink:href="#mce93860792"
                 x="1237.68"
                 y="136.153853"
                 style="stroke: #000000; stroke-width: 0.8"
                 id="use23" />
            </g>
          </g>
          <g
             id="text_17">
            <text
               style="font: 35px 'DejaVu Sans', 'Bitstream Vera Sans', 'Computer Modern Sans Serif', 'Lucida Grande', 'Verdana', 'Geneva', 'Lucid', 'Arial', 'Helvetica', 'Avant Garde', sans-serif; text-anchor: start"
               x="1244.68"
               y="149.451119"
               transform="rotate(-0 1244.68 149.451119)"
               id="text23">1.0</text>
          </g>
        </g>
        <g
           id="text_18">
          <text
             style="font: 35px 'DejaVu Sans', 'Bitstream Vera Sans', 'Computer Modern Sans Serif', 'Lucida Grande', 'Verdana', 'Geneva', 'Lucid', 'Arial', 'Helvetica', 'Avant Garde', sans-serif; text-anchor: middle"
             x="1330.935469"
             y="362.5092"
             transform="rotate(-90 1330.935469 362.5092)"
             id="text24">$C_m$</text>
        </g>
      </g>
      <g
         id="line2d_18">
        <path
           d="M -1 178.00165  L 7.261777 140.678367  L 16.865371 134.39432  L 26.468965 134.947316  L 36.07256 148.068406  L 45.676154 145.253153  L 55.279748 379.220785  L 59.557881 718.84  M 68.90749 718.84  L 74.486937 132.685059  L 84.090531 134.39432  L 93.694125 209.702337  L 103.297719 134.39432  L 112.901314 220.56117  L 122.504908 144.096888  L 132.108502 270.783273  L 141.712096 223.426696  L 151.315691 172.651597  L 160.919285 143.543892  L 170.522879 386.661096  L 180.126474 293.053934  L 189.730068 142.387628  L 199.333662 330.154947  L 203.93381 718.84  M 222.611036 718.84  L 228.144445 144.096888  L 233.677853 718.84  M 242.497547 718.84  L 247.351633 286.769888  L 252.20572 718.84  M 261.551211 718.84  L 266.558822 258.215179  L 276.162416 435.123665  L 285.766011 504.750904  L 295.369605 415.718529  L 304.973199 524.759309  L 307.994835 718.84  M 329.96015 718.84  L 333.783982 439.145455  L 343.387576 586.393241  L 352.99117 586.393241  L 362.594765 552.71075  L 372.198359 515.609737  L 381.801953 535.56787  L 384.706201 718.84  M 407.837061 718.84  L 410.612736 546.979699  L 420.21633 521.893784  L 423.268401 718.84  M 433.862403 718.84  L 439.423519 137.259845  L 449.027113 142.387628  L 454.567484 718.84  M 472.601866 718.84  L 477.837896 212.014866  L 483.073926 718.84  M 491.849581 718.84  L 497.045084 220.56117  L 506.648679 275.911055  L 516.252273 152.643192  L 525.855867 261.080704  L 535.459462 263.393233  L 545.063056 305.01876  L 554.66665 378.667789  L 564.270244 166.36755  L 573.873839 258.215179  L 583.477433 141.834631  L 593.081027 141.231363  L 602.684621 424.868101  L 612.288216 165.764282  L 621.89181 183.460158  L 631.495404 274.805062  L 641.098998 249.115879  L 650.702593 138.365838  L 660.306187 162.34576  L 669.909781 146.962414  L 679.513376 421.449579  L 689.11697 140.678367  L 698.720564 142.387628  L 708.324158 277.620315  L 717.927753 265.102494  L 727.531347 140.075098  L 737.134941 138.365838  L 746.738535 166.36755  L 756.34213 396.363664  L 765.945724 345.538294  L 775.549318 145.253153  L 785.152913 216.589653  L 794.756507 135.550585  L 804.360101 137.259845  L 813.963695 140.678367  L 823.56729 142.387628  L 833.170884 380.930045  L 842.774478 476.799464  L 852.378072 226.845217  L 861.981667 156.061713  L 871.585261 402.597439  L 881.188855 132.132063  L 890.792449 138.365838  L 900.396044 176.623115  L 909.999638 221.717435  L 919.603232 138.969106  L 929.206827 189.191208  L 938.810421 434.570669  L 948.414015 582.371451  L 958.017609 582.371451  L 967.621204 569.250361  L 977.224798 574.378143  L 986.828392 475.643199  L 996.431986 350.666076  L 1006.035581 164.65829  L 1015.639175 134.39432  L 1025.242769 134.947316  L 1034.846364 197.184516  L 1044.449958 235.391521  L 1049.573322 718.84  M 1069.849496 718.84  L 1073.260741 485.949036  L 1082.864335 210.305606  L 1092.467929 200.603037  L 1102.071523 156.664982  L 1111.675118 246.80335  L 1121.278712 140.678367  L 1130.882306 134.39432  L 1140.4859 462.52211  L 1150.089495 141.231363  L 1155.634562 718.84  M 1174.23738 718.84  L 1178.900278 319.84911  L 1188.503872 133.841324  L 1198.107466 136.656577  L 1207.71106 136.656577  L 1217.314655 146.962414  L 1226.918249 168.076811  L 1236.521843 153.799457  L 1246.125437 163.502025  L 1255.729032 136.103581  L 1265.332626 150.933931  L 1274.93622 347.850823  L 1284.539815 168.076811  L 1294.143409 136.656577  L 1303.747003 135.550585  L 1313.350597 191.453465  L 1322.954192 374.093003  L 1332.557786 165.211286  L 1342.16138 185.169418  L 1351.764974 157.217978  L 1361.368569 176.070119  L 1370.972163 246.250354  L 1376.041191 718.84  L 1376.041191 718.84  "
           clip-path="url(#p8211b9858a)"
           style="fill: none; stroke: #228b22; stroke-width: 1.5; stroke-linecap: square"
           id="path24" />
      </g>
      <g
         id="patch_7">
        <path
           d="M 171.9 638.8776  L 171.9 86.1408  "
           style="fill: none; stroke: #000000; stroke-width: 0.8; stroke-linejoin: miter; stroke-linecap: square"
           id="path25" />
      </g>
      <g
         id="patch_8">
        <path
           d="M 1237.68 638.8776  L 1237.68 86.1408  "
           style="fill: none; stroke: #000000; stroke-width: 0.8; stroke-linejoin: miter; stroke-linecap: square"
           id="path26" />
      </g>
      <g
         id="patch_9">
        <path
           d="M 171.9 638.8776  L 1237.68 638.8776  "
           style="fill: none; stroke: #000000; stroke-width: 0.8; stroke-linejoin: miter; stroke-linecap: square"
           id="path27" />
      </g>
      <g
         id="patch_10">
        <path
           d="M 171.9 86.1408  L 1237.68 86.1408  "
           style="fill: none; stroke: #000000; stroke-width: 0.8; stroke-linejoin: miter; stroke-linecap: square"
           id="path28" />
      </g>
      <g
         id="legend_1">
        <g
           id="patch_11">
          <path
             d="M 480.672422 320.607988  L 928.907578 320.607988  Q 935.907578 320.607988 935.907578 313.607988  L 935.907578 110.6408  Q 935.907578 103.6408 928.907578 103.6408  L 480.672422 103.6408  Q 473.672422 103.6408 473.672422 110.6408  L 473.672422 313.607988  Q 473.672422 320.607988 480.672422 320.607988  z "
             style="fill: #ffffff; opacity: 0.8; stroke: #cccccc; stroke-linejoin: miter"
             id="path29" />
        </g>
        <g
           id="line2d_19">
          <path
             d="M 487.672422 131.985331  L 522.672422 131.985331  L 557.672422 131.985331  "
             style="fill: none; stroke: #a9a9a9; stroke-width: 1.5; stroke-linecap: square"
             id="path30" />
        </g>
        <g
           id="text_19">
          <text
             style="font: 35px 'DejaVu Sans', 'Bitstream Vera Sans', 'Computer Modern Sans Serif', 'Lucida Grande', 'Verdana', 'Geneva', 'Lucid', 'Arial', 'Helvetica', 'Avant Garde', sans-serif; text-anchor: start"
             x="585.672422"
             y="144.235331"
             transform="rotate(-0 585.672422 144.235331)"
             id="text30">mean hash count</text>
        </g>
        <g
           id="line2d_20">
          <path
             d="M 487.672422 183.358769  L 522.672422 183.358769  L 557.672422 183.358769  "
             style="fill: none; stroke: #000000; stroke-width: 1.5; stroke-linecap: square"
             id="path31" />
        </g>
        <g
           id="text_20">
          <text
             style="font: 35px 'DejaVu Sans', 'Bitstream Vera Sans', 'Computer Modern Sans Serif', 'Lucida Grande', 'Verdana', 'Geneva', 'Lucid', 'Arial', 'Helvetica', 'Avant Garde', sans-serif; text-anchor: start"
             x="585.672422"
             y="195.608769"
             transform="rotate(-0 585.672422 195.608769)"
             id="text31">median hash count</text>
        </g>
        <g
           id="patch_12">
          <path
             d="M 487.672422 246.982206  L 557.672422 246.982206  L 557.672422 222.482206  L 487.672422 222.482206  z "
             style="fill: #d3d3d3"
             id="path32" />
        </g>
        <g
           id="text_21">
          <text
             style="font: 35px 'DejaVu Sans', 'Bitstream Vera Sans', 'Computer Modern Sans Serif', 'Lucida Grande', 'Verdana', 'Geneva', 'Lucid', 'Arial', 'Helvetica', 'Avant Garde', sans-serif; text-anchor: start"
             x="585.672422"
             y="246.982206"
             transform="rotate(-0 585.672422 246.982206)"
             id="text32">hash count range</text>
        </g>
        <g
           id="line2d_21">
          <path
             d="M 487.672422 286.105644  L 522.672422 286.105644  L 557.672422 286.105644  "
             style="fill: none; stroke: #228b22; stroke-width: 1.5; stroke-linecap: square"
             id="path33" />
        </g>
        <g
           id="text_22">
          <text
             style="font: 35px 'DejaVu Sans', 'Bitstream Vera Sans', 'Computer Modern Sans Serif', 'Lucida Grande', 'Verdana', 'Geneva', 'Lucid', 'Arial', 'Helvetica', 'Avant Garde', sans-serif; text-anchor: start"
             x="585.672422"
             y="298.355644"
             transform="rotate(-0 585.672422 298.355644)"
             id="text33">$C_m$ complexity</text>
        </g>
      </g>
    </g>
  </g>
  <defs
     id="defs33">
    <clipPath
       id="p8211b9858a">
      <rect
         x="171.9"
         y="86.1408"
         width="1065.78"
         height="552.7368"
         id="rect33" />
    </clipPath>
  </defs>
</svg>
