<?xml version="1.0" encoding="UTF-8" standalone="no"?>
<svg
   width="1375.2pt"
   height="717.84pt"
   viewBox="0 0 1375.2 717.84"
   version="1.1"
   id="svg35"
   sodipodi:docname="p_sojae_with_comp.svg"
   inkscape:version="1.3.2 (091e20ef0f, 2023-11-25, custom)"
   xmlns:inkscape="http://www.inkscape.org/namespaces/inkscape"
   xmlns:sodipodi="http://sodipodi.sourceforge.net/DTD/sodipodi-0.dtd"
   xmlns:xlink="http://www.w3.org/1999/xlink"
   xmlns="http://www.w3.org/2000/svg"
   xmlns:svg="http://www.w3.org/2000/svg"
   xmlns:rdf="http://www.w3.org/1999/02/22-rdf-syntax-ns#"
   xmlns:cc="http://creativecommons.org/ns#"
   xmlns:dc="http://purl.org/dc/elements/1.1/">
  <sodipodi:namedview
     id="namedview35"
     pagecolor="#ffffff"
     bordercolor="#000000"
     borderopacity="0.25"
     inkscape:showpageshadow="2"
     inkscape:pageopacity="0.0"
     inkscape:pagecheckerboard="0"
     inkscape:deskcolor="#d1d1d1"
     inkscape:document-units="pt"
     inkscape:zoom="0.83442411"
     inkscape:cx="916.20075"
     inkscape:cy="479.37253"
     inkscape:window-width="1910"
     inkscape:window-height="2111"
     inkscape:window-x="0"
     inkscape:window-y="0"
     inkscape:window-maximized="1"
     inkscape:current-layer="svg35" />
  <metadata
     id="metadata1">
    <rdf:RDF>
      <cc:Work>
        <dc:type
           rdf:resource="http://purl.org/dc/dcmitype/StillImage" />
        <dc:date>2024-06-05T17:13:37.685242</dc:date>
        <dc:format>image/svg+xml</dc:format>
        <dc:creator>
          <cc:Agent>
            <dc:title>Matplotlib v3.8.1, https://matplotlib.org/</dc:title>
          </cc:Agent>
        </dc:creator>
      </cc:Work>
    </rdf:RDF>
  </metadata>
  <defs
     id="defs1">
    <style
       type="text/css"
       id="style1">*{stroke-linejoin: round; stroke-linecap: butt}</style>
  </defs>
  <g
     id="figure_1">
    <g
       id="patch_1"
       style="opacity:0">
      <path
         d="M 0 717.84  L 1375.2 717.84  L 1375.2 0  L 0 0  z "
         style="fill: #ffffff"
         id="path1" />
    </g>
    <g
       id="axes_1">
      <g
         id="patch_2">
        <path
           d="M 171.9 638.8776  L 1237.68 638.8776  L 1237.68 86.1408  L 171.9 86.1408  z "
           style="fill: #ffffff"
           id="path2" />
      </g>
      <g
         id="PolyCollection_1">
        <path
           d="M -430.194127 362.988831  L -430.194127 612.152059  L -424.194215 612.152059  L -418.194304 639.836862  L -412.194393 612.152059  L -406.194482 639.836862  L -400.194571 584.467256  L -394.19466 584.467256  L -388.194748 612.152059  L -382.194837 556.782453  L -376.194926 556.782453  L -370.195015 556.782453  L -364.195104 612.152059  L -358.195193 584.467256  L -352.195281 612.152059  L -346.19537 612.152059  L -340.195459 584.467256  L -334.195548 612.152059  L -328.195637 584.467256  L -322.195725 612.152059  L -316.195814 584.467256  L -310.195903 584.467256  L -304.195992 612.152059  L -298.196081 556.782453  L -292.19617 584.467256  L -286.196258 529.09765  L -280.196347 556.782453  L -274.196436 612.152059  L -268.196525 584.467256  L -262.196614 556.782453  L -256.196703 612.152059  L -250.196791 556.782453  L -244.19688 612.152059  L -238.196969 612.152059  L -232.197058 556.782453  L -226.197147 556.782453  L -220.197235 556.782453  L -214.197324 584.467256  L -208.197413 584.467256  L -202.197502 556.782453  L -196.197591 556.782453  L -190.19768 556.782453  L -184.197768 584.467256  L -178.197857 584.467256  L -172.197946 584.467256  L -166.198035 612.152059  L -160.198124 612.152059  L -154.198212 612.152059  L -148.198301 584.467256  L -142.19839 556.782453  L -136.198479 612.152059  L -130.198568 584.467256  L -124.198657 612.152059  L -118.198745 612.152059  L -112.198834 584.467256  L -106.198923 584.467256  L -100.199012 612.152059  L -94.199101 529.09765  L -88.19919 529.09765  L -82.199278 612.152059  L -76.199367 556.782453  L -70.199456 612.152059  L -64.199545 612.152059  L -58.199634 612.152059  L -52.199722 529.09765  L -46.199811 612.152059  L -40.1999 639.836862  L -34.199989 556.782453  L -28.200078 584.467256  L -22.200167 612.152059  L -16.200255 556.782453  L -10.200344 556.782453  L -4.200433 584.467256  L 1.799478 556.782453  L 7.799389 612.152059  L 13.7993 639.836862  L 19.799212 584.467256  L 25.799123 556.782453  L 31.799034 639.836862  L 37.798945 584.467256  L 43.798856 556.782453  L 49.798768 556.782453  L 55.798679 556.782453  L 61.79859 584.467256  L 67.798501 556.782453  L 73.798412 639.836862  L 79.798323 612.152059  L 85.798235 584.467256  L 91.798146 556.782453  L 97.798057 584.467256  L 103.797968 612.152059  L 109.797879 584.467256  L 115.797791 584.467256  L 121.797702 584.467256  L 127.797613 584.467256  L 133.797524 639.836862  L 139.797435 584.467256  L 145.797346 612.152059  L 151.797258 584.467256  L 157.797169 584.467256  L 163.79708 556.782453  L 169.796991 612.152059  L 175.796902 639.836862  L 181.796813 556.782453  L 187.796725 556.782453  L 193.796636 584.467256  L 199.796547 584.467256  L 205.796458 584.467256  L 211.796369 584.467256  L 217.796281 584.467256  L 223.796192 639.836862  L 229.796103 612.152059  L 235.796014 556.782453  L 241.795925 584.467256  L 247.795836 584.467256  L 253.795748 612.152059  L 259.795659 556.782453  L 265.79557 584.467256  L 271.795481 612.152059  L 277.795392 584.467256  L 283.795303 556.782453  L 289.795215 639.836862  L 295.795126 584.467256  L 301.795037 584.467256  L 307.794948 612.152059  L 313.794859 529.09765  L 319.794771 556.782453  L 325.794682 529.09765  L 331.794593 556.782453  L 337.794504 612.152059  L 343.794415 612.152059  L 349.794326 584.467256  L 355.794238 556.782453  L 361.794149 556.782453  L 367.79406 584.467256  L 373.793971 584.467256  L 379.793882 584.467256  L 385.793794 584.467256  L 391.793705 612.152059  L 397.793616 612.152059  L 403.793527 612.152059  L 409.793438 556.782453  L 415.793349 584.467256  L 421.793261 612.152059  L 427.793172 612.152059  L 433.793083 584.467256  L 439.792994 584.467256  L 445.792905 639.836862  L 451.792816 612.152059  L 457.792728 556.782453  L 463.792639 584.467256  L 469.79255 584.467256  L 475.792461 584.467256  L 481.792372 612.152059  L 487.792284 556.782453  L 493.792195 612.152059  L 499.792106 529.09765  L 505.792017 584.467256  L 511.791928 584.467256  L 517.791839 584.467256  L 523.791751 584.467256  L 529.791662 639.836862  L 535.791573 556.782453  L 541.791484 639.836862  L 547.791395 639.836862  L 553.791306 584.467256  L 559.791218 584.467256  L 565.791129 612.152059  L 571.79104 584.467256  L 577.790951 612.152059  L 583.790862 612.152059  L 589.790774 612.152059  L 595.790685 612.152059  L 601.790596 612.152059  L 607.790507 556.782453  L 613.790418 612.152059  L 619.790329 612.152059  L 625.790241 584.467256  L 631.790152 584.467256  L 637.790063 584.467256  L 643.789974 556.782453  L 649.789885 612.152059  L 655.789796 584.467256  L 661.789708 529.09765  L 667.789619 639.836862  L 673.78953 556.782453  L 679.789441 529.09765  L 685.789352 584.467256  L 691.789264 584.467256  L 697.789175 556.782453  L 703.789086 639.836862  L 709.788997 584.467256  L 715.788908 584.467256  L 721.788819 556.782453  L 727.788731 584.467256  L 733.788642 584.467256  L 739.788553 556.782453  L 745.788464 584.467256  L 751.788375 612.152059  L 757.788287 639.836862  L 763.788198 639.836862  L 769.788109 639.836862  L 775.78802 639.836862  L 781.787931 639.836862  L 787.787842 584.467256  L 793.787754 612.152059  L 799.787665 584.467256  L 805.787576 584.467256  L 811.787487 556.782453  L 817.787398 556.782453  L 823.787309 584.467256  L 829.787221 612.152059  L 835.787132 584.467256  L 841.787043 612.152059  L 847.786954 584.467256  L 853.786865 584.467256  L 859.786777 584.467256  L 865.786688 584.467256  L 871.786599 612.152059  L 877.78651 584.467256  L 883.786421 612.152059  L 889.786332 612.152059  L 895.786244 612.152059  L 901.786155 639.836862  L 907.786066 584.467256  L 913.785977 584.467256  L 919.785888 584.467256  L 925.785799 612.152059  L 931.785711 639.836862  L 937.785622 639.836862  L 943.785533 639.836862  L 949.785444 639.836862  L 955.785355 612.152059  L 961.785267 639.836862  L 967.785178 612.152059  L 973.785089 639.836862  L 979.785 556.782453  L 985.784911 556.782453  L 991.784822 612.152059  L 997.784734 584.467256  L 1003.784645 584.467256  L 1009.784556 584.467256  L 1015.784467 556.782453  L 1021.784378 612.152059  L 1027.78429 556.782453  L 1033.784201 529.09765  L 1039.784112 584.467256  L 1045.784023 584.467256  L 1051.783934 584.467256  L 1057.783845 639.836862  L 1063.783757 556.782453  L 1069.783668 556.782453  L 1075.783579 556.782453  L 1081.78349 584.467256  L 1087.783401 612.152059  L 1093.783312 584.467256  L 1099.783224 612.152059  L 1105.783135 584.467256  L 1111.783046 556.782453  L 1117.782957 556.782453  L 1123.782868 529.09765  L 1129.78278 529.09765  L 1135.782691 612.152059  L 1141.782602 612.152059  L 1147.782513 612.152059  L 1153.782424 639.836862  L 1159.782335 639.836862  L 1165.782247 639.836862  L 1171.782158 584.467256  L 1177.782069 584.467256  L 1183.78198 639.836862  L 1189.781891 639.836862  L 1195.781802 639.836862  L 1201.781714 639.836862  L 1207.781625 556.782453  L 1213.781536 612.152059  L 1219.781447 612.152059  L 1225.781358 584.467256  L 1231.78127 584.467256  L 1237.781181 639.836862  L 1243.781092 584.467256  L 1249.781003 584.467256  L 1255.780914 612.152059  L 1261.780825 612.152059  L 1267.780737 556.782453  L 1273.780648 612.152059  L 1279.780559 584.467256  L 1285.78047 584.467256  L 1291.780381 584.467256  L 1297.780293 612.152059  L 1303.780204 556.782453  L 1309.780115 584.467256  L 1315.780026 612.152059  L 1321.779937 584.467256  L 1327.779848 584.467256  L 1333.77976 612.152059  L 1339.779671 584.467256  L 1345.779582 556.782453  L 1351.779493 612.152059  L 1357.779404 556.782453  L 1363.779315 556.782453  L 1369.779227 612.152059  L 1375.779138 556.782453  L 1381.779049 529.09765  L 1387.77896 612.152059  L 1393.778871 556.782453  L 1399.778783 612.152059  L 1405.778694 584.467256  L 1411.778605 584.467256  L 1417.778516 612.152059  L 1423.778427 612.152059  L 1429.778338 612.152059  L 1435.77825 584.467256  L 1441.778161 556.782453  L 1447.778072 612.152059  L 1453.777983 584.467256  L 1459.777894 584.467256  L 1465.777805 584.467256  L 1471.777717 639.836862  L 1477.777628 612.152059  L 1483.777539 612.152059  L 1489.77745 584.467256  L 1495.777361 612.152059  L 1501.777273 639.836862  L 1507.777184 612.152059  L 1513.777095 584.467256  L 1519.777006 639.836862  L 1525.776917 639.836862  L 1531.776828 584.467256  L 1531.776828 335.304028  L 1531.776828 335.304028  L 1525.776917 556.782453  L 1519.777006 529.09765  L 1513.777095 390.673634  L 1507.777184 418.358437  L 1501.777273 639.836862  L 1495.777361 529.09765  L 1489.77745 418.358437  L 1483.777539 473.728043  L 1477.777628 501.412846  L 1471.777717 584.467256  L 1465.777805 473.728043  L 1459.777894 418.358437  L 1453.777983 418.358437  L 1447.778072 446.04324  L 1441.778161 390.673634  L 1435.77825 335.304028  L 1429.778338 501.412846  L 1423.778427 529.09765  L 1417.778516 390.673634  L 1411.778605 307.619225  L 1405.778694 390.673634  L 1399.778783 362.988831  L 1393.778871 390.673634  L 1387.77896 390.673634  L 1381.779049 418.358437  L 1375.779138 335.304028  L 1369.779227 390.673634  L 1363.779315 390.673634  L 1357.779404 390.673634  L 1351.779493 446.04324  L 1345.779582 390.673634  L 1339.779671 446.04324  L 1333.77976 418.358437  L 1327.779848 446.04324  L 1321.779937 473.728043  L 1315.780026 418.358437  L 1309.780115 390.673634  L 1303.780204 473.728043  L 1297.780293 418.358437  L 1291.780381 335.304028  L 1285.78047 362.988831  L 1279.780559 446.04324  L 1273.780648 418.358437  L 1267.780737 335.304028  L 1261.780825 279.934422  L 1255.780914 390.673634  L 1249.781003 473.728043  L 1243.781092 418.358437  L 1237.781181 501.412846  L 1231.78127 446.04324  L 1225.781358 473.728043  L 1219.781447 418.358437  L 1213.781536 501.412846  L 1207.781625 390.673634  L 1201.781714 418.358437  L 1195.781802 224.564815  L 1189.781891 252.249619  L 1183.78198 252.249619  L 1177.782069 252.249619  L 1171.782158 362.988831  L 1165.782247 335.304028  L 1159.782335 501.412846  L 1153.782424 307.619225  L 1147.782513 418.358437  L 1141.782602 390.673634  L 1135.782691 446.04324  L 1129.78278 390.673634  L 1123.782868 446.04324  L 1117.782957 446.04324  L 1111.783046 390.673634  L 1105.783135 362.988831  L 1099.783224 473.728043  L 1093.783312 446.04324  L 1087.783401 307.619225  L 1081.78349 418.358437  L 1075.783579 473.728043  L 1069.783668 362.988831  L 1063.783757 473.728043  L 1057.783845 390.673634  L 1051.783934 446.04324  L 1045.784023 335.304028  L 1039.784112 418.358437  L 1033.784201 418.358437  L 1027.78429 390.673634  L 1021.784378 362.988831  L 1015.784467 446.04324  L 1009.784556 418.358437  L 1003.784645 335.304028  L 997.784734 362.988831  L 991.784822 390.673634  L 985.784911 418.358437  L 979.785 362.988831  L 973.785089 362.988831  L 967.785178 418.358437  L 961.785267 473.728043  L 955.785355 -273.76164  L 949.785444 -1934.849826  L 943.785533 -1685.686598  L 937.785622 -2156.328251  L 931.785711 -1658.001795  L 925.785799 -689.033687  L 919.785888 335.304028  L 913.785977 473.728043  L 907.786066 418.358437  L 901.786155 -1685.686598  L 895.786244 -855.142505  L 889.786332 446.04324  L 883.786421 362.988831  L 877.78651 418.358437  L 871.786599 418.358437  L 865.786688 390.673634  L 859.786777 307.619225  L 853.786865 446.04324  L 847.786954 446.04324  L 841.787043 335.304028  L 835.787132 418.358437  L 829.787221 390.673634  L 823.787309 446.04324  L 817.787398 446.04324  L 811.787487 362.988831  L 805.787576 390.673634  L 799.787665 279.934422  L 793.787754 418.358437  L 787.787842 362.988831  L 781.787931 362.988831  L 775.78802 473.728043  L 769.788109 501.412846  L 763.788198 584.467256  L 757.788287 473.728043  L 751.788375 362.988831  L 745.788464 335.304028  L 739.788553 362.988831  L 733.788642 446.04324  L 727.788731 446.04324  L 721.788819 418.358437  L 715.788908 335.304028  L 709.788997 335.304028  L 703.789086 252.249619  L 697.789175 362.988831  L 691.789264 446.04324  L 685.789352 446.04324  L 679.789441 418.358437  L 673.78953 446.04324  L 667.789619 390.673634  L 661.789708 418.358437  L 655.789796 390.673634  L 649.789885 446.04324  L 643.789974 446.04324  L 637.790063 473.728043  L 631.790152 446.04324  L 625.790241 446.04324  L 619.790329 418.358437  L 613.790418 390.673634  L 607.790507 418.358437  L 601.790596 390.673634  L 595.790685 390.673634  L 589.790774 390.673634  L 583.790862 362.988831  L 577.790951 390.673634  L 571.79104 335.304028  L 565.791129 446.04324  L 559.791218 362.988831  L 553.791306 446.04324  L 547.791395 252.249619  L 541.791484 418.358437  L 535.791573 446.04324  L 529.791662 362.988831  L 523.791751 335.304028  L 517.791839 362.988831  L 511.791928 501.412846  L 505.792017 362.988831  L 499.792106 418.358437  L 493.792195 390.673634  L 487.792284 362.988831  L 481.792372 362.988831  L 475.792461 335.304028  L 469.79255 390.673634  L 463.792639 390.673634  L 457.792728 390.673634  L 451.792816 418.358437  L 445.792905 335.304028  L 439.792994 390.673634  L 433.793083 390.673634  L 427.793172 473.728043  L 421.793261 390.673634  L 415.793349 418.358437  L 409.793438 307.619225  L 403.793527 390.673634  L 397.793616 390.673634  L 391.793705 418.358437  L 385.793794 473.728043  L 379.793882 446.04324  L 373.793971 446.04324  L 367.79406 390.673634  L 361.794149 362.988831  L 355.794238 362.988831  L 349.794326 279.934422  L 343.794415 501.412846  L 337.794504 418.358437  L 331.794593 418.358437  L 325.794682 446.04324  L 319.794771 418.358437  L 313.794859 418.358437  L 307.794948 390.673634  L 301.795037 446.04324  L 295.795126 252.249619  L 289.795215 418.358437  L 283.795303 418.358437  L 277.795392 335.304028  L 271.795481 418.358437  L 265.79557 473.728043  L 259.795659 418.358437  L 253.795748 418.358437  L 247.795836 418.358437  L 241.795925 335.304028  L 235.796014 390.673634  L 229.796103 418.358437  L 223.796192 390.673634  L 217.796281 446.04324  L 211.796369 390.673634  L 205.796458 473.728043  L 199.796547 418.358437  L 193.796636 418.358437  L 187.796725 390.673634  L 181.796813 446.04324  L 175.796902 390.673634  L 169.796991 446.04324  L 163.79708 390.673634  L 157.797169 307.619225  L 151.797258 390.673634  L 145.797346 335.304028  L 139.797435 446.04324  L 133.797524 335.304028  L 127.797613 418.358437  L 121.797702 418.358437  L 115.797791 390.673634  L 109.797879 418.358437  L 103.797968 307.619225  L 97.798057 418.358437  L 91.798146 418.358437  L 85.798235 390.673634  L 79.798323 473.728043  L 73.798412 390.673634  L 67.798501 390.673634  L 61.79859 390.673634  L 55.798679 335.304028  L 49.798768 446.04324  L 43.798856 362.988831  L 37.798945 473.728043  L 31.799034 418.358437  L 25.799123 418.358437  L 19.799212 418.358437  L 13.7993 418.358437  L 7.799389 390.673634  L 1.799478 418.358437  L -4.200433 418.358437  L -10.200344 446.04324  L -16.200255 362.988831  L -22.200167 446.04324  L -28.200078 473.728043  L -34.199989 362.988831  L -40.1999 446.04324  L -46.199811 279.934422  L -52.199722 390.673634  L -58.199634 473.728043  L -64.199545 446.04324  L -70.199456 446.04324  L -76.199367 446.04324  L -82.199278 473.728043  L -88.19919 418.358437  L -94.199101 418.358437  L -100.199012 335.304028  L -106.198923 390.673634  L -112.198834 390.673634  L -118.198745 418.358437  L -124.198657 335.304028  L -130.198568 446.04324  L -136.198479 390.673634  L -142.19839 473.728043  L -148.198301 418.358437  L -154.198212 307.619225  L -160.198124 473.728043  L -166.198035 446.04324  L -172.197946 335.304028  L -178.197857 446.04324  L -184.197768 279.934422  L -190.19768 390.673634  L -196.197591 390.673634  L -202.197502 307.619225  L -208.197413 501.412846  L -214.197324 418.358437  L -220.197235 335.304028  L -226.197147 335.304028  L -232.197058 418.358437  L -238.196969 446.04324  L -244.19688 390.673634  L -250.196791 390.673634  L -256.196703 335.304028  L -262.196614 362.988831  L -268.196525 362.988831  L -274.196436 390.673634  L -280.196347 446.04324  L -286.196258 446.04324  L -292.19617 362.988831  L -298.196081 418.358437  L -304.195992 307.619225  L -310.195903 390.673634  L -316.195814 473.728043  L -322.195725 390.673634  L -328.195637 418.358437  L -334.195548 196.880012  L -340.195459 418.358437  L -346.19537 446.04324  L -352.195281 335.304028  L -358.195193 335.304028  L -364.195104 473.728043  L -370.195015 473.728043  L -376.194926 446.04324  L -382.194837 335.304028  L -388.194748 362.988831  L -394.19466 390.673634  L -400.194571 390.673634  L -406.194482 390.673634  L -412.194393 446.04324  L -418.194304 418.358437  L -424.194215 418.358437  L -430.194127 362.988831  z "
           clip-path="url(#p2d6e4f2003)"
           style="fill: #d3d3d3"
           id="path3" />
      </g>
      <g
         id="matplotlib.axis_1">
        <g
           id="xtick_1">
          <g
             id="line2d_1">
            <defs
               id="defs3">
              <path
                 id="m3b5be32ed4"
                 d="M 0 0  L 0 3.5  "
                 style="stroke: #000000; stroke-width: 0.8" />
            </defs>
            <g
               id="g3">
              <use
                 xlink:href="#m3b5be32ed4"
                 x="289.795215"
                 y="638.8776"
                 style="stroke: #000000; stroke-width: 0.8"
                 id="use3" />
            </g>
          </g>
          <g
             id="text_1">
            <text
               style="font: 35px 'DejaVu Sans', 'Bitstream Vera Sans', 'Computer Modern Sans Serif', 'Lucida Grande', 'Verdana', 'Geneva', 'Lucid', 'Arial', 'Helvetica', 'Avant Garde', sans-serif; text-anchor: middle"
               x="289.795215"
               y="672.472131"
               transform="rotate(-0 289.795215 672.472131)"
               id="text3">120</text>
          </g>
        </g>
        <g
           id="xtick_2">
          <g
             id="line2d_2">
            <g
               id="g4">
              <use
                 xlink:href="#m3b5be32ed4"
                 x="409.793438"
                 y="638.8776"
                 style="stroke: #000000; stroke-width: 0.8"
                 id="use4" />
            </g>
          </g>
          <g
             id="text_2">
            <text
               style="font: 35px 'DejaVu Sans', 'Bitstream Vera Sans', 'Computer Modern Sans Serif', 'Lucida Grande', 'Verdana', 'Geneva', 'Lucid', 'Arial', 'Helvetica', 'Avant Garde', sans-serif; text-anchor: middle"
               x="409.793438"
               y="672.472131"
               transform="rotate(-0 409.793438 672.472131)"
               id="text4">140</text>
          </g>
        </g>
        <g
           id="xtick_3">
          <g
             id="line2d_3">
            <g
               id="g5">
              <use
                 xlink:href="#m3b5be32ed4"
                 x="529.791662"
                 y="638.8776"
                 style="stroke: #000000; stroke-width: 0.8"
                 id="use5" />
            </g>
          </g>
          <g
             id="text_3">
            <text
               style="font: 35px 'DejaVu Sans', 'Bitstream Vera Sans', 'Computer Modern Sans Serif', 'Lucida Grande', 'Verdana', 'Geneva', 'Lucid', 'Arial', 'Helvetica', 'Avant Garde', sans-serif; text-anchor: middle"
               x="529.791662"
               y="672.472131"
               transform="rotate(-0 529.791662 672.472131)"
               id="text5">160</text>
          </g>
        </g>
        <g
           id="xtick_4">
          <g
             id="line2d_4">
            <g
               id="g6">
              <use
                 xlink:href="#m3b5be32ed4"
                 x="649.789885"
                 y="638.8776"
                 style="stroke: #000000; stroke-width: 0.8"
                 id="use6" />
            </g>
          </g>
          <g
             id="text_4">
            <text
               style="font: 35px 'DejaVu Sans', 'Bitstream Vera Sans', 'Computer Modern Sans Serif', 'Lucida Grande', 'Verdana', 'Geneva', 'Lucid', 'Arial', 'Helvetica', 'Avant Garde', sans-serif; text-anchor: middle"
               x="649.789885"
               y="672.472131"
               transform="rotate(-0 649.789885 672.472131)"
               id="text6">180</text>
          </g>
        </g>
        <g
           id="xtick_5">
          <g
             id="line2d_5">
            <g
               id="g7">
              <use
                 xlink:href="#m3b5be32ed4"
                 x="769.788109"
                 y="638.8776"
                 style="stroke: #000000; stroke-width: 0.8"
                 id="use7" />
            </g>
          </g>
          <g
             id="text_5">
            <text
               style="font: 35px 'DejaVu Sans', 'Bitstream Vera Sans', 'Computer Modern Sans Serif', 'Lucida Grande', 'Verdana', 'Geneva', 'Lucid', 'Arial', 'Helvetica', 'Avant Garde', sans-serif; text-anchor: middle"
               x="769.788109"
               y="672.472131"
               transform="rotate(-0 769.788109 672.472131)"
               id="text7">200</text>
          </g>
        </g>
        <g
           id="xtick_6">
          <g
             id="line2d_6">
            <g
               id="g8">
              <use
                 xlink:href="#m3b5be32ed4"
                 x="889.786332"
                 y="638.8776"
                 style="stroke: #000000; stroke-width: 0.8"
                 id="use8" />
            </g>
          </g>
          <g
             id="text_6">
            <text
               style="font: 35px 'DejaVu Sans', 'Bitstream Vera Sans', 'Computer Modern Sans Serif', 'Lucida Grande', 'Verdana', 'Geneva', 'Lucid', 'Arial', 'Helvetica', 'Avant Garde', sans-serif; text-anchor: middle"
               x="889.786332"
               y="672.472131"
               transform="rotate(-0 889.786332 672.472131)"
               id="text8">220</text>
          </g>
        </g>
        <g
           id="xtick_7">
          <g
             id="line2d_7">
            <g
               id="g9">
              <use
                 xlink:href="#m3b5be32ed4"
                 x="1009.784556"
                 y="638.8776"
                 style="stroke: #000000; stroke-width: 0.8"
                 id="use9" />
            </g>
          </g>
          <g
             id="text_7">
            <text
               style="font: 35px 'DejaVu Sans', 'Bitstream Vera Sans', 'Computer Modern Sans Serif', 'Lucida Grande', 'Verdana', 'Geneva', 'Lucid', 'Arial', 'Helvetica', 'Avant Garde', sans-serif; text-anchor: middle"
               x="1009.784556"
               y="672.472131"
               transform="rotate(-0 1009.784556 672.472131)"
               id="text9">240</text>
          </g>
        </g>
        <g
           id="xtick_8">
          <g
             id="line2d_8">
            <g
               id="g10">
              <use
                 xlink:href="#m3b5be32ed4"
                 x="1129.78278"
                 y="638.8776"
                 style="stroke: #000000; stroke-width: 0.8"
                 id="use10" />
            </g>
          </g>
          <g
             id="text_8">
            <text
               style="font: 35px 'DejaVu Sans', 'Bitstream Vera Sans', 'Computer Modern Sans Serif', 'Lucida Grande', 'Verdana', 'Geneva', 'Lucid', 'Arial', 'Helvetica', 'Avant Garde', sans-serif; text-anchor: middle"
               x="1129.78278"
               y="672.472131"
               transform="rotate(-0 1129.78278 672.472131)"
               id="text10">260</text>
          </g>
        </g>
        <g
           id="text_9">
          <text
             style="font: 35px 'DejaVu Sans', 'Bitstream Vera Sans', 'Computer Modern Sans Serif', 'Lucida Grande', 'Verdana', 'Geneva', 'Lucid', 'Arial', 'Helvetica', 'Avant Garde', sans-serif; text-anchor: middle"
             x="704.79"
             y="710.345569"
             transform="rotate(-0 704.79 710.345569)"
             id="text11">window index with $w=10000$</text>
        </g>
      </g>
      <g
         id="matplotlib.axis_2">
        <g
           id="ytick_1">
          <g
             id="line2d_9">
            <defs
               id="defs11">
              <path
                 id="m5a9606e8f3"
                 d="M 0 0  L -3.5 0  "
                 style="stroke: #000000; stroke-width: 0.8" />
            </defs>
            <g
               id="g11">
              <use
                 xlink:href="#m5a9606e8f3"
                 x="171.9"
                 y="501.412846"
                 style="stroke: #000000; stroke-width: 0.8"
                 id="use11" />
            </g>
          </g>
          <g
             id="text_10">
            <text
               style="font: 35px 'DejaVu Sans', 'Bitstream Vera Sans', 'Computer Modern Sans Serif', 'Lucida Grande', 'Verdana', 'Geneva', 'Lucid', 'Arial', 'Helvetica', 'Avant Garde', sans-serif; text-anchor: end"
               x="164.9"
               y="514.710112"
               transform="rotate(-0 164.9 514.710112)"
               id="text12">5</text>
          </g>
        </g>
        <g
           id="ytick_2">
          <g
             id="line2d_10">
            <g
               id="g12">
              <use
                 xlink:href="#m5a9606e8f3"
                 x="171.9"
                 y="362.988831"
                 style="stroke: #000000; stroke-width: 0.8"
                 id="use12" />
            </g>
          </g>
          <g
             id="text_11">
            <text
               style="font: 35px 'DejaVu Sans', 'Bitstream Vera Sans', 'Computer Modern Sans Serif', 'Lucida Grande', 'Verdana', 'Geneva', 'Lucid', 'Arial', 'Helvetica', 'Avant Garde', sans-serif; text-anchor: end"
               x="164.9"
               y="376.286097"
               transform="rotate(-0 164.9 376.286097)"
               id="text13">10</text>
          </g>
        </g>
        <g
           id="ytick_3">
          <g
             id="line2d_11">
            <g
               id="g13">
              <use
                 xlink:href="#m5a9606e8f3"
                 x="171.9"
                 y="224.564815"
                 style="stroke: #000000; stroke-width: 0.8"
                 id="use13" />
            </g>
          </g>
          <g
             id="text_12">
            <text
               style="font: 35px 'DejaVu Sans', 'Bitstream Vera Sans', 'Computer Modern Sans Serif', 'Lucida Grande', 'Verdana', 'Geneva', 'Lucid', 'Arial', 'Helvetica', 'Avant Garde', sans-serif; text-anchor: end"
               x="164.9"
               y="237.862081"
               transform="rotate(-0 164.9 237.862081)"
               id="text14">15</text>
          </g>
        </g>
        <g
           id="ytick_4">
          <g
             id="line2d_12">
            <g
               id="g14">
              <use
                 xlink:href="#m5a9606e8f3"
                 x="171.9"
                 y="86.1408"
                 style="stroke: #000000; stroke-width: 0.8"
                 id="use14" />
            </g>
          </g>
          <g
             id="text_13">
            <text
               style="font: 35px 'DejaVu Sans', 'Bitstream Vera Sans', 'Computer Modern Sans Serif', 'Lucida Grande', 'Verdana', 'Geneva', 'Lucid', 'Arial', 'Helvetica', 'Avant Garde', sans-serif; text-anchor: end"
               x="164.9"
               y="99.438066"
               transform="rotate(-0 164.9 99.438066)"
               id="text15">20</text>
          </g>
        </g>
        <g
           id="text_14">
          <text
             style="font: 35px 'DejaVu Sans', 'Bitstream Vera Sans', 'Computer Modern Sans Serif', 'Lucida Grande', 'Verdana', 'Geneva', 'Lucid', 'Arial', 'Helvetica', 'Avant Garde', sans-serif; text-anchor: middle"
             x="109.083594"
             y="362.5092"
             transform="rotate(-90 109.083594 362.5092)"
             id="text16">hashes in window</text>
        </g>
      </g>
      <g
         id="line2d_13">
        <path
           d="M -1 503.46111  L 1.799478 489.108489  L 13.7993 501.412846  L 19.799212 498.336757  L 25.799123 513.717203  L 31.799034 532.173739  L 37.798945 535.249828  L 43.798856 510.641114  L 49.798768 519.869382  L 55.798679 479.880222  L 61.79859 501.412846  L 67.798501 492.184579  L 73.798412 532.173739  L 79.798323 532.173739  L 85.798235 479.880222  L 91.798146 495.260668  L 97.798057 519.869382  L 103.797968 473.728043  L 109.797879 489.108489  L 115.797791 482.956311  L 121.797702 504.488936  L 127.797613 504.488936  L 133.797524 486.0324  L 139.797435 532.173739  L 145.797346 489.108489  L 151.797258 501.412846  L 157.797169 470.651954  L 163.79708 476.804133  L 169.796991 501.412846  L 175.796902 510.641114  L 181.796813 513.717203  L 187.796725 495.260668  L 193.796636 519.869382  L 199.796547 507.565025  L 205.796458 526.02156  L 211.796369 486.0324  L 223.796192 516.793293  L 229.796103 519.869382  L 235.796014 501.412846  L 241.795925 489.108489  L 247.795836 504.488936  L 253.795748 507.565025  L 259.795659 482.956311  L 265.79557 529.09765  L 271.795481 501.412846  L 277.795392 476.804133  L 283.795303 486.0324  L 289.795215 510.641114  L 295.795126 461.423686  L 301.795037 522.945471  L 307.794948 507.565025  L 313.794859 476.804133  L 319.794771 486.0324  L 325.794682 492.184579  L 331.794593 495.260668  L 337.794504 510.641114  L 343.794415 541.402006  L 349.794326 467.575865  L 355.794238 476.804133  L 361.794149 492.184579  L 367.79406 476.804133  L 379.793882 519.869382  L 385.793794 526.02156  L 391.793705 513.717203  L 397.793616 538.325917  L 403.793527 513.717203  L 409.793438 492.184579  L 415.793349 504.488936  L 421.793261 501.412846  L 427.793172 541.402006  L 433.793083 498.336757  L 439.792994 486.0324  L 445.792905 532.173739  L 451.792816 492.184579  L 457.792728 486.0324  L 463.792639 504.488936  L 469.79255 507.565025  L 475.792461 495.260668  L 481.792372 479.880222  L 487.792284 486.0324  L 493.792195 513.717203  L 499.792106 492.184579  L 505.792017 513.717203  L 511.791928 532.173739  L 517.791839 498.336757  L 523.791751 489.108489  L 529.791662 526.02156  L 535.791573 489.108489  L 541.791484 513.717203  L 547.791395 550.630274  L 553.791306 522.945471  L 559.791218 510.641114  L 565.791129 556.782453  L 571.79104 513.717203  L 577.790951 529.09765  L 583.790862 510.641114  L 589.790774 467.575865  L 595.790685 492.184579  L 601.790596 495.260668  L 607.790507 476.804133  L 613.790418 498.336757  L 619.790329 504.488936  L 625.790241 504.488936  L 631.790152 510.641114  L 637.790063 532.173739  L 643.789974 510.641114  L 649.789885 532.173739  L 655.789796 492.184579  L 661.789708 473.728043  L 667.789619 507.565025  L 673.78953 486.0324  L 679.789441 501.412846  L 685.789352 501.412846  L 691.789264 504.488936  L 697.789175 476.804133  L 703.789086 501.412846  L 709.788997 473.728043  L 715.788908 495.260668  L 721.788819 486.0324  L 727.788731 479.880222  L 733.788642 507.565025  L 739.788553 479.880222  L 745.788464 507.565025  L 751.788375 507.565025  L 757.788287 535.249828  L 763.788198 612.152059  L 769.788109 553.706363  L 775.78802 578.315077  L 781.787931 535.249828  L 787.787842 498.336757  L 793.787754 535.249828  L 799.787665 498.336757  L 805.787576 504.488936  L 811.787487 470.651954  L 817.787398 507.565025  L 823.787309 507.565025  L 829.787221 519.869382  L 835.787132 510.641114  L 841.787043 495.260668  L 847.786954 516.793293  L 853.786865 504.488936  L 859.786777 486.0324  L 865.786688 482.956311  L 871.786599 507.565025  L 877.78651 507.565025  L 883.786421 504.488936  L 889.786332 519.869382  L 895.786244 310.695314  L 901.786155 230.716994  L 907.786066 492.184579  L 913.785977 535.249828  L 919.785888 482.956311  L 925.785799 332.227939  L 931.785711 199.956102  L 937.785622 159.966942  L 943.785533 187.651745  L 949.785444 190.727834  L 955.785355 399.901902  L 961.785267 547.554185  L 967.785178 501.412846  L 973.785089 492.184579  L 979.785 467.575865  L 985.784911 510.641114  L 991.784822 498.336757  L 997.784734 504.488936  L 1003.784645 492.184579  L 1009.784556 507.565025  L 1015.784467 507.565025  L 1021.784378 522.945471  L 1027.78429 495.260668  L 1033.784201 473.728043  L 1039.784112 492.184579  L 1045.784023 516.793293  L 1051.783934 532.173739  L 1057.783845 507.565025  L 1063.783757 516.793293  L 1069.783668 473.728043  L 1075.783579 513.717203  L 1087.783401 489.108489  L 1093.783312 522.945471  L 1099.783224 532.173739  L 1105.783135 510.641114  L 1111.783046 473.728043  L 1117.782957 501.412846  L 1123.782868 482.956311  L 1129.78278 492.184579  L 1135.782691 507.565025  L 1141.782602 510.641114  L 1147.782513 516.793293  L 1153.782424 575.238988  L 1159.782335 609.07597  L 1171.782158 535.249828  L 1177.782069 495.260668  L 1183.78198 424.510616  L 1189.781891 442.967151  L 1195.781802 412.206259  L 1201.781714 544.478096  L 1207.781625 482.956311  L 1213.781536 575.238988  L 1219.781447 513.717203  L 1225.781358 550.630274  L 1231.78127 507.565025  L 1237.781181 562.934631  L 1243.781092 522.945471  L 1249.781003 507.565025  L 1255.780914 513.717203  L 1261.780825 501.412846  L 1267.780737 479.880222  L 1273.780648 519.869382  L 1279.780559 507.565025  L 1285.78047 516.793293  L 1291.780381 507.565025  L 1297.780293 507.565025  L 1303.780204 526.02156  L 1309.780115 486.0324  L 1315.780026 504.488936  L 1321.779937 529.09765  L 1327.779848 492.184579  L 1333.77976 532.173739  L 1339.779671 544.478096  L 1345.779582 458.347597  L 1351.779493 529.09765  L 1357.779404 479.880222  L 1363.779315 473.728043  L 1369.779227 492.184579  L 1375.779138 470.651954  L 1376.2 470.651954  L 1376.2 470.651954  "
           clip-path="url(#p2d6e4f2003)"
           style="fill: none; stroke: #a9a9a9; stroke-width: 1.5; stroke-linecap: square"
           id="path16" />
      </g>
      <g
         id="line2d_14">
        <path
           d="M -1 514.330204  L 1.799478 501.412846  L 19.799212 501.412846  L 25.799123 529.09765  L 31.799034 501.412846  L 37.798945 529.09765  L 49.798768 529.09765  L 55.798679 501.412846  L 67.798501 501.412846  L 73.798412 556.782453  L 79.798323 529.09765  L 85.798235 473.728043  L 97.798057 529.09765  L 103.797968 473.728043  L 109.797879 501.412846  L 127.797613 501.412846  L 133.797524 473.728043  L 139.797435 529.09765  L 151.797258 473.728043  L 157.797169 529.09765  L 163.79708 473.728043  L 169.796991 473.728043  L 175.796902 529.09765  L 181.796813 529.09765  L 187.796725 501.412846  L 193.796636 529.09765  L 199.796547 501.412846  L 205.796458 529.09765  L 211.796369 473.728043  L 223.796192 529.09765  L 229.796103 501.412846  L 235.796014 529.09765  L 247.795836 473.728043  L 259.795659 473.728043  L 265.79557 529.09765  L 271.795481 473.728043  L 283.795303 473.728043  L 289.795215 501.412846  L 295.795126 446.04324  L 301.795037 501.412846  L 307.794948 529.09765  L 313.794859 473.728043  L 319.794771 473.728043  L 325.794682 501.412846  L 331.794593 473.728043  L 343.794415 529.09765  L 349.794326 501.412846  L 355.794238 501.412846  L 361.794149 529.09765  L 367.79406 473.728043  L 373.793971 501.412846  L 391.793705 501.412846  L 397.793616 556.782453  L 409.793438 501.412846  L 415.793349 501.412846  L 421.793261 473.728043  L 427.793172 529.09765  L 433.793083 501.412846  L 439.792994 501.412846  L 445.792905 529.09765  L 451.792816 473.728043  L 457.792728 473.728043  L 469.79255 529.09765  L 475.792461 529.09765  L 481.792372 501.412846  L 487.792284 501.412846  L 493.792195 529.09765  L 499.792106 501.412846  L 505.792017 529.09765  L 517.791839 529.09765  L 523.791751 501.412846  L 529.791662 556.782453  L 535.791573 473.728043  L 547.791395 584.467256  L 553.791306 529.09765  L 559.791218 529.09765  L 565.791129 556.782453  L 571.79104 529.09765  L 583.790862 529.09765  L 589.790774 473.728043  L 595.790685 473.728043  L 601.790596 501.412846  L 607.790507 446.04324  L 613.790418 501.412846  L 631.790152 501.412846  L 637.790063 529.09765  L 649.789885 529.09765  L 661.789708 473.728043  L 667.789619 501.412846  L 673.78953 473.728043  L 679.789441 501.412846  L 685.789352 473.728043  L 691.789264 529.09765  L 697.789175 501.412846  L 703.789086 529.09765  L 709.788997 473.728043  L 715.788908 501.412846  L 721.788819 501.412846  L 727.788731 473.728043  L 733.788642 501.412846  L 739.788553 473.728043  L 745.788464 529.09765  L 751.788375 501.412846  L 757.788287 529.09765  L 763.788198 612.152059  L 769.788109 556.782453  L 775.78802 584.467256  L 781.787931 529.09765  L 787.787842 501.412846  L 793.787754 556.782453  L 799.787665 529.09765  L 805.787576 529.09765  L 811.787487 501.412846  L 817.787398 529.09765  L 823.787309 501.412846  L 829.787221 529.09765  L 835.787132 529.09765  L 841.787043 501.412846  L 847.786954 529.09765  L 853.786865 501.412846  L 859.786777 501.412846  L 865.786688 473.728043  L 877.78651 529.09765  L 883.786421 501.412846  L 889.786332 529.09765  L 895.786244 529.09765  L 901.786155 612.152059  L 907.786066 501.412846  L 913.785977 529.09765  L 919.785888 501.412846  L 925.785799 529.09765  L 931.785711 639.836862  L 949.785444 639.836862  L 955.785355 529.09765  L 961.785267 556.782453  L 967.785178 501.412846  L 973.785089 473.728043  L 985.784911 529.09765  L 997.784734 529.09765  L 1003.784645 501.412846  L 1015.784467 501.412846  L 1021.784378 556.782453  L 1027.78429 501.412846  L 1033.784201 473.728043  L 1045.784023 529.09765  L 1057.783845 529.09765  L 1069.783668 473.728043  L 1075.783579 501.412846  L 1081.78349 501.412846  L 1087.783401 473.728043  L 1093.783312 529.09765  L 1099.783224 529.09765  L 1105.783135 556.782453  L 1111.783046 473.728043  L 1117.782957 501.412846  L 1141.782602 501.412846  L 1147.782513 529.09765  L 1153.782424 639.836862  L 1165.782247 639.836862  L 1177.782069 529.09765  L 1183.78198 279.934422  L 1189.781891 335.304028  L 1195.781802 252.249619  L 1201.781714 556.782453  L 1207.781625 473.728043  L 1213.781536 584.467256  L 1219.781447 501.412846  L 1225.781358 556.782453  L 1231.78127 501.412846  L 1237.781181 556.782453  L 1249.781003 501.412846  L 1255.780914 501.412846  L 1261.780825 556.782453  L 1267.780737 501.412846  L 1279.780559 501.412846  L 1291.780381 556.782453  L 1297.780293 501.412846  L 1303.780204 529.09765  L 1315.780026 473.728043  L 1321.779937 529.09765  L 1327.779848 473.728043  L 1333.77976 529.09765  L 1339.779671 556.782453  L 1345.779582 446.04324  L 1351.779493 529.09765  L 1357.779404 473.728043  L 1363.779315 473.728043  L 1369.779227 501.412846  L 1376.2 471.7861  L 1376.2 471.7861  "
           clip-path="url(#p2d6e4f2003)"
           style="fill: none; stroke: #000000; stroke-width: 1.5; stroke-linecap: square"
           id="path17" />
      </g>
      <g
         id="patch_3">
        <path
           d="M 171.9 638.8776  L 171.9 86.1408  "
           style="fill: none; stroke: #000000; stroke-width: 0.8; stroke-linejoin: miter; stroke-linecap: square"
           id="path18" />
      </g>
      <g
         id="patch_4">
        <path
           d="M 1237.68 638.8776  L 1237.68 86.1408  "
           style="fill: none; stroke: #000000; stroke-width: 0.8; stroke-linejoin: miter; stroke-linecap: square"
           id="path19" />
      </g>
      <g
         id="patch_5">
        <path
           d="M 171.9 638.8776  L 1237.68 638.8776  "
           style="fill: none; stroke: #000000; stroke-width: 0.8; stroke-linejoin: miter; stroke-linecap: square"
           id="path20" />
      </g>
      <g
         id="patch_6">
        <path
           d="M 171.9 86.1408  L 1237.68 86.1408  "
           style="fill: none; stroke: #000000; stroke-width: 0.8; stroke-linejoin: miter; stroke-linecap: square"
           id="path21" />
      </g>
    </g>
    <g
       id="axes_2">
      <g
         id="matplotlib.axis_3">
        <g
           id="ytick_5">
          <g
             id="line2d_15">
            <defs
               id="defs21">
              <path
                 id="m91c764f8d9"
                 d="M 0 0  L 3.5 0  "
                 style="stroke: #000000; stroke-width: 0.8" />
            </defs>
            <g
               id="g21">
              <use
                 xlink:href="#m91c764f8d9"
                 x="1237.68"
                 y="539.164851"
                 style="stroke: #000000; stroke-width: 0.8"
                 id="use21" />
            </g>
          </g>
          <g
             id="text_15">
            <text
               style="font: 35px 'DejaVu Sans', 'Bitstream Vera Sans', 'Computer Modern Sans Serif', 'Lucida Grande', 'Verdana', 'Geneva', 'Lucid', 'Arial', 'Helvetica', 'Avant Garde', sans-serif; text-anchor: start"
               x="1244.68"
               y="552.462116"
               transform="rotate(-0 1244.68 552.462116)"
               id="text21">0.2</text>
          </g>
        </g>
        <g
           id="ytick_6">
          <g
             id="line2d_16">
            <g
               id="g22">
              <use
                 xlink:href="#m91c764f8d9"
                 x="1237.68"
                 y="438.492839"
                 style="stroke: #000000; stroke-width: 0.8"
                 id="use22" />
            </g>
          </g>
          <g
             id="text_16">
            <text
               style="font: 35px 'DejaVu Sans', 'Bitstream Vera Sans', 'Computer Modern Sans Serif', 'Lucida Grande', 'Verdana', 'Geneva', 'Lucid', 'Arial', 'Helvetica', 'Avant Garde', sans-serif; text-anchor: start"
               x="1244.68"
               y="451.790105"
               transform="rotate(-0 1244.68 451.790105)"
               id="text22">0.4</text>
          </g>
        </g>
        <g
           id="ytick_7">
          <g
             id="line2d_17">
            <g
               id="g23">
              <use
                 xlink:href="#m91c764f8d9"
                 x="1237.68"
                 y="337.820828"
                 style="stroke: #000000; stroke-width: 0.8"
                 id="use23" />
            </g>
          </g>
          <g
             id="text_17">
            <text
               style="font: 35px 'DejaVu Sans', 'Bitstream Vera Sans', 'Computer Modern Sans Serif', 'Lucida Grande', 'Verdana', 'Geneva', 'Lucid', 'Arial', 'Helvetica', 'Avant Garde', sans-serif; text-anchor: start"
               x="1244.68"
               y="351.118094"
               transform="rotate(-0 1244.68 351.118094)"
               id="text23">0.6</text>
          </g>
        </g>
        <g
           id="ytick_8">
          <g
             id="line2d_18">
            <g
               id="g24">
              <use
                 xlink:href="#m91c764f8d9"
                 x="1237.68"
                 y="237.148817"
                 style="stroke: #000000; stroke-width: 0.8"
                 id="use24" />
            </g>
          </g>
          <g
             id="text_18">
            <text
               style="font: 35px 'DejaVu Sans', 'Bitstream Vera Sans', 'Computer Modern Sans Serif', 'Lucida Grande', 'Verdana', 'Geneva', 'Lucid', 'Arial', 'Helvetica', 'Avant Garde', sans-serif; text-anchor: start"
               x="1244.68"
               y="250.446083"
               transform="rotate(-0 1244.68 250.446083)"
               id="text24">0.8</text>
          </g>
        </g>
        <g
           id="ytick_9">
          <g
             id="line2d_19">
            <g
               id="g25">
              <use
                 xlink:href="#m91c764f8d9"
                 x="1237.68"
                 y="136.476806"
                 style="stroke: #000000; stroke-width: 0.8"
                 id="use25" />
            </g>
          </g>
          <g
             id="text_19">
            <text
               style="font: 35px 'DejaVu Sans', 'Bitstream Vera Sans', 'Computer Modern Sans Serif', 'Lucida Grande', 'Verdana', 'Geneva', 'Lucid', 'Arial', 'Helvetica', 'Avant Garde', sans-serif; text-anchor: start"
               x="1244.68"
               y="149.774071"
               transform="rotate(-0 1244.68 149.774071)"
               id="text25">1.0</text>
          </g>
        </g>
        <g
           id="text_20">
          <text
             style="font: 35px 'DejaVu Sans', 'Bitstream Vera Sans', 'Computer Modern Sans Serif', 'Lucida Grande', 'Verdana', 'Geneva', 'Lucid', 'Arial', 'Helvetica', 'Avant Garde', sans-serif; text-anchor: middle"
             x="1330.935469"
             y="362.5092"
             transform="rotate(-90 1330.935469 362.5092)"
             id="text26">$C_m$</text>
        </g>
      </g>
      <g
         id="line2d_20">
        <path
           d="M -1 168.279998  L 1.799478 193.104812  L 7.799389 150.671559  L 13.7993 142.71847  L 19.799212 158.020616  L 25.799123 432.049831  L 31.799034 326.746907  L 37.798945 155.2018  L 43.798856 147.248711  L 49.798768 144.429895  L 55.798679 261.05842  L 61.79859 442.26804  L 67.798501 386.747426  L 73.798412 141.057382  L 79.798323 147.852743  L 85.798235 168.238825  L 91.798146 175.034186  L 97.798057 175.034186  L 101.168138 718.84  M 107.648033 718.84  L 109.797879 481.882476  L 115.797791 253.155667  L 121.797702 188.574571  L 127.797613 211.225774  L 133.797524 160.839432  L 139.797435 137.634534  L 145.797346 156.913224  L 151.797258 197.635052  L 157.797169 288.239863  L 163.79708 183.490635  L 169.796991 161.99716  L 175.796902 148.406439  L 181.796813 324.481787  L 187.796725 197.635052  L 193.796636 160.839432  L 199.796547 157.46692  L 205.796458 178.960394  L 211.796369 168.238825  L 217.796281 244.648882  L 223.796192 420.170533  L 229.796103 297.300344  L 235.796014 181.225515  L 241.795925 232.215888  L 247.795836 169.346217  L 253.795748 161.99716  L 259.795659 159.178344  L 265.79557 205.588141  L 271.795481 161.99716  L 277.795392 160.285736  L 283.795303 164.815977  L 289.795215 244.095186  L 295.795126 141.611078  L 301.795037 152.936679  L 307.794948 163.104553  L 313.794859 206.695533  L 319.794771 154.648104  L 325.794682 141.057382  L 331.794593 183.490635  L 337.794504 188.574571  L 343.794415 147.852743  L 349.794326 156.309192  L 355.794238 138.792262  L 361.794149 150.117863  L 367.79406 144.429895  L 373.793971 149.513831  L 379.793882 171.611338  L 385.793794 171.611338  L 391.793705 164.815977  L 397.793616 235.588401  L 403.793527 186.359787  L 409.793438 245.202578  L 415.793349 130.285477  L 421.793261 161.99716  L 427.793172 139.345958  L 433.793083 139.345958  L 439.792994 148.960135  L 445.792905 144.429895  L 449.243569 718.84  M 454.74359 718.84  L 457.792728 280.33711  L 463.792639 345.975261  L 469.79255 311.444761  L 475.792461 228.239344  L 481.792372 354.482046  L 487.792284 276.914261  L 493.792195 149.513831  L 499.792106 147.852743  L 505.792017 180.118123  L 511.791928 182.936939  L 517.791839 145.587623  L 523.791751 169.899913  L 529.791662 138.792262  L 535.791573 379.952065  L 541.791484 184.648363  L 547.791395 523.208337  L 549.684612 718.84  M 556.33773 718.84  L 559.791218 143.322502  L 565.791129 142.164774  L 571.79104 218.021135  L 577.790951 143.322502  L 583.790862 148.960135  L 589.790774 144.429895  L 595.790685 147.852743  L 601.790596 141.057382  L 607.790507 327.854299  L 613.790418 181.829547  L 619.790329 184.648363  L 625.790241 381.109793  L 631.790152 332.988572  L 637.790063 413.375173  L 643.789974 356.19347  L 649.789885 142.71847  L 655.789796 322.216666  L 661.789708 150.671559  L 667.789619 158.574312  L 673.78953 150.117863  L 679.789441 313.156185  L 685.789352 142.71847  L 691.789264 146.695015  L 697.789175 424.147078  L 703.789086 482.989868  L 709.788997 472.821995  L 715.788908 215.756014  L 721.788819 144.983591  L 727.788731 148.960135  L 733.788642 159.73204  L 739.788553 349.398109  L 742.580972 718.84  M 803.309118 718.84  L 805.787576 420.170533  L 811.787487 148.960135  L 817.787398 158.574312  L 823.787309 157.46692  L 829.787221 195.973964  L 835.787132 366.965375  L 841.787043 324.481787  L 847.786954 330.119419  L 853.786865 573.040982  L 859.786777 621.162204  L 865.786688 585.473976  L 871.786599 417.351717  L 877.78651 173.322762  L 883.786421 229.950768  L 889.786332 357.300862  L 895.786244 380.556097  L 901.786155 522.100945  L 907.786066 161.99716  L 913.785977 156.913224  L 919.785888 146.141319  L 925.785799 426.965894  L 931.785711 625.692444  L 937.785622 627.403869  L 943.785533 621.162204  L 949.785444 626.799836  L 955.785355 482.989868  L 961.785267 251.444242  L 967.785178 147.248711  L 973.785089 143.876198  L 979.785 151.778951  L 985.784911 165.369673  L 991.784822 218.021135  L 997.784734 291.058679  L 1003.784645 181.225515  L 1009.784556 289.397591  L 1015.784467 266.746388  L 1021.784378 218.021135  L 1027.78429 168.238825  L 1033.784201 158.574312  L 1039.784112 384.482305  L 1045.784023 139.899654  L 1051.783934 154.044072  L 1057.783845 149.513831  L 1063.783757 145.587623  L 1069.783668 145.587623  L 1075.783579 144.983591  L 1081.78349 139.345958  L 1087.783401 141.611078  L 1093.783312 166.527401  L 1099.783224 163.104553  L 1105.783135 143.876198  L 1111.783046 299.565464  L 1117.782957 140.45335  L 1123.782868 154.648104  L 1129.78278 138.18823  L 1135.782691 167.634793  L 1141.782602 171.057641  L 1145.16344 718.84  M 1164.697042 718.84  L 1165.782247 625.138748  L 1171.782158 412.217444  L 1177.782069 176.695274  L 1181.14763 718.84  M 1204.372084 718.84  L 1207.781625 160.285736  L 1211.191166 718.84  M 1222.418957 718.84  L 1225.781358 177.853002  L 1231.78127 177.853002  L 1237.781181 141.057382  L 1243.781092 241.830065  L 1249.781003 424.700774  L 1255.780914 278.071989  L 1261.780825 205.034445  L 1267.780737 143.322502  L 1273.780648 144.429895  L 1279.780559 369.784192  L 1282.488433 718.84  M 1288.517452 718.84  L 1291.780381 212.937198  L 1297.780293 161.443464  L 1303.780204 143.876198  L 1309.780115 148.406439  L 1315.780026 136.527142  L 1321.779937 149.513831  L 1327.779848 154.648104  L 1333.77976 139.899654  L 1339.779671 182.936939  L 1345.779582 168.238825  L 1351.779493 472.821995  L 1357.779404 295.035223  L 1363.779315 296.192951  L 1369.779227 203.323021  L 1375.779138 150.117863  L 1376.2 150.23438  L 1376.2 150.23438  "
           clip-path="url(#p2d6e4f2003)"
           style="fill: none; stroke: #228b22; stroke-width: 1.5; stroke-linecap: square"
           id="path26" />
      </g>
      <g
         id="patch_7">
        <path
           d="M 171.9 638.8776  L 171.9 86.1408  "
           style="fill: none; stroke: #000000; stroke-width: 0.8; stroke-linejoin: miter; stroke-linecap: square"
           id="path27" />
      </g>
      <g
         id="patch_8">
        <path
           d="M 1237.68 638.8776  L 1237.68 86.1408  "
           style="fill: none; stroke: #000000; stroke-width: 0.8; stroke-linejoin: miter; stroke-linecap: square"
           id="path28" />
      </g>
      <g
         id="patch_9">
        <path
           d="M 171.9 638.8776  L 1237.68 638.8776  "
           style="fill: none; stroke: #000000; stroke-width: 0.8; stroke-linejoin: miter; stroke-linecap: square"
           id="path29" />
      </g>
      <g
         id="patch_10">
        <path
           d="M 171.9 86.1408  L 1237.68 86.1408  "
           style="fill: none; stroke: #000000; stroke-width: 0.8; stroke-linejoin: miter; stroke-linecap: square"
           id="path30" />
      </g>
      <g
         id="legend_1">
        <g
           id="patch_11">
          <path
             d="M 480.672422 320.607988  L 928.907578 320.607988  Q 935.907578 320.607988 935.907578 313.607988  L 935.907578 110.6408  Q 935.907578 103.6408 928.907578 103.6408  L 480.672422 103.6408  Q 473.672422 103.6408 473.672422 110.6408  L 473.672422 313.607988  Q 473.672422 320.607988 480.672422 320.607988  z "
             style="fill: #ffffff; opacity: 0.8; stroke: #cccccc; stroke-linejoin: miter"
             id="path31" />
        </g>
        <g
           id="line2d_21">
          <path
             d="M 487.672422 131.985331  L 522.672422 131.985331  L 557.672422 131.985331  "
             style="fill: none; stroke: #a9a9a9; stroke-width: 1.5; stroke-linecap: square"
             id="path32" />
        </g>
        <g
           id="text_21">
          <text
             style="font: 35px 'DejaVu Sans', 'Bitstream Vera Sans', 'Computer Modern Sans Serif', 'Lucida Grande', 'Verdana', 'Geneva', 'Lucid', 'Arial', 'Helvetica', 'Avant Garde', sans-serif; text-anchor: start"
             x="585.672422"
             y="144.235331"
             transform="rotate(-0 585.672422 144.235331)"
             id="text32">mean hash count</text>
        </g>
        <g
           id="line2d_22">
          <path
             d="M 487.672422 183.358769  L 522.672422 183.358769  L 557.672422 183.358769  "
             style="fill: none; stroke: #000000; stroke-width: 1.5; stroke-linecap: square"
             id="path33" />
        </g>
        <g
           id="text_22">
          <text
             style="font: 35px 'DejaVu Sans', 'Bitstream Vera Sans', 'Computer Modern Sans Serif', 'Lucida Grande', 'Verdana', 'Geneva', 'Lucid', 'Arial', 'Helvetica', 'Avant Garde', sans-serif; text-anchor: start"
             x="585.672422"
             y="195.608769"
             transform="rotate(-0 585.672422 195.608769)"
             id="text33">median hash count</text>
        </g>
        <g
           id="patch_12">
          <path
             d="M 487.672422 246.982206  L 557.672422 246.982206  L 557.672422 222.482206  L 487.672422 222.482206  z "
             style="fill: #d3d3d3"
             id="path34" />
        </g>
        <g
           id="text_23">
          <text
             style="font: 35px 'DejaVu Sans', 'Bitstream Vera Sans', 'Computer Modern Sans Serif', 'Lucida Grande', 'Verdana', 'Geneva', 'Lucid', 'Arial', 'Helvetica', 'Avant Garde', sans-serif; text-anchor: start"
             x="585.672422"
             y="246.982206"
             transform="rotate(-0 585.672422 246.982206)"
             id="text34">hash count range</text>
        </g>
        <g
           id="line2d_23">
          <path
             d="M 487.672422 286.105644  L 522.672422 286.105644  L 557.672422 286.105644  "
             style="fill: none; stroke: #228b22; stroke-width: 1.5; stroke-linecap: square"
             id="path35" />
        </g>
        <g
           id="text_24">
          <text
             style="font: 35px 'DejaVu Sans', 'Bitstream Vera Sans', 'Computer Modern Sans Serif', 'Lucida Grande', 'Verdana', 'Geneva', 'Lucid', 'Arial', 'Helvetica', 'Avant Garde', sans-serif; text-anchor: start"
             x="585.672422"
             y="298.355644"
             transform="rotate(-0 585.672422 298.355644)"
             id="text35">$C_m$ complexity</text>
        </g>
      </g>
    </g>
  </g>
  <defs
     id="defs35">
    <clipPath
       id="p2d6e4f2003">
      <rect
         x="171.9"
         y="86.1408"
         width="1065.78"
         height="552.7368"
         id="rect35" />
    </clipPath>
  </defs>
</svg>
